<svg width="25" height="24" viewBox="0 0 25 24" fill="none" xmlns="http://www.w3.org/2000/svg">
<path fill-rule="evenodd" clip-rule="evenodd" d="M3.25 12C3.25 6.89421 7.39421 2.75 12.5 2.75C12.9142 2.75 13.25 2.41421 13.25 2C13.25 1.58579 12.9142 1.25 12.5 1.25C6.56579 1.25 1.75 6.06579 1.75 12C1.75 17.9342 6.56579 22.75 12.5 22.75C18.4342 22.75 23.25 17.9342 23.25 12C23.25 11.5858 22.9142 11.25 22.5 11.25C22.0858 11.25 21.75 11.5858 21.75 12C21.75 17.1058 17.6058 21.25 12.5 21.25C7.39421 21.25 3.25 17.1058 3.25 12ZM12.5 6.75C12.9142 6.75 13.25 7.08579 13.25 7.5V7.74023H13.34C14.7053 7.74023 15.76 8.88779 15.76 10.2402C15.76 10.6545 15.4242 10.9902 15.01 10.9902C14.5958 10.9902 14.26 10.6545 14.26 10.2402C14.26 9.65268 13.8147 9.24023 13.34 9.24023H13.25V11.4608L14.257 11.8121L14.2615 11.8137C14.6139 11.9391 15.0166 12.136 15.3174 12.5211C15.6248 12.9148 15.75 13.4059 15.75 13.9702C15.75 15.1979 14.7998 16.2502 13.55 16.2502H13.25V16.5C13.25 16.9142 12.9142 17.25 12.5 17.25C12.0858 17.25 11.75 16.9142 11.75 16.5V16.2502H11.67C10.3047 16.2502 9.25 15.1027 9.25 13.7502C9.25 13.336 9.58579 13.0002 10 13.0002C10.4142 13.0002 10.75 13.336 10.75 13.7502C10.75 14.3378 11.1953 14.7502 11.67 14.7502H11.75V12.5262L10.753 12.1784L10.7485 12.1768C10.4008 12.0531 9.99626 11.8597 9.6939 11.4747C9.38434 11.0805 9.26001 10.5877 9.26001 10.0202C9.26001 8.80584 10.2071 7.74023 11.46 7.74023H11.75V7.5C11.75 7.08579 12.0858 6.75 12.5 6.75ZM11.46 9.24023H11.75V10.9375L11.2494 10.7629C11.0086 10.677 10.9186 10.6056 10.8736 10.5483C10.8357 10.5 10.76 10.3728 10.76 10.0202C10.76 9.55462 11.1129 9.24023 11.46 9.24023ZM13.25 14.7502V13.0495L13.7606 13.2276C13.9966 13.3118 14.0886 13.3847 14.1351 13.4443C14.1752 13.4956 14.25 13.6246 14.25 13.9702C14.25 14.4426 13.9002 14.7502 13.55 14.7502H13.25ZM17.5 2.25C17.9142 2.25 18.25 2.58579 18.25 3V5.18934L21.9697 1.46967C22.2626 1.17678 22.7374 1.17678 23.0303 1.46967C23.3232 1.76256 23.3232 2.23744 23.0303 2.53033L19.3107 6.25H21.5C21.9142 6.25 22.25 6.58579 22.25 7C22.25 7.41421 21.9142 7.75 21.5 7.75H17.5C17.2954 7.75 17.1099 7.66806 16.9746 7.5352C16.9713 7.53197 16.968 7.52871 16.9648 7.52541C16.8953 7.45465 16.8427 7.37354 16.8069 7.28709C16.7702 7.19866 16.75 7.10169 16.75 7V3C16.75 2.58579 17.0858 2.25 17.5 2.25Z" fill="#2B2B2B"/>
</svg>
