<svg width="24" height="25" viewBox="0 0 24 25" fill="none" xmlns="http://www.w3.org/2000/svg">
<path fill-rule="evenodd" clip-rule="evenodd" d="M19.4697 3.96967C19.7626 3.67678 20.2374 3.67678 20.5303 3.96967C20.8232 4.26256 20.8232 4.73744 20.5303 5.03033L13.0607 12.5L20.5303 19.9697C20.8232 20.2626 20.8232 20.7374 20.5303 21.0303C20.2374 21.3232 19.7626 21.3232 19.4697 21.0303L12 13.5607L4.53033 21.0303C4.23744 21.3232 3.76256 21.3232 3.46967 21.0303C3.17678 20.7374 3.17678 20.2626 3.46967 19.9697L10.9393 12.5L3.46967 5.03033C3.17678 4.73744 3.17678 4.26256 3.46967 3.96967C3.76256 3.67678 4.23744 3.67678 4.53033 3.96967L12 11.4393L19.4697 3.96967Z" fill="#DBDBDB"/>
</svg>
