<svg width="24" height="24" viewBox="0 0 24 24" fill="none" xmlns="http://www.w3.org/2000/svg">
<path fill-rule="evenodd" clip-rule="evenodd" d="M8.99805 4.90039C8.99805 4.48618 9.33383 4.15039 9.74805 4.15039H14.3634C14.7776 4.15039 15.1134 4.48618 15.1134 4.90039C15.1134 5.3146 14.7776 5.65039 14.3634 5.65039H9.74805C9.33383 5.65039 8.99805 5.3146 8.99805 4.90039ZM5.15039 7.20801C5.15039 6.79379 5.48618 6.45801 5.90039 6.45801H18.2081C18.6223 6.45801 18.9581 6.79379 18.9581 7.20801C18.9581 7.62222 18.6223 7.95801 18.2081 7.95801H5.90039C5.48618 7.95801 5.15039 7.62222 5.15039 7.20801ZM16.6712 9.51562H7.44043V18.3618C7.44043 18.999 7.95701 19.5156 8.59428 19.5156H15.5174C16.1546 19.5156 16.6712 18.999 16.6712 18.3618V9.51562Z" fill="#DBDBDB"/>
</svg>
