<svg width="25" height="24" viewBox="0 0 25 24" fill="none" xmlns="http://www.w3.org/2000/svg">
<path fill-rule="evenodd" clip-rule="evenodd" d="M11.8892 3.02072C12.2163 2.69361 12.7615 2.69361 13.0886 3.02072L14.6086 4.54074L15.1302 4.0191L14.6086 4.54074C14.8285 4.76071 15.1143 4.92591 15.3792 5.03571C15.6436 5.14534 15.9611 5.23038 16.2689 5.23038H18.4189C18.8847 5.23038 19.2689 5.61459 19.2689 6.08036V8.23038C19.2689 8.53824 19.354 8.85572 19.4636 9.12014C19.5734 9.38498 19.7386 9.67076 19.9586 9.89072L21.4786 11.4107C21.8057 11.7378 21.8057 12.283 21.4786 12.6101L19.9586 14.1301C19.7386 14.35 19.5734 14.6358 19.4636 14.9006C19.354 15.1651 19.2689 15.4825 19.2689 15.7904V17.9403C19.2689 18.4061 18.8846 18.7904 18.4189 18.7904H16.2689C15.961 18.7904 15.6436 18.8755 15.3791 18.9851C15.1143 19.0949 14.8285 19.2601 14.6086 19.4801L13.0886 21.0001C12.7615 21.3272 12.2163 21.3272 11.8892 21.0001L10.3692 19.4801C10.1493 19.2601 9.86349 19.0949 9.59866 18.9851C9.33424 18.8755 9.01676 18.7904 8.7089 18.7904H6.5589C6.09317 18.7904 5.7089 18.4061 5.7089 17.9403V15.7904C5.7089 15.4798 5.62503 15.1604 5.5142 14.8931C5.40504 14.6299 5.2393 14.3438 5.01482 14.1257L3.49924 12.6101L2.96891 13.1404L3.49924 12.6101C3.17213 12.283 3.17213 11.7378 3.49924 11.4107L3.00521 10.9167L3.49924 11.4107L5.01923 9.89072L5.01923 9.89072C5.23919 9.67076 5.4044 9.38497 5.5142 9.12014C5.62384 8.85572 5.7089 8.53824 5.7089 8.23038V6.08036C5.7089 5.61459 6.0931 5.23038 6.5589 5.23038H8.7089C9.01674 5.23038 9.33421 5.14534 9.59864 5.03571C9.86347 4.92591 10.1493 4.76071 10.3692 4.54074L10.3692 4.54074L11.8892 3.02072ZM14.1492 1.96006C13.2363 1.04717 11.7415 1.04717 10.8286 1.96006L10.8286 1.96006L9.30857 3.48008L9.30856 3.48008C9.26853 3.52012 9.16932 3.5899 9.02416 3.65008C8.87858 3.71043 8.76105 3.73038 8.7089 3.73038H6.5589C5.26469 3.73038 4.2089 4.78613 4.2089 6.08036V8.23038C4.2089 8.28252 4.18895 8.40005 4.12859 8.54563C4.0684 8.6908 3.99861 8.79002 3.95857 8.83006L3.95856 8.83006L2.43858 10.3501L2.43857 10.3501C1.52568 11.263 1.52568 12.7578 2.43858 13.6707L3.95856 15.1907L3.96906 15.201C4.00149 15.2322 4.06873 15.3233 4.12859 15.4677C4.18776 15.6104 4.2089 15.731 4.2089 15.7904V17.9403C4.2089 19.2345 5.26462 20.2904 6.5589 20.2904H8.7089C8.76103 20.2904 8.87856 20.3103 9.02413 20.3707C9.1693 20.4309 9.26852 20.5007 9.30857 20.5407L10.8286 22.0607C11.7415 22.9736 13.2363 22.9736 14.1492 22.0607L15.6692 20.5407C15.7093 20.5007 15.8085 20.4309 15.9537 20.3707C16.0992 20.3103 16.2168 20.2904 16.2689 20.2904H18.4189C19.7132 20.2904 20.7689 19.2345 20.7689 17.9403V15.7904C20.7689 15.7383 20.7888 15.6207 20.8492 15.4752C20.9094 15.33 20.9792 15.2308 21.0192 15.1907L22.5392 13.6707C23.4521 12.7578 23.4521 11.263 22.5392 10.3501L21.0192 8.83006L20.4889 9.36039L21.0192 8.83006C20.9792 8.79002 20.9094 8.6908 20.8492 8.54563C20.7888 8.40005 20.7689 8.28252 20.7689 8.23038V6.08036C20.7689 4.78613 19.7131 3.73038 18.4189 3.73038H16.2689C16.2167 3.73038 16.0992 3.71043 15.9536 3.65008C15.8085 3.58989 15.7093 3.52011 15.6692 3.48008L14.1492 1.96006L14.1492 1.96006ZM16.0303 9.53033C16.3232 9.23744 16.3232 8.76256 16.0303 8.46967C15.7374 8.17678 15.2626 8.17678 14.9697 8.46967L8.96967 14.4697C8.67678 14.7626 8.67678 15.2374 8.96967 15.5303C9.26256 15.8232 9.73744 15.8232 10.0303 15.5303L16.0303 9.53033ZM13.9941 14.5C13.9941 13.9477 14.4419 13.5 14.9941 13.5H15.0038C15.5561 13.5 16.0038 13.9477 16.0038 14.5C16.0038 15.0523 15.5561 15.5 15.0038 15.5H14.9941C14.4419 15.5 13.9941 15.0523 13.9941 14.5ZM9.99609 8.5C9.44381 8.5 8.99609 8.94772 8.99609 9.5C8.99609 10.0523 9.44381 10.5 9.99609 10.5H10.0058C10.558 10.5 11.0058 10.0523 11.0058 9.5C11.0058 8.94772 10.558 8.5 10.0058 8.5H9.99609Z" fill="#2B2B2B"/>
</svg>
