<svg width="81" height="20" viewBox="0 0 81 20" fill="none" xmlns="http://www.w3.org/2000/svg">
<path fill-rule="evenodd" clip-rule="evenodd" d="M80.5 11C79.3181 11 78.1478 11.2328 77.0558 11.6851C75.9639 12.1374 74.9718 12.8003 74.136 13.636C73.3003 14.4718 72.6374 15.4639 72.1851 16.5558C71.7328 17.6478 71.5 18.8181 71.5 20H70.5C70.5 18.6868 70.7587 17.3864 71.2612 16.1732C71.7637 14.9599 72.5003 13.8575 73.4289 12.9289C74.2199 12.138 75.1369 11.4864 76.1411 11H0.5C0.223858 11 0 10.7761 0 10.5C0 10.2239 0.223858 10 0.5 10H76.1411C75.1369 9.51363 74.2199 8.86199 73.4289 8.07107C72.5003 7.14248 71.7637 6.04009 71.2612 4.82683C70.7587 3.61358 70.5 2.31322 70.5 1H71.5C71.5 2.1819 71.7328 3.35222 72.1851 4.44415C72.6374 5.53608 73.3003 6.52823 74.136 7.36396C74.9718 8.19969 75.9639 8.86262 77.0558 9.31492C78.1478 9.76721 79.3181 10 80.5 10C80.7761 10 81 10.2239 81 10.5C81 10.7761 80.7761 11 80.5 11Z" fill="#2B2B2B"/>
</svg>
