<svg width="21" height="19" viewBox="0 0 21 19" fill="none" xmlns="http://www.w3.org/2000/svg">
<path fill-rule="evenodd" clip-rule="evenodd" d="M20.5 10C19.3181 10 18.1478 10.2328 17.0558 10.6851C15.9639 11.1374 14.9718 11.8003 14.136 12.636C13.3003 13.4718 12.6374 14.4639 12.1851 15.5558C11.7328 16.6478 11.5 17.8181 11.5 19H10.5C10.5 17.6868 10.7587 16.3864 11.2612 15.1732C11.7638 13.9599 12.5003 12.8575 13.4289 11.9289C14.2199 11.138 15.1369 10.4864 16.1411 10H0.5C0.223858 10 0 9.77614 0 9.5C0 9.22386 0.223858 9 0.5 9H16.1411C15.1369 8.51363 14.2199 7.86199 13.4289 7.07107C12.5003 6.14248 11.7638 5.04009 11.2612 3.82683C10.7587 2.61358 10.5 1.31322 10.5 0H11.5C11.5 1.1819 11.7328 2.35222 12.1851 3.44415C12.6374 4.53608 13.3003 5.52823 14.136 6.36396C14.9718 7.19969 15.9639 7.86262 17.0558 8.31492C18.1478 8.76721 19.3181 9 20.5 9C20.7761 9 21 9.22386 21 9.5C21 9.77614 20.7761 10 20.5 10Z" fill="white"/>
</svg>
