<svg width="25" height="24" viewBox="0 0 25 24" fill="none" xmlns="http://www.w3.org/2000/svg">
<path fill-rule="evenodd" clip-rule="evenodd" d="M7.96001 3.64014C6.18718 3.64014 4.75 5.0773 4.75 6.85014C4.75 8.62297 6.18718 10.0601 7.96001 10.0601C9.73285 10.0601 11.17 8.62297 11.17 6.85014C11.17 5.07731 9.73285 3.64014 7.96001 3.64014ZM6.25 6.85014C6.25 5.90573 7.0156 5.14014 7.96001 5.14014C8.90441 5.14014 9.67 5.90573 9.67 6.85014C9.67 7.79455 8.90441 8.56014 7.96001 8.56014C7.0156 8.56014 6.25 7.79454 6.25 6.85014ZM17.8798 3.64014C16.107 3.64014 14.6699 5.07734 14.6699 6.85014C14.6699 8.62293 16.107 10.0601 17.8798 10.0601C19.6527 10.0601 21.0899 8.62299 21.0899 6.85014C21.0899 5.07728 19.6527 3.64014 17.8798 3.64014ZM16.1699 6.85014C16.1699 5.90569 16.9355 5.14014 17.8798 5.14014C18.8243 5.14014 19.5899 5.90575 19.5899 6.85014C19.5899 7.79452 18.8243 8.56014 17.8798 8.56014C16.9355 8.56014 16.1699 7.79458 16.1699 6.85014ZM14.6699 16.7701C14.6699 14.9973 16.107 13.5601 17.8798 13.5601C19.6527 13.5601 21.0899 14.9972 21.0899 16.7701C21.0899 18.543 19.6527 19.9801 17.8798 19.9801C16.107 19.9801 14.6699 18.543 14.6699 16.7701ZM17.8798 15.0601C16.9355 15.0601 16.1699 15.8256 16.1699 16.7701C16.1699 17.7146 16.9355 18.4801 17.8798 18.4801C18.8243 18.4801 19.5899 17.7145 19.5899 16.7701C19.5899 15.8257 18.8243 15.0601 17.8798 15.0601ZM7.96001 13.5601C6.18718 13.5601 4.75 14.9972 4.75 16.7701C4.75 18.543 6.1872 19.9801 7.96001 19.9801C9.73283 19.9801 11.17 18.543 11.17 16.7701C11.17 14.9973 9.73285 13.5601 7.96001 13.5601ZM6.25 16.7701C6.25 15.8257 7.0156 15.0601 7.96001 15.0601C8.90441 15.0601 9.67 15.8257 9.67 16.7701C9.67 17.7145 8.90443 18.4801 7.96001 18.4801C7.01558 18.4801 6.25 17.7145 6.25 16.7701Z" fill="#2B2B2B"/>
</svg>
