<svg width="24" height="24" viewBox="0 0 24 24" fill="none" xmlns="http://www.w3.org/2000/svg">
<path d="M11.0496 20.1458L11.0485 20.1448C8.4585 17.841 6.36985 15.979 4.91993 14.239C3.47778 12.5082 2.75 10.9928 2.75 9.3951C2.75 6.79268 4.81963 4.75 7.5 4.75C9.01859 4.75 10.4846 5.44728 11.4356 6.53419L12 7.1793L12.5644 6.53419C13.5154 5.44728 14.9814 4.75 16.5 4.75C19.1804 4.75 21.25 6.79268 21.25 9.3951C21.25 10.9928 20.5222 12.5082 19.0801 14.239C17.6301 15.979 15.5415 17.841 12.9515 20.1448L12.9505 20.1458L12 20.9945L11.0496 20.1458Z" stroke="#2B2B2B" stroke-width="1.5"/>
</svg>
