<svg width="24" height="24" viewBox="0 0 24 24" fill="none" xmlns="http://www.w3.org/2000/svg">
<g clip-path="url(#clip0_1583_33312)">
<circle cx="12" cy="12" r="12" fill="#F8F8F8"/>
<path fill-rule="evenodd" clip-rule="evenodd" d="M15.4147 8.10042C15.5486 7.96653 15.7657 7.96653 15.8996 8.10042C16.0335 8.23431 16.0335 8.4514 15.8996 8.58529L12.4849 12L15.8996 15.4147C16.0335 15.5486 16.0335 15.7657 15.8996 15.8996C15.7657 16.0335 15.5486 16.0335 15.4147 15.8996L12 12.4849L8.58529 15.8996C8.4514 16.0335 8.23431 16.0335 8.10042 15.8996C7.96653 15.7657 7.96653 15.5486 8.10042 15.4147L11.5151 12L8.10042 8.58529C7.96653 8.4514 7.96653 8.23431 8.10042 8.10042C8.23431 7.96653 8.4514 7.96653 8.58529 8.10042L12 11.5151L15.4147 8.10042Z" fill="#2B2B2B"/>
</g>
<defs>
<clipPath id="clip0_1583_33312">
<rect width="24" height="24" fill="white"/>
</clipPath>
</defs>
</svg>
