<svg width="24" height="24" viewBox="0 0 24 24" fill="none" xmlns="http://www.w3.org/2000/svg">
<path d="M12.7049 21.0743L12.7048 21.0744C12.5727 21.1878 12.4043 21.2502 12.2302 21.25C12.0564 21.2498 11.8884 21.1875 11.7567 21.0742C11.7564 21.074 11.7562 21.0738 11.7559 21.0735L11.441 20.8003C11.4406 20.7999 11.4402 20.7996 11.4398 20.7992C6.86625 16.7965 4.75 13.2906 4.75 10.2311C4.75 8.24701 5.53819 6.34416 6.94117 4.94117C8.34416 3.53819 10.247 2.75 12.2311 2.75C14.2152 2.75 16.1181 3.53819 17.5211 4.94117C18.9241 6.34416 19.7123 8.24701 19.7123 10.2311C19.7123 13.3621 17.4957 16.96 12.7049 21.0743ZM12.2311 6.31531C11.1926 6.31531 10.1966 6.72787 9.46223 7.46223C8.72787 8.19659 8.31531 9.19259 8.31531 10.2311C8.31531 11.2697 8.72787 12.2657 9.46223 13C10.1966 13.7344 11.1926 14.147 12.2311 14.147C13.2697 14.147 14.2657 13.7344 15 13C15.7344 12.2657 16.147 11.2697 16.147 10.2311C16.147 9.19259 15.7344 8.19659 15 7.46223C14.2657 6.72787 13.2697 6.31531 12.2311 6.31531Z" stroke="#2B2B2B" stroke-width="1.5"/>
</svg>
