<svg width="25" height="24" viewBox="0 0 25 24" fill="none" xmlns="http://www.w3.org/2000/svg">
<path fill-rule="evenodd" clip-rule="evenodd" d="M3.25 8C3.25 6.11561 3.72059 4.84007 4.53033 4.03033C5.34007 3.22059 6.61561 2.75 8.5 2.75H16.5C18.3844 2.75 19.6599 3.22059 20.4697 4.03033C21.2794 4.84007 21.75 6.11561 21.75 8V13C21.75 14.8844 21.2794 16.1599 20.4697 16.9697C19.6599 17.7794 18.3844 18.25 16.5 18.25H16C15.4521 18.25 14.9325 18.5124 14.6029 18.9462L14.6 18.95L13.1 20.95C12.8908 21.2289 12.6663 21.31 12.5 21.31C12.3337 21.31 12.1092 21.2289 11.9 20.95L10.4026 18.9535C10.2297 18.7182 9.98803 18.5515 9.77436 18.4455C9.55796 18.3383 9.28281 18.25 9 18.25H8.5C6.51326 18.25 5.26886 17.9887 4.49388 17.3106C3.74367 16.6541 3.25 15.4353 3.25 13V8ZM8.5 1.25C6.38439 1.25 4.65993 1.77941 3.46967 2.96967C2.27941 4.15993 1.75 5.88439 1.75 8V13C1.75 15.5647 2.25633 17.3459 3.50612 18.4394C4.73114 19.5113 6.48674 19.75 8.5 19.75H8.99494C8.99765 19.7504 9.00624 19.7517 9.02072 19.7556C9.04532 19.7622 9.07598 19.7735 9.10814 19.7895C9.14037 19.8054 9.16662 19.8224 9.1847 19.8365C9.19203 19.8422 9.19654 19.8462 9.19876 19.8483L9.2 19.85L10.7 21.85C11.1508 22.4511 11.7963 22.81 12.5 22.81C13.2037 22.81 13.8492 22.4511 14.3 21.85L15.7971 19.8538L15.7981 19.8525C15.8485 19.7871 15.9284 19.75 16 19.75H16.5C18.6156 19.75 20.3401 19.2206 21.5303 18.0303C22.7206 16.8401 23.25 15.1156 23.25 13V8C23.25 5.88439 22.7206 4.15993 21.5303 2.96967C20.3401 1.77941 18.6156 1.25 16.5 1.25H8.5ZM16.4961 10C15.9438 10 15.4961 10.4477 15.4961 11C15.4961 11.5523 15.9438 12 16.4961 12H16.505C17.0573 12 17.505 11.5523 17.505 11C17.505 10.4477 17.0573 10 16.505 10H16.4961ZM11.4961 11C11.4961 10.4477 11.9438 10 12.4961 10H12.5051C13.0574 10 13.5051 10.4477 13.5051 11C13.5051 11.5523 13.0574 12 12.5051 12H12.4961C11.9438 12 11.4961 11.5523 11.4961 11ZM8.49414 10C7.94186 10 7.49414 10.4477 7.49414 11C7.49414 11.5523 7.94186 12 8.49414 12H8.50312C9.05541 12 9.50312 11.5523 9.50312 11C9.50312 10.4477 9.05541 10 8.50312 10H8.49414Z" fill="#2B2B2B"/>
</svg>
