<svg width="24" height="24" viewBox="0 0 24 24" fill="none" xmlns="http://www.w3.org/2000/svg">
<path fill-rule="evenodd" clip-rule="evenodd" d="M18 3.5H6C4.61929 3.5 3.5 4.61929 3.5 6V18C3.5 19.3807 4.61929 20.5 6 20.5H18C19.3807 20.5 20.5 19.3807 20.5 18V6C20.5 4.61929 19.3807 3.5 18 3.5ZM6 2C3.79086 2 2 3.79086 2 6V18C2 20.2091 3.79086 22 6 22H18C20.2091 22 22 20.2091 22 18V6C22 3.79086 20.2091 2 18 2H6ZM8.25 8C8.25 7.58579 8.58579 7.25 9 7.25H18.5C18.9142 7.25 19.25 7.58579 19.25 8C19.25 8.41421 18.9142 8.75 18.5 8.75H9C8.58579 8.75 8.25 8.41421 8.25 8ZM6 7.25C5.58579 7.25 5.25 7.58579 5.25 8C5.25 8.41421 5.58579 8.75 6 8.75H6.1C6.51421 8.75 6.85 8.41421 6.85 8C6.85 7.58579 6.51421 7.25 6.1 7.25H6ZM8.25 12C8.25 11.5858 8.58579 11.25 9 11.25H18.5C18.9142 11.25 19.25 11.5858 19.25 12C19.25 12.4142 18.9142 12.75 18.5 12.75H9C8.58579 12.75 8.25 12.4142 8.25 12ZM6 11.25C5.58579 11.25 5.25 11.5858 5.25 12C5.25 12.4142 5.58579 12.75 6 12.75H6.1C6.51421 12.75 6.85 12.4142 6.85 12C6.85 11.5858 6.51421 11.25 6.1 11.25H6ZM8.25 16C8.25 15.5858 8.58579 15.25 9 15.25H18.5C18.9142 15.25 19.25 15.5858 19.25 16C19.25 16.4142 18.9142 16.75 18.5 16.75H9C8.58579 16.75 8.25 16.4142 8.25 16ZM6 15.25C5.58579 15.25 5.25 15.5858 5.25 16C5.25 16.4142 5.58579 16.75 6 16.75H6.1C6.51421 16.75 6.85 16.4142 6.85 16C6.85 15.5858 6.51421 15.25 6.1 15.25H6Z" fill="#AC2525"/>
</svg>
