<svg width="24" height="24" viewBox="0 0 24 24" fill="none" xmlns="http://www.w3.org/2000/svg">
<path fill-rule="evenodd" clip-rule="evenodd" d="M10.1668 5.2446C11.5434 4.87081 13.0014 4.92652 14.3454 5.40427C15.6895 5.88203 16.8556 6.75903 17.6875 7.91784V6.53091C17.6875 6.35685 17.7566 6.18993 17.8797 6.06685C18.0028 5.94377 18.1697 5.87463 18.3437 5.87463C18.5178 5.87463 18.6847 5.94377 18.8078 6.06685C18.9309 6.18993 19 6.35685 19 6.53091V10.2498H15.2812C15.1072 10.2498 14.9402 10.1807 14.8172 10.0576C14.6941 9.93453 14.6249 9.7676 14.6249 9.59354C14.6249 9.41949 14.6941 9.25256 14.8172 9.12948C14.9402 9.00641 15.1072 8.93726 15.2812 8.93726H16.7923C16.1069 7.86489 15.0817 7.0534 13.8805 6.63262C12.6794 6.21183 11.3719 6.20605 10.1671 6.61622C8.96236 7.02639 7.92996 7.82879 7.2351 8.89507C6.54024 9.96134 6.22306 11.2299 6.33432 12.4977C6.44557 13.7656 6.97883 14.9595 7.84878 15.8884C8.71873 16.8174 9.87509 17.4277 11.1329 17.6217C12.3907 17.8158 13.6772 17.5824 14.7867 16.9588C15.8961 16.3353 16.7644 15.3576 17.2526 14.1822C17.2843 14.1008 17.3319 14.0264 17.3928 13.9636C17.4536 13.9008 17.5263 13.8508 17.6068 13.8165C17.6872 13.7822 17.7736 13.7643 17.8611 13.7638C17.9485 13.7634 18.0351 13.7805 18.1159 13.814C18.1966 13.8475 18.2698 13.8968 18.3313 13.9591C18.3927 14.0213 18.4411 14.0952 18.4735 14.1763C18.506 14.2575 18.5219 14.3444 18.5204 14.4318C18.5188 14.5192 18.4998 14.6054 18.4645 14.6854C18.0084 15.7832 17.2804 16.7467 16.3489 17.4852C15.4174 18.2237 14.3132 18.7128 13.1404 18.9065C11.9676 19.1001 10.7648 18.9919 9.64538 18.5921C8.52595 18.1922 7.52679 17.5138 6.74208 16.6209C5.95736 15.728 5.41294 14.65 5.16014 13.4885C4.90734 12.3269 4.95447 11.1202 5.29711 9.98188C5.63975 8.8436 6.2666 7.81133 7.11857 6.98236C7.97054 6.1534 9.01957 5.55593 10.1668 5.2446Z" fill="#AC2525"/>
</svg>
