<svg width="24" height="24" viewBox="0 0 24 24" fill="none" xmlns="http://www.w3.org/2000/svg">
<path fill-rule="evenodd" clip-rule="evenodd" d="M15.4999 8C15.4999 9.933 13.9329 11.5 11.9999 11.5C10.0669 11.5 8.49993 9.933 8.49993 8C8.49993 6.067 10.0669 4.5 11.9999 4.5C13.9329 4.5 15.4999 6.067 15.4999 8ZM16.9999 8C16.9999 10.7614 14.7614 13 11.9999 13C9.2385 13 6.99993 10.7614 6.99993 8C6.99993 5.23858 9.2385 3 11.9999 3C14.7614 3 16.9999 5.23858 16.9999 8ZM3.73297 20.5C4.07331 19.4159 4.78582 18.3786 5.86597 17.5144C7.44731 16.2494 9.65068 15.5 12 15.5C14.3493 15.5 16.5527 16.2494 18.134 17.5144C19.2142 18.3786 19.9267 19.4159 20.267 20.5L12 20.5H3.73297ZM22 22C22 21.493 21.9398 20.991 21.8227 20.5C21.4496 18.9363 20.4983 17.4849 19.0711 16.3431C17.1957 14.8429 14.6522 14 12 14C9.34783 14 6.8043 14.8429 4.92893 16.3431C3.5017 17.4849 2.55043 18.9363 2.17731 20.5C2.06016 20.991 2 21.493 2 22H3.5H12L20.5 22H22Z" fill="#2B2B2B"/>
</svg>
