<svg width="24" height="24" viewBox="0 0 24 24" fill="none" xmlns="http://www.w3.org/2000/svg">
<path fill-rule="evenodd" clip-rule="evenodd" d="M12.7222 5.75C12.7222 5.33579 12.3864 5 11.9722 5C11.558 5 11.2222 5.33579 11.2222 5.75V11.2227H5.75C5.33579 11.2227 5 11.5584 5 11.9727C5 12.3869 5.33579 12.7227 5.75 12.7227H11.2222V18.1944C11.2222 18.6087 11.558 18.9444 11.9722 18.9444C12.3864 18.9444 12.7222 18.6087 12.7222 18.1944V12.7227H18.1944C18.6087 12.7227 18.9444 12.3869 18.9444 11.9727C18.9444 11.5584 18.6087 11.2227 18.1944 11.2227H12.7222V5.75Z" fill="#2B2B2B"/>
</svg>
