<svg width="25" height="24" viewBox="0 0 25 24" fill="none" xmlns="http://www.w3.org/2000/svg">
<path fill-rule="evenodd" clip-rule="evenodd" d="M4.4989 10.9169L4.24239 10.2121L3.37551 7.8304C3.23384 7.44117 3.43453 7.01079 3.82377 6.86912C4.213 6.72745 4.64338 6.92814 4.78505 7.31737L5.02774 7.98414C8.12336 1.37526 17.7734 1.53766 20.5469 8.47137C20.7007 8.85596 20.5137 9.29243 20.1291 9.44627C19.7445 9.6001 19.308 9.41304 19.1542 9.02845C16.8706 3.31943 8.9219 3.18873 6.37891 8.63636L7.07236 8.38396C7.46159 8.24229 7.89198 8.44298 8.03364 8.83222C8.17531 9.22145 7.97462 9.65183 7.58539 9.7935L5.20367 10.6604L4.4989 10.9169ZM20.2827 13.0838L20.5392 13.7885L21.4061 16.1702C21.5477 16.5595 21.347 16.9899 20.9578 17.1315C20.5686 17.2732 20.1382 17.0725 19.9965 16.6833L19.7539 16.0166C16.6583 22.6255 7.00816 22.4631 4.23467 15.5294C4.08084 15.1448 4.2679 14.7083 4.65248 14.5545C5.03707 14.4007 5.47355 14.5877 5.62739 14.9723C7.91102 20.6814 15.8598 20.8121 18.4027 15.3643L17.7092 15.6167C17.32 15.7584 16.8896 15.5577 16.7479 15.1684C16.6063 14.7792 16.807 14.3488 17.1962 14.2071L19.5779 13.3403L20.2827 13.0838Z" fill="#2B2B2B"/>
</svg>
