<svg width="25" height="24" viewBox="0 0 25 24" fill="none" xmlns="http://www.w3.org/2000/svg">
<path fill-rule="evenodd" clip-rule="evenodd" d="M9.5 1.25C6.92603 1.25 4.92914 1.7602 3.59467 3.09467C2.2602 4.42914 1.75 6.42603 1.75 9V15C1.75 17.574 2.2602 19.5709 3.59467 20.9053C4.92914 22.2398 6.92603 22.75 9.5 22.75H15.5C18.074 22.75 20.0709 22.2398 21.4053 20.9053C22.7398 19.5709 23.25 17.574 23.25 15V9C23.25 6.42603 22.7398 4.42914 21.4053 3.09467C20.0709 1.7602 18.074 1.25 15.5 1.25H9.5ZM3.25 9C3.25 6.57397 3.7398 5.07086 4.65533 4.15533C5.57086 3.2398 7.07397 2.75 9.5 2.75H15.5C17.926 2.75 19.4291 3.2398 20.3447 4.15533C21.2602 5.07086 21.75 6.57397 21.75 9V15C21.75 17.426 21.2602 18.9291 20.3447 19.8447C19.4291 20.7602 17.926 21.25 15.5 21.25H9.5C7.07397 21.25 5.57086 20.7602 4.65533 19.8447C3.7398 18.9291 3.25 17.426 3.25 15V9ZM17.5319 8.97126C17.603 9.0428 17.6568 9.12511 17.6931 9.21291C17.7298 9.30134 17.75 9.39831 17.75 9.5V11.5C17.75 11.9142 17.4142 12.25 17 12.25C16.5858 12.25 16.25 11.9142 16.25 11.5V11.3107L13.3303 14.2303C13.1714 14.3892 12.9497 14.4685 12.7261 14.4463C12.5025 14.4242 12.3006 14.303 12.176 14.116L11.0834 12.4772L8.53033 15.0303C8.23744 15.3232 7.76256 15.3232 7.46967 15.0303C7.17678 14.7374 7.17678 14.2626 7.46967 13.9697L10.6697 10.7697C10.8286 10.6108 11.0503 10.5315 11.2739 10.5536C11.4975 10.5758 11.6994 10.697 11.824 10.884L12.9166 12.5228L15.1893 10.25H15C14.5858 10.25 14.25 9.91421 14.25 9.5C14.25 9.08579 14.5858 8.75 15 8.75H17C17.1017 8.75 17.1987 8.77024 17.2871 8.80691C17.3749 8.84324 17.4572 8.89696 17.5287 8.96808L17.5303 8.96967L17.5319 8.97126Z" fill="#2B2B2B"/>
</svg>
