<svg width="25" height="24" viewBox="0 0 25 24" fill="none" xmlns="http://www.w3.org/2000/svg">
<path d="M14.6549 13.86C14.6077 13.8316 14.5685 13.7917 14.5409 13.744C14.514 13.6968 14.4998 13.6434 14.4999 13.589V4.92901C14.4999 4.41701 14.2899 3.92701 13.9139 3.56501C13.5333 3.20106 13.0265 2.99857 12.4999 3.00001C11.9699 3.00001 11.4599 3.20301 11.0859 3.56501C10.9014 3.74118 10.7544 3.95281 10.6537 4.1872C10.553 4.42159 10.5007 4.6739 10.4999 4.92901V13.589C10.4999 13.6434 10.4858 13.6968 10.4589 13.744C10.4313 13.7917 10.3921 13.8316 10.3449 13.86C9.75728 14.2273 9.276 14.7421 8.94892 15.353C8.62662 15.9561 8.47289 16.6349 8.50392 17.318C8.52936 17.8206 8.65437 18.3131 8.87169 18.767C9.08902 19.2209 9.39434 19.6271 9.76992 19.962C10.544 20.6534 11.5523 21.0241 12.5899 20.999C13.6273 20.9795 14.6182 20.5646 15.3599 19.839C15.7191 19.488 16.0048 19.069 16.2005 18.6065C16.3963 18.144 16.498 17.6472 16.4999 17.145C16.4999 16.493 16.3319 15.851 16.0099 15.278C15.6836 14.7 15.2178 14.2128 14.6549 13.861" stroke="#2B2B2B" stroke-width="1.5" stroke-miterlimit="10" stroke-linecap="round" stroke-linejoin="round"/>
</svg>
