<svg width="24" height="24" viewBox="0 0 24 24" fill="none" xmlns="http://www.w3.org/2000/svg">
<g clip-path="url(#clip0_2802_30694)">
<path d="M15.9773 7.08829C15.9773 7.08829 17.0873 6.65543 16.9945 7.70657C16.9639 8.13943 16.6865 9.65456 16.4705 11.2931L15.7305 16.1474C15.7305 16.1474 15.6688 16.8585 15.1136 16.9822C14.5587 17.1057 13.7262 16.5494 13.5719 16.4257C13.4484 16.3328 11.2593 14.9414 10.4884 14.2614C10.2724 14.0757 10.0256 13.7048 10.5193 13.272L13.757 10.18C14.127 9.80856 14.497 8.94285 12.9553 9.99428L8.63812 12.9314C8.63812 12.9314 8.14469 13.2408 7.21982 12.9626L5.21523 12.344C5.21523 12.344 4.47522 11.8803 5.73952 11.4166C8.82326 9.96342 12.6162 8.47943 15.977 7.088" fill="#2B2B2B"/>
<circle cx="12" cy="12" r="11.25" stroke="#2B2B2B" stroke-width="1.5"/>
</g>
<defs>
<clipPath id="clip0_2802_30694">
<rect width="24" height="24" fill="white"/>
</clipPath>
</defs>
</svg>
