<svg width="24" height="24" viewBox="0 0 24 24" fill="none" xmlns="http://www.w3.org/2000/svg">
<path d="M17.3895 14.4429C17.0914 14.2997 15.6364 13.5842 15.374 13.4768C15.0997 13.3814 14.9089 13.3337 14.7061 13.62C14.5034 13.9181 13.9429 14.586 13.7759 14.7768C13.6089 14.9795 13.43 15.0034 13.1319 14.8484C12.8337 14.7052 11.8796 14.3832 10.7586 13.3814C9.87602 12.5943 9.29164 11.6283 9.11274 11.3301C8.94578 11.032 9.08889 10.8769 9.24393 10.7219C9.37512 10.5907 9.54209 10.376 9.6852 10.2091C9.82832 10.0421 9.88795 9.9109 9.98336 9.72008C10.0788 9.51733 10.0311 9.35037 9.9595 9.20725C9.88795 9.06414 9.29164 7.60914 9.05311 7.01283C8.81459 6.44037 8.56414 6.51193 8.38524 6.5H7.81278C7.61004 6.5 7.29996 6.57156 7.02565 6.86971C6.76328 7.16787 6 7.88344 6 9.33844C6 10.7934 7.06143 12.2007 7.20455 12.3916C7.34766 12.5943 9.29164 15.5759 12.2493 16.852C12.953 17.162 13.5016 17.3409 13.9309 17.4721C14.6346 17.6987 15.2786 17.6629 15.7914 17.5914C16.3639 17.5079 17.5446 16.8758 17.7831 16.1841C18.0336 15.4924 18.0336 14.908 17.9501 14.7768C17.8666 14.6456 17.6877 14.586 17.3895 14.4429Z" fill="#2B2B2B"/>
<mask id="path-2-inside-1_2802_31019" fill="white">
<path fill-rule="evenodd" clip-rule="evenodd" d="M12 24C18.6274 24 24 18.6274 24 12C24 5.37258 18.6274 0 12 0C5.37258 0 0 5.37258 0 12C0 14.2152 0.600218 16.2902 1.64689 18.0712L0 24L5.35321 21.9925C7.25606 23.2608 9.5417 24 12 24Z"/>
</mask>
<path d="M1.64689 18.0712L3.09217 18.4727L3.26244 17.8597L2.94011 17.3112L1.64689 18.0712ZM0 24L-1.44528 23.5985L-2.23456 26.44L0.526685 25.4045L0 24ZM5.35321 21.9925L6.18512 20.7444L5.54586 20.3183L4.82653 20.5881L5.35321 21.9925ZM22.5 12C22.5 17.799 17.799 22.5 12 22.5V25.5C19.4558 25.5 25.5 19.4558 25.5 12H22.5ZM12 1.5C17.799 1.5 22.5 6.20101 22.5 12H25.5C25.5 4.54416 19.4558 -1.5 12 -1.5V1.5ZM1.5 12C1.5 6.20101 6.20101 1.5 12 1.5V-1.5C4.54416 -1.5 -1.5 4.54416 -1.5 12H1.5ZM2.94011 17.3112C2.02513 15.7543 1.5 13.9407 1.5 12H-1.5C-1.5 14.4896 -0.824693 16.8261 0.353677 18.8312L2.94011 17.3112ZM1.44528 24.4015L3.09217 18.4727L0.201616 17.6697L-1.44528 23.5985L1.44528 24.4015ZM4.82653 20.5881L-0.526685 22.5955L0.526685 25.4045L5.8799 23.397L4.82653 20.5881ZM12 22.5C9.84685 22.5 7.84925 21.8535 6.18512 20.7444L4.5213 23.2407C6.66286 24.6681 9.23656 25.5 12 25.5V22.5Z" fill="black" mask="url(#path-2-inside-1_2802_31019)"/>
</svg>
