<svg width="25" height="24" viewBox="0 0 25 24" fill="none" xmlns="http://www.w3.org/2000/svg">
<path fill-rule="evenodd" clip-rule="evenodd" d="M6.80404 4.30128C7.02398 4.26744 7.25575 4.25 7.5 4.25H16.5C16.7445 4.25 16.9468 4.2598 17.1267 4.28979C17.1389 4.29182 17.1511 4.29354 17.1634 4.29497C18.2851 4.42541 19.1691 4.89822 19.7747 5.59999C20.3817 6.30336 20.75 7.2847 20.75 8.5V9.19971H19.4202C18.6626 9.19971 17.9611 9.49778 17.4494 10.0196C17.2183 10.2469 17.0268 10.5148 16.8865 10.8106C16.8781 10.8282 16.87 10.8459 16.862 10.8636C16.6737 11.2829 16.587 11.7556 16.633 12.2467C16.7623 13.7693 18.1305 14.8 19.54 14.8H20.75V15.5C20.75 16.8296 20.3101 17.8793 19.5947 18.5947C18.8793 19.3101 17.8296 19.75 16.5 19.75H7.5C6.17044 19.75 5.12075 19.3101 4.40533 18.5947C3.68991 17.8793 3.25 16.8296 3.25 15.5V8.5C3.25 7.29286 3.61197 6.31761 4.20955 5.61651C4.80559 4.91721 5.67606 4.44312 6.78339 4.30416L6.80404 4.30128ZM22.25 14.6198V15.5C22.25 17.1704 21.6899 18.6207 20.6553 19.6553C19.6207 20.6899 18.1704 21.25 16.5 21.25H7.5C5.82956 21.25 4.37925 20.6899 3.34467 19.6553C2.31009 18.6207 1.75 17.1704 1.75 15.5V8.5C1.75 6.98713 2.20803 5.65239 3.06796 4.64349C3.92737 3.63519 5.14812 2.9999 6.58633 2.81714C6.88312 2.77204 7.18789 2.75 7.5 2.75H16.5C16.7697 2.75 17.0608 2.75976 17.3545 2.80711C18.805 2.97975 20.0395 3.6109 20.9103 4.62C21.7833 5.63163 22.25 6.9753 22.25 8.5V9.37953C22.841 9.6665 23.2502 10.2668 23.2502 10.9697V13.0298C23.2502 13.7327 22.841 14.3329 22.25 14.6198ZM18.2369 11.4635C18.1463 11.6593 18.1051 11.88 18.1268 12.1086L18.1277 12.1174L18.1276 12.1174C18.1805 12.7524 18.7911 13.2997 19.5401 13.2997H21.483C21.6447 13.2892 21.7502 13.1628 21.7502 13.0298V10.9697C21.7502 10.8377 21.6465 10.7124 21.4873 10.7H19.42C19.061 10.7 18.7452 10.8392 18.5174 11.0732L18.5039 11.0867C18.3927 11.1952 18.3021 11.3229 18.2369 11.4635ZM6.75 9C6.75 8.58579 7.08579 8.25 7.5 8.25H13.5C13.9142 8.25 14.25 8.58579 14.25 9C14.25 9.41421 13.9142 9.75 13.5 9.75H7.5C7.08579 9.75 6.75 9.41421 6.75 9Z" fill="#2B2B2B"/>
</svg>
