<svg width="128" height="24" viewBox="0 0 128 24" fill="none" xmlns="http://www.w3.org/2000/svg">
<path d="M12 2L14.2451 8.90983H21.5106L15.6327 13.1803L17.8779 20.0902L12 15.8197L6.12215 20.0902L8.36729 13.1803L2.48944 8.90983H9.75486L12 2Z" fill="#DBDBDB"/>
<path d="M38 2L40.2451 8.90983H47.5106L41.6327 13.1803L43.8779 20.0902L38 15.8197L32.1221 20.0902L34.3673 13.1803L28.4894 8.90983H35.7549L38 2Z" fill="#DBDBDB"/>
<path d="M64 2L66.2451 8.90983H73.5106L67.6327 13.1803L69.8779 20.0902L64 15.8197L58.1221 20.0902L60.3673 13.1803L54.4894 8.90983H61.7549L64 2Z" fill="#DBDBDB"/>
<path d="M90 2L92.2451 8.90983H99.5106L93.6327 13.1803L95.8779 20.0902L90 15.8197L84.1221 20.0902L86.3673 13.1803L80.4894 8.90983H87.7549L90 2Z" fill="#DBDBDB"/>
<path d="M116 2L118.245 8.90983H125.511L119.633 13.1803L121.878 20.0902L116 15.8197L110.122 20.0902L112.367 13.1803L106.489 8.90983H113.755L116 2Z" fill="#DBDBDB"/>
</svg>
