<svg width="117" height="40" viewBox="0 0 117 40" fill="none" xmlns="http://www.w3.org/2000/svg">
<path d="M17.2743 39.9994C10.0245 39.9994 3.47675 35.9018 0.255902 29.5718C-0.383111 28.3195 0.221517 26.7923 1.54825 26.3338C2.62856 25.9613 3.82635 26.434 4.34501 27.4541C6.78358 32.274 11.761 35.3945 17.2743 35.3945C21.9451 35.3945 26.2319 33.1536 28.9169 29.5374C29.7823 28.3711 30.983 26.5143 30.983 23.5312L35.1121 27.8581C35.1121 27.8581 34.8944 28.4771 34.476 29.2651C34.0576 30.0504 33.8829 30.3484 33.6279 30.7696C30.2236 36.4146 24.057 39.9994 17.2743 39.9994Z" fill="#BCBCBC"/>
<path d="M26.4026 19.8307C26.2278 17.5097 25.1991 15.6613 23.4254 14.4837C21.9439 13.5008 19.9466 12.9993 17.4936 12.9993H17.2186V12.9907H14.8173V9.21682H22.5428C23.7004 9.21682 24.646 8.33997 24.646 7.21955C24.646 6.09627 23.689 5.16211 22.5428 5.16211H12.714C11.5535 5.16211 10.6107 6.102 10.6107 7.2654V14.9651C10.6107 16.1256 11.5506 17.0683 12.714 17.0683H17.5796C20.8349 17.0683 21.8723 18.5613 21.8723 20.103C21.8723 21.6188 21.0526 24.0517 17.6341 24.0517C14.8086 24.0517 13.1209 22.1403 12.7713 21.828C11.7254 20.891 10.6709 20.9568 9.9717 21.573C9.08051 22.361 9.18941 23.4642 9.72812 24.2837C10.37 25.2552 12.8688 28.2726 17.6313 28.2726C20.3363 28.2726 22.7261 27.3012 24.3595 25.5417C25.8151 23.9743 26.5574 21.894 26.4026 19.8307Z" fill="#595959"/>
<path d="M73.6636 22.5955C71.3684 22.4838 69.1849 21.5438 68.1991 20.6527C67.1074 19.664 66.901 18.343 67.7521 17.6009C68.8668 16.6294 69.9958 17.5178 70.4773 17.8158C72.976 19.366 74.9704 19.2457 75.916 18.4978C76.469 18.0622 76.6954 17.5207 76.6209 17.0708C76.4834 16.254 75.5263 15.9647 74.3343 15.638C73.4373 15.3915 71.0216 14.6838 69.8755 14.0247C68.2335 13.0762 67.1045 11.4973 67.4885 9.29945C67.8925 6.97551 69.8984 5.22466 72.5175 4.9811C75.8358 4.67163 77.4576 5.47396 78.409 5.9869C79.7701 6.72048 80.0251 8.21628 79.3116 9.06734C78.9821 9.45991 78.0221 9.82958 77.0621 9.40548C73.7811 7.95551 72.1078 8.35383 71.6808 9.20489C71.228 10.1075 72.0446 10.9758 73.0934 11.3798C73.1565 11.4027 73.784 11.6578 74.6695 11.9443C75.4346 12.1936 76.383 12.4515 77.4204 12.8384C79.3316 13.549 80.9393 15.062 80.6985 17.5923C80.5696 18.9362 79.7759 20.4177 78.5895 21.2945C77.7155 21.9393 75.9848 22.7102 73.6636 22.5955Z" fill="#595959"/>
<path d="M93.3907 18.5456C92.9064 18.3651 92.1958 18.4425 91.7745 18.517C91.2072 18.6174 90.3188 18.7234 89.5967 18.517C88.3359 18.1589 87.8688 17.4396 87.8688 16.3306V8.92039H90.8604C91.998 8.92039 92.9235 8.0378 92.9235 6.95176C92.9235 5.86287 92.0009 4.98315 90.8604 4.98315H87.8688V2.15488C87.8688 0.965684 86.9059 0 85.7139 0C84.5247 0 83.5619 0.965684 83.5619 2.15488V4.98315H82.5877C81.45 4.98315 80.5244 5.86574 80.5244 6.95176C80.5244 8.04066 81.4472 8.92039 82.5877 8.92039H83.5619V16.3306C83.5619 19.8123 86.3385 22.6463 89.8775 22.6463C93.4164 22.6463 94.3534 21.3769 94.3534 20.1876C94.3507 19.3338 94.064 18.795 93.3907 18.5456Z" fill="#595959"/>
<path d="M58.0047 4.98242C53.2593 4.98242 49.3994 8.93398 49.3994 13.7882C49.3994 18.6452 53.2593 22.594 58.0018 22.594C62.747 22.594 66.604 18.6423 66.604 13.7882C66.6098 8.93112 62.7499 4.98242 58.0047 4.98242ZM58.0047 18.6252C55.5517 18.6252 53.5602 16.883 53.5602 13.7882C53.5602 10.6934 55.5545 8.93112 58.0047 8.93112C60.4547 8.93112 62.449 10.6934 62.449 13.7882C62.449 16.883 60.4547 18.6252 58.0047 18.6252Z" fill="#595959"/>
<path d="M39.9772 4.98242C38.2894 4.98242 36.1861 5.95957 35.1172 7.47257C35.0571 6.01401 34.2749 5.03687 33.1344 5.03687C31.9451 5.03687 30.9795 6.00256 30.9795 7.19175V27.0011C30.9795 28.1903 31.9451 29.156 33.1344 29.156C34.3235 29.156 35.2892 28.1932 35.2892 27.0011V20.4992C36.1059 21.5623 38.1375 22.6026 40.1577 22.6026C44.9031 22.6026 48.313 18.6452 48.313 13.7882C48.313 8.93112 44.8744 4.98242 39.9772 4.98242ZM39.7079 18.6252C36.9512 18.6252 35.0427 16.6967 35.0427 13.7882C35.0427 10.6046 37.3725 8.93112 39.7079 8.93112C42.1579 8.93112 44.1522 11.2264 44.1522 13.7882C44.1551 16.35 42.1607 18.6252 39.7079 18.6252Z" fill="#595959"/>
<path d="M109.172 10.9432L107.951 8.91442L106.753 10.9432H105.324L107.163 7.88569L105.289 5.04883H106.782L107.983 6.94294L109.129 5.04883H110.559L108.716 7.98025L110.61 10.9432H109.172Z" fill="#242424"/>
<path d="M115.265 8.94126C115.265 10.2365 114.288 11.0474 113.007 11.0474C111.878 11.0474 110.929 10.4256 110.835 9.06733H112.056C112.142 9.65763 112.612 9.90981 113.124 9.90981C113.763 9.90981 114.041 9.47997 114.041 8.92406C114.041 8.34236 113.612 7.98131 113.016 7.98131C112.52 7.98131 112.19 8.21915 112.038 8.47131H110.872L111.276 5.05273H115.113L114.984 6.19895H112.239L112.13 7.33083C112.13 7.33083 112.42 6.9927 113.294 6.9927C114.345 6.98697 115.265 7.69476 115.265 8.94126Z" fill="#242424"/>
<path d="M110.98 4.31549C110.329 1.7795 108.266 0 103.985 0H98.8154L99.5176 4.74531C100.045 9.02641 101.684 10.4047 104.581 10.9119C104.595 10.9148 104.687 10.9263 104.687 10.8202C104.687 10.783 104.664 10.7486 104.63 10.7343C102.67 9.90899 102.446 7.20394 102.028 4.49029L101.704 2.32681H104.655C107.378 2.32681 109.478 2.28382 110.808 4.38425C110.828 4.41291 110.859 4.43584 110.894 4.43584C110.945 4.43584 110.982 4.39285 110.982 4.34128C110.982 4.33267 110.982 4.32409 110.98 4.31549Z" fill="#BCBCBC"/>
</svg>
