<svg width="87" height="24" viewBox="0 0 87 24" fill="none" xmlns="http://www.w3.org/2000/svg">
<g clip-path="url(#clip0_1243_35435)">
<path fill-rule="evenodd" clip-rule="evenodd" d="M13.8783 18.1743H10.1438C4.3181 18.1743 8.55048 5.80083 13.455 5.80083H19.3555C20.3015 5.80083 21.9696 5.97513 22.7912 3.63486L24.0608 0H15.9695C11.5878 0 8.17701 1.54357 5.71229 4.13278C1.45503 8.5643 0.0110475 15.4855 1.0318 18.7967C2.00275 21.8589 4.64176 23.8755 8.77452 23.9253L11.9862 23.9502H15.9446L16.9156 21.0374C17.6376 18.971 16.0194 18.1743 13.8783 18.1743ZM59.3389 13.0456L60.5587 9.08715H47.538C45.3721 9.08715 44.4011 9.68466 44.0277 10.9294L42.8078 14.888H55.8285C57.9944 14.888 58.9654 14.2905 59.3389 13.0456ZM40.8658 20.0166L39.6459 23.9751H52.6667C54.8078 23.9751 55.8036 23.3776 56.1771 22.1328L57.397 18.1743H44.3762C42.2351 18.1743 41.2642 18.7718 40.8658 20.0166ZM62.3761 3.98341L63.5964 0.0248959H50.5754C48.4094 0.0248959 47.4385 0.622405 47.065 1.86722L45.8451 5.82573H58.8659C61.0072 5.82573 61.9778 5.22822 62.3761 3.98341ZM42.7082 4.78009C42.1604 1.09544 40.1936 0.0248959 35.4135 0.0248959H26.6999L21.621 14.888H24.8326C26.7496 14.888 27.7206 14.9129 28.7414 12.1743L30.8575 5.80083H34.094C36.8576 5.80083 36.2351 9.26144 34.8409 12.6224C33.5962 15.585 31.4302 18.1992 28.816 18.1992H23.4136C21.2476 18.1992 20.2517 18.7967 19.8534 20.0415L18.509 24H22.4675L26.3513 23.9751C29.787 23.9502 32.6003 23.7012 35.8866 20.7386C39.3721 17.5768 43.4053 9.46057 42.7082 4.78009ZM86.476 0H78.9325L71.8369 7.54357C71.0151 8.41492 70.1687 9.28628 69.3469 10.3071H69.2722L72.8075 0H66.6586L58.3679 23.9751H64.5174L67.1561 16.4316L69.8946 14.1162L72.0609 20.9378C72.7328 23.0539 73.4304 23.9751 74.9242 23.9751H79.6295L74.7994 10.5809L86.476 0Z" fill="#B0B0B0"/>
</g>
<defs>
<clipPath id="clip0_1243_35435">
<rect width="87" height="24" fill="white"/>
</clipPath>
</defs>
</svg>
