<svg width="24" height="24" viewBox="0 0 24 24" fill="none" xmlns="http://www.w3.org/2000/svg">
<g clip-path="url(#clip0_1587_47337)">
<path d="M-6 0H30V24H-6V0Z" fill="#FFBE29"/>
<path d="M-4.32227 4.68066H5.03773V19.3207H-4.32227V4.68066Z" fill="#EB7400"/>
<path d="M-4.32227 4.68066H0.357734V19.3207H-4.32227V4.68066Z" fill="#00534E"/>
<path d="M6.72266 4.68066H28.3227V19.3207H6.72266V4.68066Z" fill="#8D153A"/>
<path d="M9.0673 16.4766C9.0673 16.4766 8.8687 16.8911 8.64928 17.06C8.3242 17.3102 7.65763 17.2921 7.3747 17.584C7.0357 17.9283 7.40101 18.3831 7.39795 18.4226L7.37935 18.6628C7.37935 18.6628 7.60792 18.6656 7.70419 18.681C7.84891 18.7041 7.90537 18.8248 8.1748 18.8069C8.85223 18.7618 8.82493 18.1362 8.86324 17.6015C8.89726 17.3979 8.97598 17.1325 9.02074 16.9289C9.05911 16.7544 9.0673 16.4766 9.0673 16.4766Z" fill="#FFBE29" stroke="#2B2B2B" stroke-width="0.06288"/>
<path d="M14.1318 17.4737L14.2683 17.3968L14.3266 17.4739C14.4044 17.5765 14.6197 17.5753 14.7625 17.4715L14.8716 17.3921L14.9631 17.4715C15.0833 17.5759 15.3078 17.576 15.4512 17.4719C15.5516 17.3989 15.5655 17.3975 15.6319 17.453C15.6715 17.4861 15.7875 17.5237 15.8898 17.5367C16.074 17.56 16.0767 17.5587 16.1845 17.401C16.2748 17.2689 16.2888 17.2154 16.2673 17.0873C16.2513 16.9866 16.2399 16.8853 16.2332 16.7836C16.225 16.6348 16.2259 16.6339 16.4479 16.5584C16.5706 16.5168 16.7125 16.4609 16.7634 16.4343C16.8521 16.3878 17.0966 16.1075 17.0966 16.0522C17.0966 16.0376 17.0011 16.0151 16.8843 16.0024C16.42 15.9515 16.3413 15.7082 16.6432 15.2563C17.1355 14.5194 17.4326 13.8016 17.4346 13.3444C17.4355 13.14 17.4474 13.0714 17.4743 13.1159C17.5843 13.2975 17.3872 14.059 17.0887 14.6059L16.9685 14.8261L17.0832 14.8003C17.1463 14.7862 17.5171 14.6335 17.9073 14.4611C18.9754 13.9891 19.3422 13.8966 20.0334 13.925C20.6124 13.9488 20.859 14.0592 21.2679 14.4776C21.4845 14.6993 21.6931 14.8579 22.0748 15.0909C22.888 15.5876 22.9219 15.6306 22.9606 16.2146C22.9997 16.8064 22.9803 16.8385 22.5215 16.9374C22.1294 17.0219 21.8837 17.2002 21.8177 17.448C21.7825 17.5803 21.8566 17.5841 22.0543 17.4602L22.1992 17.3693L22.2636 17.4602C22.3483 17.5796 22.5283 17.5801 22.6778 17.4613L22.7907 17.3715L22.9061 17.4613C23.0855 17.6007 23.324 17.5669 23.3913 17.3925C23.4042 17.3589 23.4387 17.3697 23.5087 17.429C23.6397 17.5401 23.9756 17.5877 24.0118 17.5004C24.0257 17.4671 23.9994 17.3847 23.9534 17.3175C23.758 17.0315 23.6968 16.8952 23.6943 16.7396C23.6907 16.5232 23.7569 16.4187 24.0093 16.2427C24.3158 16.0288 24.4105 15.753 24.1774 15.753C24.0335 15.753 23.8884 15.6288 23.7959 15.4265C23.6078 15.0154 23.6447 14.5544 23.9269 13.7876C24.2137 13.0087 24.2455 12.865 24.2466 12.3441C24.2476 11.9229 24.2367 11.8501 24.1385 11.6192C24.0784 11.478 23.9566 11.2677 23.8677 11.152L23.7061 10.9415L23.9136 10.7739C24.547 10.2618 24.4175 9.42381 23.6549 9.10092C23.4216 9.00213 23.3633 8.99343 22.9545 8.99609C22.7093 8.9977 22.3353 9.0292 22.1235 9.06606C21.9075 9.10367 21.542 9.13388 21.2912 9.13488C20.8928 9.13644 20.8252 9.12688 20.6717 9.04713C20.5116 8.96398 20.4842 8.92452 20.4528 8.73236C20.4464 8.69286 20.4181 8.65346 20.3899 8.64478C20.3355 8.62805 20.084 8.84095 20.0469 8.93527C20.0286 8.98182 20.0136 8.97858 19.9598 8.91655C19.9241 8.87534 19.8742 8.78065 19.849 8.70615C19.7856 8.51875 19.8635 8.37825 20.0893 8.27299L20.2644 8.19131L20.1611 8.12878C19.948 7.99973 19.5856 8.088 19.4545 8.3009C19.4174 8.36111 19.377 8.4105 19.3646 8.41062C19.3522 8.41075 19.2818 8.35332 19.208 8.28297C18.9328 8.02062 19.0274 7.63245 19.3955 7.51394C19.5918 7.45074 19.7655 7.49894 19.8016 7.62665C19.8568 7.82162 20.0283 7.56534 19.9976 7.3339C19.9771 7.18004 19.9802 7.1747 20.0893 7.1747C20.2411 7.1747 20.5641 7.36903 20.664 7.52044C20.78 7.69629 20.7716 7.97321 20.6439 8.17961L20.5436 8.34165L20.6747 8.31602C20.8671 8.27845 21.0539 8.16192 21.1484 8.02059C21.2484 7.87119 21.2591 7.58025 21.1705 7.42328C21.0846 7.27113 21.0945 7.24697 21.2214 7.29838C21.4374 7.38583 21.5528 7.48226 21.6394 7.64754C21.7174 7.79639 21.7217 7.83338 21.6795 7.9883C21.6534 8.08388 21.5955 8.20964 21.5507 8.26776C21.481 8.35827 21.4786 8.37342 21.5341 8.37342C21.6376 8.37342 21.8536 8.27787 21.9304 8.19818C21.9692 8.15792 22.0257 8.05877 22.056 7.97786L22.1111 7.83075L22.1745 7.94288C22.264 8.10144 22.4382 8.24415 22.6504 8.33295C22.8788 8.42843 22.9738 8.43384 22.8544 8.34449C22.7739 8.28426 22.6256 7.85949 22.6705 7.81795C22.697 7.79352 23.007 8.02624 23.3609 8.33625C23.6957 8.62951 23.9061 8.72558 24.2136 8.72558C24.6065 8.72558 24.8352 8.39193 24.6586 8.07646C24.5557 7.89251 24.3264 7.86698 24.1923 8.0245C24.1306 8.09692 24.1137 8.15456 24.1318 8.23053C24.1539 8.3236 24.1452 8.336 24.0583 8.336C23.9442 8.336 23.7191 8.19348 23.3193 7.86802C22.7098 7.37172 21.9691 6.95105 21.4343 6.7974C21.0911 6.6988 20.3579 6.66032 20.009 6.7226C19.6313 6.79001 19.1847 7.00087 18.9414 7.22657C18.5102 7.62653 18.5034 8.15875 18.9232 8.64341L19.0434 8.78224L18.962 8.90561C18.8436 9.08509 18.8537 9.32668 18.9872 9.5046C19.0459 9.58298 19.1052 9.64707 19.1189 9.64701C19.1326 9.64694 19.1476 9.59658 19.1522 9.53506C19.164 9.37937 19.2325 9.27509 19.35 9.23379C19.4559 9.19658 19.5243 9.21415 20.009 9.40295C20.519 9.60152 21.3576 9.61518 22.2493 9.43942C22.6865 9.35325 23.202 9.35832 23.4288 9.45103C23.8445 9.62095 23.9409 10.063 23.6353 10.3986C23.503 10.5439 23.3754 10.603 22.9471 10.7177C22.6211 10.805 22.5439 10.8108 21.803 10.8036C21.1701 10.7974 20.9426 10.8093 20.6843 10.8619C20.4038 10.9191 20.2312 10.9248 19.4073 10.9046L18.4546 10.8812L18.5603 10.9665C18.6184 11.0135 18.7005 11.0712 18.7427 11.0949C18.8145 11.1351 18.8122 11.1405 18.7053 11.1791C18.6426 11.2018 18.5033 11.2204 18.3957 11.2204H18.2003L18.174 11.3825C18.1595 11.4716 18.1606 11.5757 18.1764 11.6138C18.1998 11.6699 18.1911 11.678 18.1304 11.6565C18.0893 11.6419 17.9748 11.6132 17.876 11.5927C17.7772 11.5723 17.6442 11.5306 17.5804 11.5001C17.4732 11.4489 17.4613 11.4503 17.4218 11.5185C17.3866 11.5793 17.0555 11.8198 17.0069 11.8198C16.9991 11.8198 16.9889 11.7734 16.9844 11.7167C16.9799 11.6601 16.9321 11.5126 16.8783 11.3889C16.8244 11.2653 16.7682 11.1305 16.7533 11.0893C16.7309 11.0271 16.7207 11.0239 16.6937 11.0705C16.6757 11.1015 16.6495 11.1857 16.6355 11.2578C16.6214 11.33 16.5715 11.4471 16.5246 11.5182L16.4393 11.6474L16.385 11.5369C16.3266 11.4183 16.2296 11.2953 16.1946 11.2953C16.1827 11.2953 16.1625 11.3332 16.1497 11.3796C16.123 11.4764 15.8931 11.7448 15.837 11.7448C15.8163 11.7448 15.7994 11.669 15.7994 11.5762C15.7994 11.4835 15.7811 11.4076 15.7588 11.4076C15.7365 11.4076 15.7183 11.4316 15.7183 11.4609C15.7183 11.5322 15.522 11.7448 15.4561 11.7448C15.4274 11.7448 15.3812 11.7701 15.3534 11.8009C15.281 11.8815 15.2218 11.8702 15.2523 11.7816C15.2665 11.7401 15.2572 11.6432 15.2317 11.5662L15.1712 11.3843C15.1615 11.3551 15.0911 11.3629 14.9422 11.4094C14.7017 11.4847 14.621 11.4714 14.7447 11.3768C14.79 11.3422 14.8588 11.2225 14.8976 11.1107C14.9365 10.9989 14.9938 10.8998 15.025 10.8904C15.0688 10.8771 15.0664 10.8935 15.0149 10.9614C14.9781 11.01 14.9479 11.0754 14.9478 11.1069C14.9476 11.1384 14.9199 11.213 14.8862 11.2727C14.8525 11.3324 14.8313 11.3872 14.8391 11.3944C14.8469 11.4017 14.9385 11.3677 15.0425 11.319L15.2318 11.2305L15.2325 11.3097C15.233 11.3532 15.2558 11.4681 15.2832 11.565L15.3331 11.7412L15.4619 11.6834C15.5936 11.6244 15.7182 11.4139 15.7182 11.2508C15.7182 11.1701 15.7656 11.1825 15.785 11.2682C15.7907 11.2934 15.8204 11.3878 15.851 11.478L15.9067 11.6421L15.9949 11.5385C16.0434 11.4815 16.1042 11.3698 16.13 11.2901C16.1749 11.1519 16.2452 11.0925 16.2452 11.1928C16.2452 11.2652 16.4475 11.5246 16.4865 11.5023C16.5054 11.4915 16.543 11.3942 16.57 11.2859C16.6263 11.0609 16.717 10.9078 16.7747 10.9407C16.7964 10.9531 16.8048 10.9771 16.7934 10.9941C16.782 11.0111 16.8286 11.1574 16.897 11.3193L17.0494 11.6814C17.0743 11.7414 17.0969 11.7327 17.2433 11.6065C17.3345 11.528 17.4172 11.4401 17.4271 11.4112C17.4422 11.3675 17.4625 11.3691 17.5477 11.4207C17.6669 11.4928 18.0676 11.6091 18.0985 11.5805C18.1101 11.5698 18.122 11.4671 18.1249 11.3524L18.1302 11.1437L18.2454 11.167C18.3088 11.1798 18.442 11.179 18.5415 11.1652L18.7224 11.1401L18.5612 11.0322C18.4725 10.9729 18.3829 10.8961 18.362 10.8615C18.3397 10.8248 18.2608 10.7936 18.1714 10.7861C17.9299 10.7661 17.5018 10.5319 17.5018 10.4197C17.5018 10.3987 17.5611 10.4345 17.6336 10.4993C17.7943 10.643 18.0177 10.7333 18.2127 10.7333H18.3587L18.2684 10.6161C18.2165 10.5488 18.17 10.4211 18.1591 10.3161C18.1417 10.1487 18.1235 10.122 17.9444 10.0005C17.8367 9.9275 17.7034 9.81809 17.6482 9.75737L17.5476 9.64694L17.4963 9.77805C17.4681 9.85016 17.4336 9.90915 17.4197 9.90915C17.4057 9.90915 17.3515 9.86699 17.2991 9.81549C17.2468 9.76399 17.1934 9.72203 17.1806 9.72227C17.1677 9.72251 17.1213 9.79188 17.0775 9.87643L16.9977 10.0302L16.9361 9.94155C16.9022 9.8928 16.8222 9.80657 16.7582 9.74991C16.6943 9.69325 16.6606 9.64688 16.6835 9.64688C16.7063 9.64688 16.7852 9.7059 16.8589 9.77805L16.9928 9.90921L17.0472 9.81311C17.0796 9.75608 17.0917 9.66848 17.077 9.59768C17.0557 9.49443 17.0587 9.48845 17.0993 9.55323C17.1251 9.59444 17.2034 9.67343 17.2733 9.72878L17.4005 9.82942L17.4882 9.6726C17.5756 9.51655 17.5762 9.51624 17.6159 9.60944C17.669 9.73409 18.0536 10.0416 18.3809 10.2213C18.4314 10.249 18.4101 10.1538 18.317 9.93477C18.2923 9.87677 18.2721 9.77221 18.2721 9.70242C18.2721 9.59887 18.2415 9.55277 18.1057 9.452C17.9098 9.30652 17.8464 9.20306 17.8095 8.96832C17.7945 8.87323 17.7602 8.76748 17.7333 8.73333C17.6933 8.68263 17.6867 8.71101 17.6974 8.8875C17.7046 9.00644 17.6887 9.15434 17.6621 9.21613L17.6138 9.32851L17.5764 9.23486C17.5558 9.18336 17.4649 9.09377 17.3744 9.03579C17.2838 8.97782 17.2203 8.92067 17.2331 8.90876C17.246 8.89684 17.3392 8.94969 17.4402 9.02617C17.594 9.14267 17.6279 9.15529 17.6492 9.10397C17.6743 9.04367 17.6492 8.78135 17.6008 8.59805C17.5767 8.50651 17.5788 8.50699 17.6945 8.61992C17.7799 8.70319 17.8271 8.80252 17.8636 8.97577C17.9101 9.19591 17.9335 9.23257 18.1421 9.41129C18.2674 9.51862 18.3764 9.60039 18.3844 9.59303C18.3924 9.58567 18.4082 9.30801 18.4195 8.97605C18.4413 8.33945 18.4167 8.18798 18.2596 7.9913L18.1788 7.89022L18.3057 7.75665C18.4713 7.58242 18.5473 7.44273 18.5803 7.25219L18.6071 7.09718L18.4639 7.22953C18.3466 7.3379 18.2906 7.36188 18.1548 7.36188C18.0203 7.36188 17.9677 7.33989 17.8771 7.24566C17.7683 7.13258 17.5756 7.02381 17.3903 6.97084C17.3219 6.95129 17.2991 6.95981 17.2991 7.00499C17.2991 7.0381 17.2613 7.13368 17.2151 7.2174L17.131 7.36961L16.955 7.19981C16.847 7.09565 16.7188 7.01458 16.6235 6.99014C16.3799 6.92765 16.3667 6.93385 16.3667 7.11092C16.3667 7.37951 16.2492 7.42954 16.0376 7.25103C15.8764 7.11495 15.7426 7.08535 15.4368 7.11813L15.2007 7.14345L15.2432 7.24746C15.2787 7.33436 15.2707 7.37092 15.1946 7.46961C15.0713 7.62967 14.9109 7.69901 14.6641 7.69901C14.5504 7.69901 14.4081 7.72198 14.3479 7.75002C14.2877 7.77806 14.1381 7.81041 14.0154 7.82186C13.8928 7.83332 13.7621 7.85375 13.725 7.86728C13.6669 7.88845 13.6605 7.87101 13.6792 7.74211C13.7079 7.54485 13.5666 7.39933 13.3465 7.39933C13.061 7.39933 12.9293 7.64855 13.0411 7.97731C13.0653 8.05026 13.0862 8.12425 13.1037 8.19904C13.117 8.25991 13.2457 8.42147 13.4032 8.57529C13.5551 8.72356 13.6986 8.87781 13.7222 8.9181C13.7458 8.95839 13.8236 9.02306 13.8953 9.06179L14.0255 9.13223L14.0083 8.99624C13.9895 8.84678 14.0228 8.82335 14.1043 8.92879C14.1335 8.96649 14.2075 9.02742 14.2688 9.0642C14.3654 9.12215 14.3803 9.12331 14.3803 9.073C14.3803 9.04108 14.4 8.9675 14.424 8.90949L14.4678 8.80405L14.5437 8.94752C14.5855 9.02642 14.7213 9.20578 14.8455 9.34607C15.0865 9.61829 15.2333 9.92249 15.1575 9.9925C15.1268 10.0209 15.0437 10.0187 14.8715 9.98493C14.7379 9.95875 14.5728 9.94491 14.5045 9.95417C14.365 9.97311 14.354 9.95551 14.4398 9.85068C14.5303 9.74002 14.5159 9.72178 14.338 9.72178C14.1321 9.72178 13.6211 9.6255 13.4249 9.54975C13.2341 9.47611 13.1901 9.49443 13.1339 9.67098L13.0311 9.99092L12.9742 10.1664L13.1806 10.147C13.2942 10.1363 13.4402 10.1121 13.5051 10.0931C13.57 10.0741 13.629 10.064 13.6362 10.0707C13.6434 10.0773 13.6145 10.1459 13.5719 10.223L13.4946 10.3633L13.6232 10.3377C13.694 10.3236 13.8005 10.2892 13.8598 10.2611C13.9631 10.2124 13.9714 10.2159 14.0529 10.3435C14.1531 10.5005 14.2333 10.494 14.2511 10.3276C14.2694 10.1556 14.3275 10.181 14.4366 10.409C14.5415 10.6282 14.6507 10.7056 14.6717 10.5757C14.6786 10.5325 14.7352 10.4623 14.7973 10.4196C14.9229 10.3332 15.0176 10.3591 15.0719 10.4947C15.1281 10.6351 15.0028 10.7798 14.6382 10.9954C13.9079 11.4273 13.4834 12.018 13.3623 12.7709C13.253 13.45 13.5943 14.1518 14.2792 14.6558C14.607 14.897 15.1276 15.1516 15.0945 15.0545C14.954 14.642 14.9586 13.8548 15.1023 13.7221C15.1239 13.7021 15.1165 13.7842 15.0858 13.9046C14.9717 14.3527 15.0213 14.7098 15.3138 15.5468C15.5784 16.3037 15.5418 16.6273 15.1673 16.8411C15.0471 16.9098 14.9696 16.9211 14.6463 16.9173C14.2955 16.9131 14.2572 16.92 14.1446 17.0076C14.0354 17.0925 13.8938 17.3712 13.8938 17.5013C13.8938 17.5718 13.974 17.5625 14.1316 17.4737L14.1318 17.4737ZM19.8267 17.4584L19.9739 17.3662L20.0737 17.4584C20.2046 17.5793 20.3579 17.5767 20.4836 17.4512C20.5386 17.3965 20.5878 17.3585 20.5932 17.3669C20.6116 17.3969 20.6297 17.4269 20.6476 17.4571C20.6787 17.5093 20.7426 17.5355 20.858 17.5434C20.9971 17.553 21.0344 17.5399 21.0897 17.462L21.1555 17.3691L21.3004 17.4599C21.697 17.7086 21.9084 17.4477 21.7311 16.9281C21.641 16.6639 21.6906 16.5154 21.9811 16.1791C22.1036 16.0373 22.2039 15.8859 22.204 15.8428C22.204 15.7739 22.1813 15.7647 22.0183 15.7678C21.8623 15.7709 21.8167 15.7545 21.7345 15.6663C21.601 15.5229 21.6089 15.3586 21.7582 15.1763L21.8775 15.0306L21.6659 14.8905C21.5495 14.8134 21.3396 14.6311 21.1994 14.4853C20.8847 14.1579 20.5752 14.0026 20.1671 13.9674L19.8935 13.9438L19.8939 14.1459C19.8944 14.4061 20.0196 14.6563 20.3611 15.0802C20.7495 15.5622 20.7766 15.6368 20.7923 16.2668L20.8056 16.7996L20.6932 16.9036C20.5917 16.9976 20.5459 17.0096 20.2182 17.028C19.9063 17.0456 19.8407 17.0613 19.7492 17.1404C19.6276 17.2455 19.5913 17.3027 19.5537 17.4478C19.5318 17.5324 19.5407 17.5508 19.6033 17.5508C19.6452 17.5508 19.7457 17.5093 19.8266 17.4585L19.8267 17.4584ZM11.5426 15.9172C11.5426 15.8498 11.5735 15.8318 11.7252 15.8108L11.9077 15.7855L11.786 15.6909C11.6414 15.5784 11.628 15.4905 11.7555 15.4903C11.8824 15.4903 12.0975 15.3617 12.1302 15.2665C12.1454 15.2223 12.1358 15.1632 12.1086 15.1328C12.0374 15.0535 11.9035 15.0655 11.8787 15.1533C11.852 15.2477 11.8072 15.248 11.7058 15.1543C11.5533 15.0133 11.5498 14.7215 11.6987 14.5515C11.7689 14.4715 11.7683 14.4662 11.6788 14.3835C11.5826 14.2946 11.5138 14.1186 11.5591 14.0768C11.5735 14.0635 11.6495 14.0741 11.728 14.1003C11.8397 14.1376 11.8837 14.1382 11.9297 14.1029C12.069 13.9961 11.9181 13.8587 11.6947 13.889C11.6048 13.9012 11.5677 13.889 11.5547 13.8435C11.545 13.809 11.4663 13.764 11.3777 13.7421C11.2194 13.7031 11.2183 13.7035 11.2183 13.81C11.2183 13.9266 11.1501 13.9486 11.0204 13.8738C10.9151 13.813 10.8129 13.8602 10.8129 13.9696C10.8129 14.0717 10.9181 14.1221 11.1068 14.1103C11.2515 14.1012 11.2569 14.2061 11.1194 14.3571L11.0206 14.4656L11.0989 14.5753C11.2148 14.7379 11.2051 15.0078 11.0784 15.1419L10.9791 15.247L10.914 15.1627C10.8234 15.0456 10.6996 15.0534 10.6656 15.1784C10.6434 15.2603 10.6618 15.2977 10.7668 15.3845C10.8374 15.4428 10.9405 15.4904 10.9959 15.4904C11.133 15.4904 11.1277 15.5956 10.9852 15.7019L10.8737 15.785L11.046 15.8111C11.1407 15.8255 11.2183 15.8524 11.2183 15.8711C11.2183 15.9425 11.2629 16.1593 11.376 16.1648C11.4771 16.1696 11.5402 16.0197 11.5426 15.9173L11.5426 15.9172ZM13.7229 15.1327C13.8795 15.0725 14.2182 14.7926 14.2182 14.7235C14.2182 14.7017 14.1247 14.6014 14.0104 14.5005C13.77 14.2882 13.5083 13.9306 13.4406 13.7216C13.4052 13.6126 13.2344 13.426 12.7533 12.9707L12.1132 12.365L11.9287 12.4106C11.8273 12.4356 11.7034 12.4568 11.6536 12.4575C11.5677 12.4588 11.5693 12.4636 11.6835 12.5498L11.804 12.6408L11.9729 12.5494C12.1366 12.4607 12.1425 12.4601 12.1627 12.5315C12.1745 12.5733 12.149 12.6457 12.1037 12.6988C12.0598 12.7504 12.0348 12.8089 12.0481 12.8288C12.0615 12.8488 12.0193 12.8904 11.9544 12.9214C11.8342 12.9788 11.7508 13.1679 11.8457 13.1679C11.931 13.1679 12.1192 12.9414 12.0975 12.8647C12.0864 12.8255 12.0918 12.7851 12.1094 12.7751C12.1827 12.7332 12.1782 12.9111 12.1037 12.9986C12.0598 13.0501 12.0348 13.1086 12.0481 13.1285C12.0614 13.1485 12.0193 13.1901 11.9544 13.2211C11.835 13.2782 11.7507 13.4676 11.8448 13.4676C11.9369 13.4676 12.122 13.2512 12.0991 13.1702C12.0871 13.1278 12.0917 13.0848 12.1094 13.0748C12.1588 13.0466 12.1854 13.187 12.1437 13.2558C12.1214 13.2926 12.1216 13.343 12.1443 13.3828C12.1853 13.4551 12.1437 13.5939 12.0681 13.6371C12.0357 13.6556 12.0577 13.6919 12.1362 13.7497C12.2499 13.8335 12.2521 13.8423 12.2521 14.2119C12.2521 14.5208 12.2648 14.6005 12.323 14.6542C12.3883 14.7146 12.394 14.7148 12.394 14.6569C12.394 14.5937 12.5077 14.5165 12.6007 14.5165C12.6281 14.5165 12.7995 14.6582 12.9816 14.8315C13.1647 15.0058 13.3564 15.1541 13.4107 15.1635L13.5405 15.1857C13.5579 15.1885 13.64 15.1647 13.7229 15.1328L13.7229 15.1327ZM11.7657 13.6385C11.7657 13.5389 11.5552 13.4326 11.3034 13.405C11.1001 13.3828 11.0968 13.384 11.0968 13.4831C11.0968 13.5651 11.1287 13.5974 11.269 13.657C11.4945 13.7528 11.7656 13.7427 11.7656 13.6385H11.7657ZM11.9964 13.6293C12.0991 13.5384 12.1477 13.4303 12.086 13.4303C12.0149 13.4303 11.8263 13.5954 11.8263 13.6576C11.8263 13.7547 11.8614 13.7488 11.9964 13.6293ZM11.7776 13.3348C11.7863 13.2787 11.7506 13.2412 11.6439 13.1941C11.4136 13.0926 11.1383 13.0456 11.072 13.0965C10.9499 13.1901 11.0312 13.3159 11.2286 13.3385C11.3081 13.3476 11.4158 13.3712 11.468 13.391C11.6198 13.4485 11.764 13.4223 11.7776 13.3348V13.3348ZM11.7776 13.034C11.79 12.9538 11.7374 12.9251 11.3087 12.7779C10.9886 12.668 10.8468 12.7198 10.9491 12.9094C10.9848 12.9755 11.0446 13.0056 11.1787 13.0253C11.2785 13.0398 11.4149 13.0683 11.4818 13.0886C11.6605 13.1427 11.7637 13.1237 11.7776 13.034V13.034ZM11.9923 12.752C12.057 12.688 12.1099 12.6125 12.1099 12.5842C12.1099 12.4924 11.8545 12.6548 11.8219 12.7674C11.7828 12.9023 11.8461 12.8966 11.9923 12.752ZM11.7776 12.7331C11.7917 12.6418 11.6361 12.5593 11.3301 12.496C11.1056 12.4495 11.0066 12.4759 11.0234 12.5777C11.0325 12.6332 11.1073 12.6738 11.3194 12.7384C11.6589 12.8418 11.761 12.8406 11.7776 12.7331V12.7331ZM12.0769 12.3082C12.469 12.1379 12.5029 11.7084 12.1331 11.5957C11.9796 11.5489 11.8816 11.5741 11.8229 11.6756C11.7779 11.7533 11.808 11.8945 11.8695 11.8945C11.8903 11.8945 11.9073 11.9207 11.9073 11.9526C11.9073 12.1017 11.3087 12.1693 11.0632 12.0479C10.9769 12.0053 10.9393 11.8945 11.0111 11.8945C11.0648 11.8945 11.1019 11.7817 11.0745 11.7019C11.0371 11.5932 10.9248 11.5555 10.7619 11.5971C10.3944 11.6909 10.4047 12.1122 10.7789 12.291C11.0858 12.4377 11.7584 12.4466 12.0769 12.3082L12.0769 12.3082ZM11.833 11.978C11.8557 11.957 11.8458 11.9248 11.8077 11.8956C11.7244 11.8317 11.7288 11.7366 11.8203 11.6277C11.8889 11.546 11.8975 11.4237 11.9211 10.1899C11.9619 8.06357 12.1239 6.46425 12.3375 6.0806C12.4225 5.92784 12.4106 5.92723 12.1909 6.07311C11.9078 6.26103 11.6923 6.50573 11.5013 6.85602C11.1408 7.51736 11.0155 8.40711 11.0155 10.3064C11.0155 11.3848 11.0231 11.5259 11.086 11.6273C11.1458 11.7236 11.149 11.7592 11.107 11.862C11.0797 11.9286 11.0674 11.9923 11.0795 12.0035C11.16 12.0779 11.7464 12.0582 11.8329 11.9782L11.833 11.978ZM15.1273 9.95041C15.1396 9.93205 15.1125 9.83935 15.067 9.74438C14.9962 9.59633 14.9676 9.57174 14.8667 9.57174C14.5504 9.57174 14.042 9.43386 13.5179 9.20593C13.2152 9.07431 13.1107 9.04407 13.0744 9.07761C12.9818 9.16317 13.1357 9.36629 13.3741 9.47305C13.5855 9.56777 14.1766 9.68415 14.4463 9.68415C14.6027 9.68415 14.6064 9.69102 14.5174 9.81656L14.4519 9.9089L14.6288 9.91333C14.7262 9.91577 14.8605 9.93062 14.9274 9.94635C15.1011 9.98719 15.1027 9.98722 15.1274 9.95041H15.1273Z" fill="#FFBE29" stroke="#2B2B2B" stroke-width="0.171934"/>
<path d="M16.9755 10.9095C16.9755 10.8545 16.81 10.7056 16.6424 10.6096C16.5108 10.5343 16.4891 10.532 16.4887 10.5934C16.4883 10.6867 16.4032 10.9212 16.3698 10.9212C16.351 10.9212 16.3232 10.8754 16.308 10.8194C16.2927 10.7634 16.2289 10.653 16.1662 10.5741L16.052 10.4307L15.9631 10.5636C15.8803 10.6875 15.7368 10.8088 15.6731 10.8088C15.6578 10.8088 15.6549 10.7436 15.6665 10.6638C15.679 10.5772 15.6693 10.5085 15.6423 10.493C15.6175 10.4789 15.5971 10.4838 15.5971 10.504C15.5971 10.5507 15.3978 10.7713 15.3557 10.7713C15.3383 10.7713 15.314 10.7081 15.3016 10.6309L15.2549 10.3593C15.2416 10.2872 15.27 10.3361 15.318 10.468L15.4053 10.7078L15.501 10.5616C15.5537 10.4813 15.5968 10.3934 15.5969 10.3665C15.597 10.3395 15.6148 10.3276 15.6365 10.3399C15.6582 10.3523 15.6883 10.4489 15.7035 10.5546L15.731 10.7468L15.8364 10.6341C15.8943 10.5721 15.9622 10.4892 15.9873 10.4497C16.0319 10.3794 16.0345 10.3794 16.1233 10.453C16.1731 10.4942 16.2497 10.5927 16.2934 10.672C16.3372 10.7512 16.3789 10.8102 16.386 10.8031C16.3932 10.7959 16.4092 10.7142 16.4217 10.6215L16.4464 10.4453C16.4526 10.4223 16.7637 10.6196 16.8788 10.7195C16.9528 10.7837 17.023 10.8273 17.0349 10.8163C17.0468 10.8053 17.0565 10.7106 17.0565 10.6058C17.0565 10.4434 17.0389 10.3999 16.9371 10.3111C16.82 10.209 16.8167 10.2084 16.7735 10.2831C16.7174 10.38 16.6512 10.3814 16.6512 10.2857C16.6512 10.2158 16.43 9.94724 16.3724 9.94724C16.3575 9.94724 16.3109 10.0062 16.2689 10.0783C16.2269 10.1505 16.1817 10.2094 16.1685 10.2093C16.1117 10.2089 15.7999 9.86971 15.8 9.80847C15.8 9.75975 15.821 9.77221 15.8757 9.85355C15.9173 9.91538 16.0002 10.0076 16.0601 10.0586C16.1814 10.1618 16.2254 10.1367 16.2722 9.93783C16.2856 9.88117 16.3087 9.8348 16.3237 9.8348C16.3755 9.8348 16.647 10.1161 16.6852 10.2094L16.7235 10.3031L16.7525 10.2C16.788 10.0741 16.8272 10.0694 16.8839 10.1843C16.9076 10.2323 17.0245 10.3322 17.1438 10.4062L17.3606 10.5407L17.4041 10.4054C17.4281 10.331 17.4597 10.2882 17.4746 10.3104C17.4967 10.3434 17.4403 10.5676 17.3978 10.6159C17.3914 10.6231 17.3211 10.5832 17.2417 10.5271L17.0971 10.4253L17.0966 10.6077C17.0961 10.708 17.085 10.828 17.0715 10.8743C17.0452 10.9649 16.9755 10.9904 16.9755 10.9094V10.9095ZM15.8945 9.45552C15.6368 9.24558 15.5976 9.19756 15.6033 9.09808L15.6094 8.99218L15.6262 9.09447C15.6361 9.15419 15.7047 9.24369 15.7912 9.30957L15.9393 9.42241L16.0304 9.31968C16.0804 9.26317 16.1221 9.19588 16.1228 9.17013C16.1249 9.10299 16.1373 9.10861 16.3118 9.25633C16.4668 9.38755 16.4692 9.3882 16.4923 9.30316C16.5051 9.25575 16.5005 9.1665 16.4821 9.10483C16.4315 8.9353 16.4414 8.90973 16.5181 9.01197C16.5564 9.06292 16.6179 9.13491 16.6548 9.172C16.719 9.23654 16.7229 9.23574 16.7468 9.15327C16.7606 9.1059 16.7721 9.01918 16.7723 8.96056L16.7729 8.85402L16.9127 9.00861C17.0432 9.153 17.0553 9.15834 17.0951 9.08952C17.1186 9.04902 17.1381 8.95155 17.1384 8.87293C17.1388 8.77136 17.1498 8.74574 17.1763 8.78441C17.2205 8.84898 17.1898 9.0248 17.1081 9.17462L17.0496 9.28214L16.9726 9.16528C16.8743 9.01582 16.8415 9.01823 16.7784 9.17951C16.7188 9.33193 16.68 9.34354 16.6219 9.22634C16.5843 9.15049 16.5771 9.15978 16.5504 9.3191L16.5207 9.49617L16.343 9.36156L16.1652 9.22695L16.0853 9.31559C16.0413 9.36434 16.0048 9.42531 16.004 9.45106C16.0024 9.50686 15.9596 9.5086 15.8944 9.45552H15.8945ZM18.1867 8.67356C18.0929 8.59112 18.0283 8.51243 18.0431 8.49875C18.0579 8.48506 18.0746 8.48112 18.0802 8.49004C18.0858 8.49896 18.1624 8.57761 18.2506 8.66485C18.4535 8.86575 18.4118 8.87143 18.1867 8.67356ZM15.1334 8.36566C15.0481 8.2531 15.054 8.17851 15.1578 8.05651C15.2329 7.96836 15.2671 7.95638 15.3982 7.97263C15.4823 7.98305 15.6632 8.05553 15.8002 8.1337C15.9585 8.22396 16.1222 8.28444 16.249 8.29947C16.3588 8.31248 16.4486 8.3174 16.4486 8.31037C16.4486 8.30335 16.403 8.23086 16.3473 8.14928C16.2149 7.95553 16.2194 7.93473 16.3687 8.0508C16.522 8.16996 16.7053 8.20481 17.115 8.19265L17.3151 8.18673L17.199 8.07475C17.0366 7.91814 17.0866 7.90409 17.2659 8.05593C17.4341 8.19836 17.4236 8.20838 17.0696 8.24287C16.9192 8.25753 16.7574 8.2469 16.623 8.21354C16.4218 8.16363 16.414 8.1644 16.4521 8.23019C16.4741 8.2681 16.5096 8.29913 16.5311 8.29913C16.5526 8.29913 16.5703 8.31835 16.5703 8.34184C16.5703 8.41404 16.1358 8.35054 15.9281 8.24797C15.4538 8.01366 15.3941 7.99337 15.2812 8.02807C15.2184 8.04738 15.1555 8.10392 15.1339 8.16058C15.0616 8.34956 15.3363 8.49649 15.4496 8.3294C15.4824 8.28099 15.4748 8.24785 15.417 8.18893C15.338 8.10822 15.3454 8.09671 15.4521 8.13455C15.5279 8.1614 15.538 8.33887 15.4676 8.40399C15.3869 8.47849 15.2029 8.45739 15.1334 8.36566ZM17.0018 7.89893C16.9424 7.84413 16.989 7.83069 17.2549 7.82586C17.5838 7.81988 17.7836 7.76639 18.0194 7.62118C18.2082 7.50483 18.2595 7.52774 18.0802 7.64837C17.9166 7.75842 17.6615 7.843 17.4153 7.86887C17.296 7.8814 17.1601 7.89875 17.1132 7.90742C17.0664 7.91609 17.0162 7.91228 17.0018 7.8989V7.89893Z" fill="#2B2B2B" stroke="#2B2B2B" stroke-width="0.171934"/>
<path d="M14.1318 17.4737L14.2683 17.3968L14.3266 17.4739C14.4044 17.5765 14.6197 17.5753 14.7625 17.4715L14.8716 17.3921L14.9631 17.4715C15.0833 17.5759 15.3078 17.576 15.4512 17.4719C15.5516 17.3989 15.5655 17.3975 15.6319 17.453C15.6715 17.4861 15.7875 17.5237 15.8898 17.5367C16.074 17.56 16.0767 17.5587 16.1845 17.401C16.2748 17.2689 16.2888 17.2154 16.2673 17.0873C16.2513 16.9866 16.2399 16.8853 16.2332 16.7836C16.225 16.6348 16.2259 16.6339 16.4479 16.5584C16.5706 16.5168 16.7125 16.4609 16.7634 16.4343C16.8521 16.3878 17.0966 16.1075 17.0966 16.0522C17.0966 16.0376 17.0011 16.0151 16.8843 16.0024C16.42 15.9515 16.3413 15.7082 16.6432 15.2563C17.1355 14.5194 17.4326 13.8016 17.4346 13.3444C17.4355 13.14 17.4474 13.0714 17.4743 13.1159C17.5843 13.2975 17.3872 14.059 17.0887 14.6059L16.9685 14.8261L17.0832 14.8003C17.1463 14.7862 17.5171 14.6335 17.9073 14.4611C18.9754 13.9891 19.3422 13.8966 20.0334 13.925C20.6124 13.9488 20.859 14.0592 21.2679 14.4776C21.4845 14.6993 21.6931 14.8579 22.0748 15.0909C22.888 15.5876 22.9219 15.6306 22.9606 16.2146C22.9997 16.8064 22.9803 16.8385 22.5215 16.9374C22.1294 17.0219 21.8837 17.2002 21.8177 17.448C21.7825 17.5803 21.8566 17.5841 22.0543 17.4602L22.1992 17.3693L22.2636 17.4602C22.3483 17.5796 22.5283 17.5801 22.6778 17.4613L22.7907 17.3715L22.9061 17.4613C23.0855 17.6007 23.324 17.5669 23.3913 17.3925C23.4042 17.3589 23.4387 17.3697 23.5087 17.429C23.6397 17.5401 23.9756 17.5877 24.0118 17.5004C24.0257 17.4671 23.9994 17.3847 23.9534 17.3175C23.758 17.0315 23.6968 16.8952 23.6943 16.7396C23.6907 16.5232 23.7569 16.4187 24.0093 16.2427C24.3158 16.0288 24.4105 15.753 24.1774 15.753C24.0335 15.753 23.8884 15.6288 23.7959 15.4265C23.6078 15.0154 23.6447 14.5544 23.9269 13.7876C24.2137 13.0087 24.2455 12.865 24.2466 12.3441C24.2476 11.9229 24.2367 11.8501 24.1385 11.6192C24.0784 11.478 23.9566 11.2677 23.8677 11.152L23.7061 10.9415L23.9136 10.7739C24.547 10.2618 24.4175 9.42381 23.6549 9.10092C23.4216 9.00213 23.3633 8.99343 22.9545 8.99609C22.7093 8.9977 22.3353 9.0292 22.1235 9.06606C21.9075 9.10367 21.542 9.13388 21.2912 9.13488C20.8928 9.13644 20.8252 9.12688 20.6717 9.04713C20.5116 8.96398 20.4842 8.92452 20.4528 8.73236C20.4464 8.69286 20.4181 8.65346 20.3899 8.64478C20.3355 8.62805 20.084 8.84095 20.0469 8.93527C20.0286 8.98182 20.0136 8.97858 19.9598 8.91655C19.9241 8.87534 19.8742 8.78065 19.849 8.70615C19.7856 8.51875 19.8635 8.37825 20.0893 8.27299L20.2644 8.19131L20.1611 8.12878C19.948 7.99973 19.5856 8.088 19.4545 8.3009C19.4174 8.36111 19.377 8.4105 19.3646 8.41062C19.3522 8.41075 19.2818 8.35332 19.208 8.28297C18.9328 8.02062 19.0274 7.63245 19.3955 7.51394C19.5918 7.45074 19.7655 7.49894 19.8016 7.62665C19.8568 7.82162 20.0283 7.56534 19.9976 7.3339C19.9771 7.18004 19.9802 7.1747 20.0893 7.1747C20.2411 7.1747 20.5641 7.36903 20.664 7.52044C20.78 7.69629 20.7716 7.97321 20.6439 8.17961L20.5436 8.34165L20.6747 8.31602C20.8671 8.27845 21.0539 8.16192 21.1484 8.02059C21.2484 7.87119 21.2591 7.58025 21.1705 7.42328C21.0846 7.27113 21.0945 7.24697 21.2214 7.29838C21.4374 7.38583 21.5528 7.48226 21.6394 7.64754C21.7174 7.79639 21.7217 7.83338 21.6795 7.9883C21.6534 8.08388 21.5955 8.20964 21.5507 8.26776C21.481 8.35827 21.4786 8.37342 21.5341 8.37342C21.6376 8.37342 21.8536 8.27787 21.9304 8.19818C21.9692 8.15792 22.0257 8.05877 22.056 7.97786L22.1111 7.83075L22.1745 7.94288C22.264 8.10144 22.4382 8.24415 22.6504 8.33295C22.8788 8.42843 22.9738 8.43384 22.8544 8.34449C22.7739 8.28426 22.6256 7.85949 22.6705 7.81795C22.697 7.79352 23.007 8.02624 23.3609 8.33625C23.6957 8.62951 23.9061 8.72558 24.2136 8.72558C24.6065 8.72558 24.8352 8.39193 24.6586 8.07646C24.5557 7.89251 24.3264 7.86698 24.1923 8.0245C24.1306 8.09692 24.1137 8.15456 24.1318 8.23053C24.1539 8.3236 24.1452 8.336 24.0583 8.336C23.9442 8.336 23.7191 8.19348 23.3193 7.86802C22.7098 7.37172 21.9691 6.95105 21.4343 6.7974C21.0911 6.6988 20.3579 6.66032 20.009 6.7226C19.6313 6.79001 19.1847 7.00087 18.9414 7.22657C18.5102 7.62653 18.5034 8.15875 18.9232 8.64341L19.0434 8.78224L18.962 8.90561C18.8436 9.08509 18.8537 9.32668 18.9872 9.5046C19.0459 9.58298 19.1052 9.64707 19.1189 9.64701C19.1326 9.64694 19.1476 9.59658 19.1522 9.53506C19.164 9.37937 19.2325 9.27509 19.35 9.23379C19.4559 9.19658 19.5243 9.21415 20.009 9.40295C20.519 9.60152 21.3576 9.61518 22.2493 9.43942C22.6865 9.35325 23.202 9.35832 23.4288 9.45103C23.8445 9.62095 23.9409 10.063 23.6353 10.3986C23.503 10.5439 23.3754 10.603 22.9471 10.7177C22.6211 10.805 22.5439 10.8108 21.803 10.8036C21.1701 10.7974 20.9426 10.8093 20.6843 10.8619C20.4038 10.9191 20.2312 10.9248 19.4073 10.9046L18.4546 10.8812L18.5603 10.9665C18.6184 11.0135 18.7005 11.0712 18.7427 11.0949C18.8145 11.1351 18.8122 11.1405 18.7053 11.1791C18.6426 11.2018 18.5033 11.2204 18.3957 11.2204H18.2003L18.174 11.3825C18.1595 11.4716 18.1606 11.5757 18.1764 11.6138C18.1998 11.6699 18.1911 11.678 18.1304 11.6565C18.0893 11.6419 17.9748 11.6132 17.876 11.5927C17.7772 11.5723 17.6442 11.5306 17.5804 11.5001C17.4732 11.4489 17.4613 11.4503 17.4218 11.5185C17.3866 11.5793 17.0555 11.8198 17.0069 11.8198C16.9991 11.8198 16.9889 11.7734 16.9844 11.7167C16.9799 11.6601 16.9321 11.5126 16.8783 11.3889C16.8244 11.2653 16.7682 11.1305 16.7533 11.0893C16.7309 11.0271 16.7207 11.0239 16.6937 11.0705C16.6757 11.1015 16.6495 11.1857 16.6355 11.2578C16.6214 11.33 16.5715 11.4471 16.5246 11.5182L16.4393 11.6474L16.385 11.5369C16.3266 11.4183 16.2296 11.2953 16.1946 11.2953C16.1827 11.2953 16.1625 11.3332 16.1497 11.3796C16.123 11.4764 15.8931 11.7448 15.837 11.7448C15.8163 11.7448 15.7994 11.669 15.7994 11.5762C15.7994 11.4835 15.7811 11.4076 15.7588 11.4076C15.7365 11.4076 15.7183 11.4316 15.7183 11.4609C15.7183 11.5322 15.522 11.7448 15.4561 11.7448C15.4274 11.7448 15.3812 11.7701 15.3534 11.8009C15.281 11.8815 15.2218 11.8702 15.2523 11.7816C15.2665 11.7401 15.2572 11.6432 15.2317 11.5662L15.1712 11.3843C15.1615 11.3551 15.0911 11.3629 14.9422 11.4094C14.7017 11.4847 14.621 11.4714 14.7447 11.3768C14.79 11.3422 14.8588 11.2225 14.8976 11.1107C14.9365 10.9989 14.9938 10.8998 15.025 10.8904C15.0688 10.8771 15.0664 10.8935 15.0149 10.9614C14.9781 11.01 14.9479 11.0754 14.9478 11.1069C14.9476 11.1384 14.9199 11.213 14.8862 11.2727C14.8525 11.3324 14.8313 11.3872 14.8391 11.3944C14.8469 11.4017 14.9385 11.3677 15.0425 11.319L15.2318 11.2305L15.2325 11.3097C15.233 11.3532 15.2558 11.4681 15.2832 11.565L15.3331 11.7412L15.4619 11.6834C15.5936 11.6244 15.7182 11.4139 15.7182 11.2508C15.7182 11.1701 15.7656 11.1825 15.785 11.2682C15.7907 11.2934 15.8204 11.3878 15.851 11.478L15.9067 11.6421L15.9949 11.5385C16.0434 11.4815 16.1042 11.3698 16.13 11.2901C16.1749 11.1519 16.2452 11.0925 16.2452 11.1928C16.2452 11.2652 16.4475 11.5246 16.4865 11.5023C16.5054 11.4915 16.543 11.3942 16.57 11.2859C16.6263 11.0609 16.717 10.9078 16.7747 10.9407C16.7964 10.9531 16.8048 10.9771 16.7934 10.9941C16.782 11.0111 16.8286 11.1574 16.897 11.3193L17.0494 11.6814C17.0743 11.7414 17.0969 11.7327 17.2433 11.6065C17.3345 11.528 17.4172 11.4401 17.4271 11.4112C17.4422 11.3675 17.4625 11.3691 17.5477 11.4207C17.6669 11.4928 18.0676 11.6091 18.0985 11.5805C18.1101 11.5698 18.122 11.4671 18.1249 11.3524L18.1302 11.1437L18.2454 11.167C18.3088 11.1798 18.442 11.179 18.5415 11.1652L18.7224 11.1401L18.5612 11.0322C18.4725 10.9729 18.3829 10.8961 18.362 10.8615C18.3397 10.8248 18.2608 10.7936 18.1714 10.7861C17.9299 10.7661 17.5018 10.5319 17.5018 10.4197C17.5018 10.3987 17.5611 10.4345 17.6336 10.4993C17.7943 10.643 18.0177 10.7333 18.2127 10.7333H18.3587L18.2684 10.6161C18.2165 10.5488 18.17 10.4211 18.1591 10.3161C18.1417 10.1487 18.1235 10.122 17.9444 10.0005C17.8367 9.9275 17.7034 9.81809 17.6482 9.75737L17.5476 9.64694L17.4963 9.77805C17.4681 9.85016 17.4336 9.90915 17.4197 9.90915C17.4057 9.90915 17.3515 9.86699 17.2991 9.81549C17.2468 9.76399 17.1934 9.72203 17.1806 9.72227C17.1677 9.72251 17.1213 9.79188 17.0775 9.87643L16.9977 10.0302L16.9361 9.94155C16.9022 9.8928 16.8222 9.80657 16.7582 9.74991C16.6943 9.69325 16.6606 9.64688 16.6835 9.64688C16.7063 9.64688 16.7852 9.7059 16.8589 9.77805L16.9928 9.90921L17.0472 9.81311C17.0796 9.75608 17.0917 9.66848 17.077 9.59768C17.0557 9.49443 17.0587 9.48845 17.0993 9.55323C17.1251 9.59444 17.2034 9.67343 17.2733 9.72878L17.4005 9.82942L17.4882 9.6726C17.5756 9.51655 17.5762 9.51624 17.6159 9.60944C17.669 9.73409 18.0536 10.0416 18.3809 10.2213C18.4314 10.249 18.4101 10.1538 18.317 9.93477C18.2923 9.87677 18.2721 9.77221 18.2721 9.70242C18.2721 9.59887 18.2415 9.55277 18.1057 9.452C17.9098 9.30652 17.8464 9.20306 17.8095 8.96832C17.7945 8.87323 17.7602 8.76748 17.7333 8.73333C17.6933 8.68263 17.6867 8.71101 17.6974 8.8875C17.7046 9.00644 17.6887 9.15434 17.6621 9.21613L17.6138 9.32851L17.5764 9.23486C17.5558 9.18336 17.4649 9.09377 17.3744 9.03579C17.2838 8.97782 17.2203 8.92067 17.2331 8.90876C17.246 8.89684 17.3392 8.94969 17.4402 9.02617C17.594 9.14267 17.6279 9.15529 17.6492 9.10397C17.6743 9.04367 17.6492 8.78135 17.6008 8.59805C17.5767 8.50651 17.5788 8.50699 17.6945 8.61992C17.7799 8.70319 17.8271 8.80252 17.8636 8.97577C17.9101 9.19591 17.9335 9.23257 18.1421 9.41129C18.2674 9.51862 18.3764 9.60039 18.3844 9.59303C18.3924 9.58567 18.4082 9.30801 18.4195 8.97605C18.4413 8.33945 18.4167 8.18798 18.2596 7.9913L18.1788 7.89022L18.3057 7.75665C18.4713 7.58242 18.5473 7.44273 18.5803 7.25219L18.6071 7.09718L18.4639 7.22953C18.3466 7.3379 18.2906 7.36188 18.1548 7.36188C18.0203 7.36188 17.9677 7.33989 17.8771 7.24566C17.7683 7.13258 17.5756 7.02381 17.3903 6.97084C17.3219 6.95129 17.2991 6.95981 17.2991 7.00499C17.2991 7.0381 17.2613 7.13368 17.2151 7.2174L17.131 7.36961L16.955 7.19981C16.847 7.09565 16.7188 7.01458 16.6235 6.99014C16.3799 6.92765 16.3667 6.93385 16.3667 7.11092C16.3667 7.37951 16.2492 7.42954 16.0376 7.25103C15.8764 7.11495 15.7426 7.08535 15.4368 7.11813L15.2007 7.14345L15.2432 7.24746C15.2787 7.33436 15.2707 7.37092 15.1946 7.46961C15.0713 7.62967 14.9109 7.69901 14.6641 7.69901C14.5504 7.69901 14.4081 7.72198 14.3479 7.75002C14.2877 7.77806 14.1381 7.81041 14.0154 7.82186C13.8928 7.83332 13.7621 7.85375 13.725 7.86728C13.6669 7.88845 13.6605 7.87101 13.6792 7.74211C13.7079 7.54485 13.5666 7.39933 13.3465 7.39933C13.061 7.39933 12.9293 7.64855 13.0411 7.97731C13.0653 8.05026 13.0862 8.12425 13.1037 8.19904C13.117 8.25991 13.2457 8.42147 13.4032 8.57529C13.5551 8.72356 13.6986 8.87781 13.7222 8.9181C13.7458 8.95839 13.8236 9.02306 13.8953 9.06179L14.0255 9.13223L14.0083 8.99624C13.9895 8.84678 14.0228 8.82335 14.1043 8.92879C14.1335 8.96649 14.2075 9.02742 14.2688 9.0642C14.3654 9.12215 14.3803 9.12331 14.3803 9.073C14.3803 9.04108 14.4 8.9675 14.424 8.90949L14.4678 8.80405L14.5437 8.94752C14.5855 9.02642 14.7213 9.20578 14.8455 9.34607C15.0865 9.61829 15.2333 9.92249 15.1575 9.9925C15.1268 10.0209 15.0437 10.0187 14.8715 9.98493C14.7379 9.95875 14.5728 9.94491 14.5045 9.95417C14.365 9.97311 14.354 9.95551 14.4398 9.85068C14.5303 9.74002 14.5159 9.72178 14.338 9.72178C14.1321 9.72178 13.6211 9.6255 13.4249 9.54975C13.2341 9.47611 13.1901 9.49443 13.1339 9.67098L13.0311 9.99092L12.9742 10.1664L13.1806 10.147C13.2942 10.1363 13.4402 10.1121 13.5051 10.0931C13.57 10.0741 13.629 10.064 13.6362 10.0707C13.6434 10.0773 13.6145 10.1459 13.5719 10.223L13.4946 10.3633L13.6232 10.3377C13.694 10.3236 13.8005 10.2892 13.8598 10.2611C13.9631 10.2124 13.9714 10.2159 14.0529 10.3435C14.1531 10.5005 14.2333 10.494 14.2511 10.3276C14.2694 10.1556 14.3275 10.181 14.4366 10.409C14.5415 10.6282 14.6507 10.7056 14.6717 10.5757C14.6786 10.5325 14.7352 10.4623 14.7973 10.4196C14.9229 10.3332 15.0176 10.3591 15.0719 10.4947C15.1281 10.6351 15.0028 10.7798 14.6382 10.9954C13.9079 11.4273 13.4834 12.018 13.3623 12.7709C13.253 13.45 13.5943 14.1518 14.2792 14.6558C14.607 14.897 15.1276 15.1516 15.0945 15.0545C14.954 14.642 14.9586 13.8548 15.1023 13.7221C15.1239 13.7021 15.1165 13.7842 15.0858 13.9046C14.9717 14.3527 15.0213 14.7098 15.3138 15.5468C15.5784 16.3037 15.5418 16.6273 15.1673 16.8411C15.0471 16.9098 14.9696 16.9211 14.6463 16.9173C14.2955 16.9131 14.2572 16.92 14.1446 17.0076C14.0354 17.0925 13.8938 17.3712 13.8938 17.5013C13.8938 17.5718 13.974 17.5625 14.1316 17.4737L14.1318 17.4737ZM19.8267 17.4584L19.9739 17.3662L20.0737 17.4584C20.2046 17.5793 20.3579 17.5767 20.4836 17.4512C20.5386 17.3965 20.5878 17.3585 20.5932 17.3669C20.6116 17.3969 20.6297 17.4269 20.6476 17.4571C20.6787 17.5093 20.7426 17.5355 20.858 17.5434C20.9971 17.553 21.0344 17.5399 21.0897 17.462L21.1555 17.3691L21.3004 17.4599C21.697 17.7086 21.9084 17.4477 21.7311 16.9281C21.641 16.6639 21.6906 16.5154 21.9811 16.1791C22.1036 16.0373 22.2039 15.8859 22.204 15.8428C22.204 15.7739 22.1813 15.7647 22.0183 15.7678C21.8623 15.7709 21.8167 15.7545 21.7345 15.6663C21.601 15.5229 21.6089 15.3586 21.7582 15.1763L21.8775 15.0306L21.6659 14.8905C21.5495 14.8134 21.3396 14.6311 21.1994 14.4853C20.8847 14.1579 20.5752 14.0026 20.1671 13.9674L19.8935 13.9438L19.8939 14.1459C19.8944 14.4061 20.0196 14.6563 20.3611 15.0802C20.7495 15.5622 20.7766 15.6368 20.7923 16.2668L20.8056 16.7996L20.6932 16.9036C20.5917 16.9976 20.5459 17.0096 20.2182 17.028C19.9063 17.0456 19.8407 17.0613 19.7492 17.1404C19.6276 17.2455 19.5913 17.3027 19.5537 17.4478C19.5318 17.5324 19.5407 17.5508 19.6033 17.5508C19.6452 17.5508 19.7457 17.5093 19.8266 17.4585L19.8267 17.4584ZM11.5426 15.9172C11.5426 15.8498 11.5735 15.8318 11.7252 15.8108L11.9077 15.7855L11.786 15.6909C11.6414 15.5784 11.628 15.4905 11.7555 15.4903C11.8824 15.4903 12.0975 15.3617 12.1302 15.2665C12.1454 15.2223 12.1358 15.1632 12.1086 15.1328C12.0374 15.0535 11.9035 15.0655 11.8787 15.1533C11.852 15.2477 11.8072 15.248 11.7058 15.1543C11.5533 15.0133 11.5498 14.7215 11.6987 14.5515C11.7689 14.4715 11.7683 14.4662 11.6788 14.3835C11.5826 14.2946 11.5138 14.1186 11.5591 14.0768C11.5735 14.0635 11.6495 14.0741 11.728 14.1003C11.8397 14.1376 11.8837 14.1382 11.9297 14.1029C12.069 13.9961 11.9181 13.8587 11.6947 13.889C11.6048 13.9012 11.5677 13.889 11.5547 13.8435C11.545 13.809 11.4663 13.764 11.3777 13.7421C11.2194 13.7031 11.2183 13.7035 11.2183 13.81C11.2183 13.9266 11.1501 13.9486 11.0204 13.8738C10.9151 13.813 10.8129 13.8602 10.8129 13.9696C10.8129 14.0717 10.9181 14.1221 11.1068 14.1103C11.2515 14.1012 11.2569 14.2061 11.1194 14.3571L11.0206 14.4656L11.0989 14.5753C11.2148 14.7379 11.2051 15.0078 11.0784 15.1419L10.9791 15.247L10.914 15.1627C10.8234 15.0456 10.6996 15.0534 10.6656 15.1784C10.6434 15.2603 10.6618 15.2977 10.7668 15.3845C10.8374 15.4428 10.9405 15.4904 10.9959 15.4904C11.133 15.4904 11.1277 15.5956 10.9852 15.7019L10.8737 15.785L11.046 15.8111C11.1407 15.8255 11.2183 15.8524 11.2183 15.8711C11.2183 15.9425 11.2629 16.1593 11.376 16.1648C11.4771 16.1696 11.5402 16.0197 11.5426 15.9173L11.5426 15.9172ZM13.7229 15.1327C13.8795 15.0725 14.2182 14.7926 14.2182 14.7235C14.2182 14.7017 14.1247 14.6014 14.0104 14.5005C13.77 14.2882 13.5083 13.9306 13.4406 13.7216C13.4052 13.6126 13.2344 13.426 12.7533 12.9707L12.1132 12.365L11.9287 12.4106C11.8273 12.4356 11.7034 12.4568 11.6536 12.4575C11.5677 12.4588 11.5693 12.4636 11.6835 12.5498L11.804 12.6408L11.9729 12.5494C12.1366 12.4607 12.1425 12.4601 12.1627 12.5315C12.1745 12.5733 12.149 12.6457 12.1037 12.6988C12.0598 12.7504 12.0348 12.8089 12.0481 12.8288C12.0615 12.8488 12.0193 12.8904 11.9544 12.9214C11.8342 12.9788 11.7508 13.1679 11.8457 13.1679C11.931 13.1679 12.1192 12.9414 12.0975 12.8647C12.0864 12.8255 12.0918 12.7851 12.1094 12.7751C12.1827 12.7332 12.1782 12.9111 12.1037 12.9986C12.0598 13.0501 12.0348 13.1086 12.0481 13.1285C12.0614 13.1485 12.0193 13.1901 11.9544 13.2211C11.835 13.2782 11.7507 13.4676 11.8448 13.4676C11.9369 13.4676 12.122 13.2512 12.0991 13.1702C12.0871 13.1278 12.0917 13.0848 12.1094 13.0748C12.1588 13.0466 12.1854 13.187 12.1437 13.2558C12.1214 13.2926 12.1216 13.343 12.1443 13.3828C12.1853 13.4551 12.1437 13.5939 12.0681 13.6371C12.0357 13.6556 12.0577 13.6919 12.1362 13.7497C12.2499 13.8335 12.2521 13.8423 12.2521 14.2119C12.2521 14.5208 12.2648 14.6005 12.323 14.6542C12.3883 14.7146 12.394 14.7148 12.394 14.6569C12.394 14.5937 12.5077 14.5165 12.6007 14.5165C12.6281 14.5165 12.7995 14.6582 12.9816 14.8315C13.1647 15.0058 13.3564 15.1541 13.4107 15.1635L13.5405 15.1857C13.5579 15.1885 13.64 15.1647 13.7229 15.1328L13.7229 15.1327ZM11.7657 13.6385C11.7657 13.5389 11.5552 13.4326 11.3034 13.405C11.1001 13.3828 11.0968 13.384 11.0968 13.4831C11.0968 13.5651 11.1287 13.5974 11.269 13.657C11.4945 13.7528 11.7656 13.7427 11.7656 13.6385H11.7657ZM11.9964 13.6293C12.0991 13.5384 12.1477 13.4303 12.086 13.4303C12.0149 13.4303 11.8263 13.5954 11.8263 13.6576C11.8263 13.7547 11.8614 13.7488 11.9964 13.6293ZM11.7776 13.3348C11.7863 13.2787 11.7506 13.2412 11.6439 13.1941C11.4136 13.0926 11.1383 13.0456 11.072 13.0965C10.9499 13.1901 11.0312 13.3159 11.2286 13.3385C11.3081 13.3476 11.4158 13.3712 11.468 13.391C11.6198 13.4485 11.764 13.4223 11.7776 13.3348V13.3348ZM11.7776 13.034C11.79 12.9538 11.7374 12.9251 11.3087 12.7779C10.9886 12.668 10.8468 12.7198 10.9491 12.9094C10.9848 12.9755 11.0446 13.0056 11.1787 13.0253C11.2785 13.0398 11.4149 13.0683 11.4818 13.0886C11.6605 13.1427 11.7637 13.1237 11.7776 13.034V13.034ZM11.9923 12.752C12.057 12.688 12.1099 12.6125 12.1099 12.5842C12.1099 12.4924 11.8545 12.6548 11.8219 12.7674C11.7828 12.9023 11.8461 12.8966 11.9923 12.752ZM11.7776 12.7331C11.7917 12.6418 11.6361 12.5593 11.3301 12.496C11.1056 12.4495 11.0066 12.4759 11.0234 12.5777C11.0325 12.6332 11.1073 12.6738 11.3194 12.7384C11.6589 12.8418 11.761 12.8406 11.7776 12.7331V12.7331ZM12.0769 12.3082C12.469 12.1379 12.5029 11.7084 12.1331 11.5957C11.9796 11.5489 11.8816 11.5741 11.8229 11.6756C11.7779 11.7533 11.808 11.8945 11.8695 11.8945C11.8903 11.8945 11.9073 11.9207 11.9073 11.9526C11.9073 12.1017 11.3087 12.1693 11.0632 12.0479C10.9769 12.0053 10.9393 11.8945 11.0111 11.8945C11.0648 11.8945 11.1019 11.7817 11.0745 11.7019C11.0371 11.5932 10.9248 11.5555 10.7619 11.5971C10.3944 11.6909 10.4047 12.1122 10.7789 12.291C11.0858 12.4377 11.7584 12.4466 12.0769 12.3082L12.0769 12.3082ZM11.833 11.978C11.8557 11.957 11.8458 11.9248 11.8077 11.8956C11.7244 11.8317 11.7288 11.7366 11.8203 11.6277C11.8889 11.546 11.8975 11.4237 11.9211 10.1899C11.9619 8.06357 12.1239 6.46425 12.3375 6.0806C12.4225 5.92784 12.4106 5.92723 12.1909 6.07311C11.9078 6.26103 11.6923 6.50573 11.5013 6.85602C11.1408 7.51736 11.0155 8.40711 11.0155 10.3064C11.0155 11.3848 11.0231 11.5259 11.086 11.6273C11.1458 11.7236 11.149 11.7592 11.107 11.862C11.0797 11.9286 11.0674 11.9923 11.0795 12.0035C11.16 12.0779 11.7464 12.0582 11.8329 11.9782L11.833 11.978ZM15.1273 9.95041C15.1396 9.93205 15.1125 9.83935 15.067 9.74438C14.9962 9.59633 14.9676 9.57174 14.8667 9.57174C14.5504 9.57174 14.042 9.43386 13.5179 9.20593C13.2152 9.07431 13.1107 9.04407 13.0744 9.07761C12.9818 9.16317 13.1357 9.36629 13.3741 9.47305C13.5855 9.56777 14.1766 9.68415 14.4463 9.68415C14.6027 9.68415 14.6064 9.69102 14.5174 9.81656L14.4519 9.9089L14.6288 9.91333C14.7262 9.91577 14.8605 9.93062 14.9274 9.94635C15.1011 9.98719 15.1027 9.98722 15.1274 9.95041H15.1273Z" fill="#FFBE29"/>
<path d="M16.9755 10.9095C16.9755 10.8545 16.81 10.7056 16.6424 10.6096C16.5108 10.5343 16.4891 10.532 16.4887 10.5934C16.4883 10.6867 16.4032 10.9212 16.3698 10.9212C16.351 10.9212 16.3232 10.8754 16.308 10.8194C16.2927 10.7634 16.2289 10.653 16.1662 10.5741L16.052 10.4307L15.9631 10.5636C15.8803 10.6875 15.7368 10.8088 15.6731 10.8088C15.6578 10.8088 15.6549 10.7436 15.6665 10.6638C15.679 10.5772 15.6693 10.5085 15.6423 10.493C15.6175 10.4789 15.5971 10.4838 15.5971 10.504C15.5971 10.5507 15.3978 10.7713 15.3557 10.7713C15.3383 10.7713 15.314 10.7081 15.3016 10.6309L15.2549 10.3593C15.2416 10.2872 15.27 10.3361 15.318 10.468L15.4053 10.7078L15.501 10.5616C15.5537 10.4813 15.5968 10.3934 15.5969 10.3665C15.597 10.3395 15.6148 10.3276 15.6365 10.3399C15.6582 10.3523 15.6883 10.4489 15.7035 10.5546L15.731 10.7468L15.8364 10.6341C15.8943 10.5721 15.9622 10.4892 15.9873 10.4497C16.0319 10.3794 16.0345 10.3794 16.1233 10.453C16.1731 10.4942 16.2497 10.5927 16.2934 10.672C16.3372 10.7512 16.3789 10.8102 16.386 10.8031C16.3932 10.7959 16.4092 10.7142 16.4217 10.6215L16.4464 10.4453C16.4526 10.4223 16.7637 10.6196 16.8788 10.7195C16.9528 10.7837 17.023 10.8273 17.0349 10.8163C17.0468 10.8053 17.0565 10.7106 17.0565 10.6058C17.0565 10.4434 17.0389 10.3999 16.9371 10.3111C16.82 10.209 16.8167 10.2084 16.7735 10.2831C16.7174 10.38 16.6512 10.3814 16.6512 10.2857C16.6512 10.2158 16.43 9.94724 16.3724 9.94724C16.3575 9.94724 16.3109 10.0062 16.2689 10.0783C16.2269 10.1505 16.1817 10.2094 16.1685 10.2093C16.1117 10.2089 15.7999 9.86971 15.8 9.80847C15.8 9.75975 15.821 9.77221 15.8757 9.85355C15.9173 9.91538 16.0002 10.0076 16.0601 10.0586C16.1814 10.1618 16.2254 10.1367 16.2722 9.93783C16.2856 9.88117 16.3087 9.8348 16.3237 9.8348C16.3755 9.8348 16.647 10.1161 16.6852 10.2094L16.7235 10.3031L16.7525 10.2C16.788 10.0741 16.8272 10.0694 16.8839 10.1843C16.9076 10.2323 17.0245 10.3322 17.1438 10.4062L17.3606 10.5407L17.4041 10.4054C17.4281 10.331 17.4597 10.2882 17.4746 10.3104C17.4967 10.3434 17.4403 10.5676 17.3978 10.6159C17.3914 10.6231 17.3211 10.5832 17.2417 10.5271L17.0971 10.4253L17.0966 10.6077C17.0961 10.708 17.085 10.828 17.0715 10.8743C17.0452 10.9649 16.9755 10.9904 16.9755 10.9094V10.9095ZM15.8945 9.45552C15.6368 9.24558 15.5976 9.19756 15.6033 9.09808L15.6094 8.99218L15.6262 9.09447C15.6361 9.15419 15.7047 9.24369 15.7912 9.30957L15.9393 9.42241L16.0304 9.31968C16.0804 9.26317 16.1221 9.19588 16.1228 9.17013C16.1249 9.10299 16.1373 9.10861 16.3118 9.25633C16.4668 9.38755 16.4692 9.3882 16.4923 9.30316C16.5051 9.25575 16.5005 9.1665 16.4821 9.10483C16.4315 8.9353 16.4414 8.90973 16.5181 9.01197C16.5564 9.06292 16.6179 9.13491 16.6548 9.172C16.719 9.23654 16.7229 9.23574 16.7468 9.15327C16.7606 9.1059 16.7721 9.01918 16.7723 8.96056L16.7729 8.85402L16.9127 9.00861C17.0432 9.153 17.0553 9.15834 17.0951 9.08952C17.1186 9.04902 17.1381 8.95155 17.1384 8.87293C17.1388 8.77136 17.1498 8.74574 17.1763 8.78441C17.2205 8.84898 17.1898 9.0248 17.1081 9.17462L17.0496 9.28214L16.9726 9.16528C16.8743 9.01582 16.8415 9.01823 16.7784 9.17951C16.7188 9.33193 16.68 9.34354 16.6219 9.22634C16.5843 9.15049 16.5771 9.15978 16.5504 9.3191L16.5207 9.49617L16.343 9.36156L16.1652 9.22695L16.0853 9.31559C16.0413 9.36434 16.0048 9.42531 16.004 9.45106C16.0024 9.50686 15.9596 9.5086 15.8944 9.45552H15.8945ZM18.1867 8.67356C18.0929 8.59112 18.0283 8.51243 18.0431 8.49875C18.0579 8.48506 18.0746 8.48112 18.0802 8.49004C18.0858 8.49896 18.1624 8.57761 18.2506 8.66485C18.4535 8.86575 18.4118 8.87143 18.1867 8.67356ZM15.1334 8.36566C15.0481 8.2531 15.054 8.17851 15.1578 8.05651C15.2329 7.96836 15.2671 7.95638 15.3982 7.97263C15.4823 7.98305 15.6632 8.05553 15.8002 8.1337C15.9585 8.22396 16.1222 8.28444 16.249 8.29947C16.3588 8.31248 16.4486 8.3174 16.4486 8.31037C16.4486 8.30335 16.403 8.23086 16.3473 8.14928C16.2149 7.95553 16.2194 7.93473 16.3687 8.0508C16.522 8.16996 16.7053 8.20481 17.115 8.19265L17.3151 8.18673L17.199 8.07475C17.0366 7.91814 17.0866 7.90409 17.2659 8.05593C17.4341 8.19836 17.4236 8.20838 17.0696 8.24287C16.9192 8.25753 16.7574 8.2469 16.623 8.21354C16.4218 8.16363 16.414 8.1644 16.4521 8.23019C16.4741 8.2681 16.5096 8.29913 16.5311 8.29913C16.5526 8.29913 16.5703 8.31835 16.5703 8.34184C16.5703 8.41404 16.1358 8.35054 15.9281 8.24797C15.4538 8.01366 15.3941 7.99337 15.2812 8.02807C15.2184 8.04738 15.1555 8.10392 15.1339 8.16058C15.0616 8.34956 15.3363 8.49649 15.4496 8.3294C15.4824 8.28099 15.4748 8.24785 15.417 8.18893C15.338 8.10822 15.3454 8.09671 15.4521 8.13455C15.5279 8.1614 15.538 8.33887 15.4676 8.40399C15.3869 8.47849 15.2029 8.45739 15.1334 8.36566ZM17.0018 7.89893C16.9424 7.84413 16.989 7.83069 17.2549 7.82586C17.5838 7.81988 17.7836 7.76639 18.0194 7.62118C18.2082 7.50483 18.2595 7.52774 18.0802 7.64837C17.9166 7.75842 17.6615 7.843 17.4153 7.86887C17.296 7.8814 17.1601 7.89875 17.1132 7.90742C17.0664 7.91609 17.0162 7.91228 17.0018 7.8989V7.89893Z" fill="#2B2B2B"/>
<path d="M25.9722 7.52612C25.9722 7.52612 26.1707 7.11167 26.3902 6.94283C26.7152 6.69263 27.3817 6.71072 27.6646 6.41882C28.0036 6.07463 27.6383 5.61989 27.6414 5.58041L27.66 5.34026C27.66 5.34026 27.4314 5.33744 27.3352 5.32205C27.1905 5.29892 27.134 5.17823 26.8646 5.19614C26.1873 5.2412 26.2145 5.86676 26.1762 6.40136C26.1422 6.60491 26.0635 6.87032 26.0188 7.07381C25.9804 7.24832 25.9722 7.52609 25.9722 7.52609L25.9722 7.52612ZM9.0673 7.52648C9.0673 7.52648 8.8687 7.11197 8.64928 6.9431C8.3242 6.69287 7.65763 6.71096 7.3747 6.41903C7.0357 6.07478 7.40101 5.61998 7.39795 5.5805L7.37935 5.34029C7.37935 5.34029 7.60795 5.33747 7.70419 5.32208C7.84891 5.29895 7.90537 5.17823 8.1748 5.19617C8.85223 5.24126 8.82493 5.86691 8.86324 6.40157C8.89726 6.60515 8.97598 6.87062 9.02074 7.07414C9.05911 7.24868 9.0673 7.52651 9.0673 7.52651V7.52648Z" fill="#FFBE29" stroke="#2B2B2B" stroke-width="0.06288"/>
</g>
<defs>
<clipPath id="clip0_1587_47337">
<rect width="36" height="24" fill="white" transform="translate(-6)"/>
</clipPath>
</defs>
</svg>
