<svg width="291" height="98" viewBox="0 0 291 98" fill="none" xmlns="http://www.w3.org/2000/svg">
<g clip-path="url(#clip0_2014_11)">
<path d="M269.87 89.5701L265.38 76.7801L260.82 89.5701H269.87ZM275.31 97.2901H272.56L270.62 91.8101H260.04L258.1 97.2901H255.35L264.26 73.0801H266.44L275.32 97.2901H275.31ZM256.37 73.0801L249.23 87.2901V97.2901H246.65V87.2901L239.44 73.0801H242.23L247.94 84.6801L253.59 73.0801H256.38H256.37ZM235.01 89.5701L230.52 76.7801L225.96 89.5701H235.01ZM240.45 97.2901H237.7L235.76 91.8101H225.18L223.24 97.2901H220.49L229.4 73.0801H231.58L240.46 97.2901H240.45ZM219.6 97.2901H216.54L209.16 84.4001L204.06 90.5201V97.2901H201.48V73.0801H204.06V86.9901L215.35 73.0801H218.51L210.89 82.4301L219.6 97.2901ZM196.07 90.6201C196.07 92.7301 195.31 94.4001 193.79 95.6401C192.27 96.8801 190.24 97.4901 187.7 97.4901C185.89 97.4901 184.33 97.2401 183.04 96.7401C181.75 96.2401 180.55 95.4201 179.44 94.2901L181.17 92.5601C182.14 93.5301 183.14 94.2101 184.15 94.6001C185.16 94.9901 186.37 95.1801 187.77 95.1801C189.56 95.1801 190.97 94.7901 191.99 94.0101C193.01 93.2301 193.52 92.1201 193.52 90.6901C193.52 89.3701 193.12 88.3701 192.33 87.6601C191.72 87.0901 190.66 86.7001 189.17 86.4701L186.35 86.0601C184.45 85.7701 182.97 85.1501 181.93 84.2201C180.68 83.1101 180.06 81.5901 180.06 79.6601C180.06 77.6001 180.76 75.9501 182.15 74.7101C183.54 73.4701 185.43 72.8601 187.81 72.8601C189.33 72.8601 190.65 73.0701 191.77 73.4901C192.89 73.9101 193.97 74.5801 195.02 75.5101L193.35 77.1801C191.88 75.7701 189.99 75.0701 187.7 75.0701C186.09 75.0701 184.83 75.4801 183.93 76.2901C183.03 77.1001 182.57 78.2101 182.57 79.5901C182.57 80.8401 182.93 81.7801 183.66 82.4101C184.36 83.0201 185.42 83.4401 186.82 83.6701L189.64 84.1101C190.77 84.2901 191.65 84.5001 192.28 84.7401C192.9 84.9801 193.49 85.3501 194.03 85.8401C195.39 87.0201 196.07 88.6101 196.07 90.6001V90.6201ZM176.96 75.3901H169.95V97.2901H167.37V75.3901H160.36V73.0801H176.95V75.3901H176.96ZM155.54 89.5701L151.05 76.7801L146.49 89.5701H155.54ZM160.98 97.2901H158.23L156.29 91.8101H145.71L143.77 97.2901H141.02L149.93 73.0801H152.11L160.99 97.2901H160.98ZM142.04 73.0801L134.08 97.2901H131.97L124.01 73.0801H126.73L133.02 92.6701L139.31 73.0801H142.03H142.04ZM119.6 89.5701L115.11 76.7801L110.55 89.5701H119.6ZM125.04 97.2901H122.29L120.35 91.8101H109.77L107.83 97.2901H105.08L113.99 73.0801H116.17L125.05 97.2901H125.04ZM104.19 97.2901H101.13L93.75 84.4001L88.65 90.5201V97.2901H86.07V73.0801H88.65V86.9901L99.94 73.0801H103.1L95.48 82.4301L104.19 97.2901ZM68.25 89.5701L63.76 76.7801L59.2 89.5701H68.25ZM73.69 97.2901H70.94L69 91.8101H58.42L56.48 97.2901H53.73L62.64 73.0801H64.82L73.7 97.2901H73.69ZM52.3 97.2901H37.34V73.0801H39.92V94.9801H52.3V97.2901ZM30.33 97.2901H27.75V73.0801H30.33V97.2901ZM20.74 97.2901H18.16V78.8901L11.53 93.4801H9.32L2.59 78.8901V97.2901H0V73.0801H2.58L10.47 90.2501L18.16 73.0801H20.74V97.2901Z" fill="black"/>
<path d="M287.97 63.35C286.95 62.33 285.53 61.69 283.97 61.69C282.41 61.69 280.99 62.32 279.97 63.35C278.95 64.37 278.31 65.79 278.31 67.35C278.31 68.91 278.94 70.33 279.97 71.35C280.99 72.37 282.41 73.01 283.97 73.01C285.53 73.01 286.95 72.38 287.97 71.35C288.99 70.33 289.63 68.91 289.63 67.35C289.63 65.79 289 64.37 287.97 63.35ZM285.53 67C285.79 66.77 285.92 66.44 285.92 66.02C285.92 65.6 285.79 65.26 285.52 65.03C285.25 64.8 284.9 64.68 284.47 64.68H282.53V67.34H284.47C284.91 67.34 285.26 67.23 285.53 67ZM286.84 71.25H285.93L284.28 68.03H282.54V71.25H281.76V63.99H284.54C285.18 63.99 285.7 64.17 286.1 64.54C286.5 64.9 286.7 65.4 286.7 66.01C286.7 66.53 286.56 66.96 286.27 67.3C285.98 67.64 285.6 67.86 285.12 67.96L286.84 71.25ZM283.97 61.22C285.66 61.22 287.2 61.91 288.31 63.02C289.42 64.13 290.11 65.67 290.11 67.36C290.11 69.05 289.42 70.59 288.31 71.7C287.2 72.81 285.66 73.5 283.97 73.5C282.28 73.5 280.74 72.81 279.63 71.7C278.52 70.59 277.83 69.05 277.83 67.36C277.83 65.67 278.52 64.13 279.63 63.02C280.74 61.91 282.28 61.22 283.97 61.22Z" fill="black"/>
<path fill-rule="evenodd" clip-rule="evenodd" d="M152.73 18.3L175.11 0H180.71L156.09 20.15L180.71 48.21H178.07L154.53 21.41L152.74 22.88V18.3H152.73ZM152.75 14.51L170.48 0L167.53 0.02L152.81 11.91L152.76 14.51H152.75ZM152.73 25.31L172.75 48.21H168.19L152.73 30.93V25.31ZM146.71 48.19H143.17V6.04L140.51 9.83V48.19H136.97V14.88V3.62L118.8 28.74L120.82 31.61L120.81 37.9L104.85 15.07V8.94L117.6 27.04L119.64 24.2L104.85 3.59V0.09H104.94L120.85 22.5L136.96 0.03H140.5V9.83L143.16 6.04V0.03H146.7V48.19H146.71Z" fill="black"/>
<path fill-rule="evenodd" clip-rule="evenodd" d="M143.17 0.0200195L120.82 31.61L120.8 37.89L143.17 6.04002V0.0200195Z" fill="#EE3624"/>
<path d="M102.93 39.9399H96.6799V46.1899H102.93V39.9399ZM95.6399 37.8799H104.99V48.2599H94.6099V37.8799H95.6399Z" fill="black"/>
</g>
<defs>
<clipPath id="clip0_2014_11">
<rect width="290.11" height="97.5" fill="white"/>
</clipPath>
</defs>
</svg>
