<svg width="145" height="20" viewBox="0 0 145 20" fill="none" xmlns="http://www.w3.org/2000/svg">
<rect width="144" height="20" transform="translate(0.25)" fill="white"/>
<mask id="mask0_1243_35466" style="mask-type:luminance" maskUnits="userSpaceOnUse" x="0" y="0" width="145" height="20">
<path d="M144.174 0H0.825195V20H144.174V0Z" fill="white"/>
</mask>
<g mask="url(#mask0_1243_35466)">
<path d="M12.6977 0.425781V19.683H9.49123V3.19273H4.03782V19.683H0.825195V0.425781H12.6977Z" fill="#B5B5B5"/>
<path d="M16.7464 18.9176C15.7833 18.0342 15.0846 16.9005 14.7284 15.6431C14.2066 13.8822 13.9643 12.0504 14.0104 10.2144C13.9659 8.33175 14.208 6.45323 14.7284 4.64338C15.0819 3.34916 15.7792 2.17481 16.7464 1.24506C17.5941 0.519704 18.6731 0.121094 19.7888 0.121094C20.9045 0.121094 21.9835 0.519704 22.8312 1.24506C23.7972 2.16375 24.4912 3.33107 24.8368 4.61862C25.3538 6.42919 25.5958 8.30719 25.5548 10.1897C25.6014 12.0358 25.3591 13.8779 24.8368 15.6492C24.4904 16.9063 23.795 18.0395 22.8312 18.9176C21.9695 19.6178 20.893 20 19.7826 20C18.6723 20 17.5957 19.6178 16.734 18.9176H16.7464ZM17.5387 14.0522C17.665 14.8774 17.9738 15.6641 18.4425 16.3549C18.5897 16.579 18.7885 16.7645 19.0223 16.8959C19.256 17.0273 19.5177 17.1008 19.7857 17.1101C20.578 17.1101 21.2032 16.5345 21.6427 15.3707C22.1857 13.7081 22.4288 11.9622 22.3608 10.2144C22.3801 8.87482 22.2766 7.5363 22.0512 6.21566C21.9144 5.35667 21.598 4.53622 21.1227 3.80773C20.9809 3.57205 20.7827 3.3752 20.5462 3.23478C20.3096 3.09436 20.0419 3.01473 19.7671 3.00303C19.4972 3.01812 19.2352 3.09942 19.0042 3.23976C18.7732 3.38011 18.5803 3.57517 18.4425 3.80773C17.9735 4.5438 17.6655 5.37069 17.5387 6.23424C17.3032 7.55161 17.1954 8.88868 17.2169 10.2268C17.196 11.5095 17.3038 12.7911 17.5387 14.0522Z" fill="#B5B5B5"/>
<path d="M34.3621 0.425781V7.81048H32.6661C32.0475 7.83644 31.4312 7.71996 30.8648 7.47003C30.417 7.2345 30.0744 6.83886 29.9053 6.36202C29.6774 5.70178 29.5745 5.00487 29.602 4.30693V0.425781H26.3955V4.30693C26.2991 5.9864 26.7989 7.64598 27.8069 8.99279C28.7478 10.1276 30.1529 10.695 32.0223 10.695H34.3621V19.683H37.5748V0.425781H34.3621Z" fill="#B5B5B5"/>
<path d="M49.6577 3.19273H45.8818V19.683H42.6877V3.19273H38.918V0.425781H49.6577V3.19273Z" fill="#B5B5B5"/>
<path d="M54.2219 0.422117H56.7908C57.8464 0.380567 58.8913 0.65191 59.7933 1.20206C60.5871 1.73586 61.2033 2.49457 61.5635 3.38095C62.0073 4.47913 62.2867 5.63672 62.3927 6.81641L63.891 19.6793H60.6846L59.6381 10.6914H54.2219V19.6793H51.0156V0.422117H54.2219ZM54.2219 7.92443H59.3228L59.174 6.81641C59.1177 6.10564 58.9721 5.40483 58.7409 4.73038C58.5771 4.27725 58.2597 3.89603 57.8432 3.65332C57.3031 3.39702 56.7073 3.27998 56.1099 3.31287H54.2219V7.92443Z" fill="#B5B5B5"/>
<path d="M77.185 0.421556C78.2551 0.395905 79.3107 0.672675 80.2308 1.22007C81.1328 1.79416 81.8351 2.63301 82.2425 3.6218C82.7564 4.87966 83.001 6.23134 82.9603 7.58961C82.9903 8.87866 82.7607 10.1606 82.2859 11.3593C81.9315 12.2734 81.3646 13.0902 80.6329 13.7425C80.1259 14.2171 79.4691 14.4996 78.7759 14.541C78.4189 14.564 78.0607 14.5076 77.7283 14.376C77.3954 14.2443 77.0956 14.0407 76.851 13.7796V19.6787H73.6445V0.421556H77.185ZM77.0426 10.4185C77.124 10.7621 77.2872 11.0808 77.5196 11.347C77.5956 11.4386 77.6898 11.5134 77.7963 11.5667C77.9028 11.62 78.0195 11.6505 78.1384 11.6565C78.4183 11.6408 78.6817 11.5191 78.8749 11.316C79.1704 11.0017 79.3835 10.6188 79.4937 10.2018C79.6725 9.56138 79.7539 8.89788 79.7352 8.23336C79.7352 6.43417 79.5168 5.1631 79.0794 4.42032C78.8947 4.07784 78.6185 3.79309 78.2824 3.59755C77.9457 3.40202 77.5619 3.3033 77.1727 3.3123H76.851V8.88332C76.8451 9.40138 76.9099 9.91779 77.0426 10.4185Z" fill="#B5B5B5"/>
<path d="M86.5316 18.917C85.5665 18.0352 84.8674 16.9009 84.5136 15.6424C83.9895 13.8819 83.7449 12.05 83.7893 10.2138C83.7459 8.33074 83.99 6.45211 84.5136 4.64273C84.8637 3.34715 85.5617 2.172 86.5316 1.2444C87.3662 0.502697 88.448 0.10073 89.5646 0.117812C90.6856 0.0991725 91.7733 0.498575 92.6164 1.2382C93.5853 2.16287 94.2817 3.33644 94.628 4.63034C95.1425 6.44129 95.3828 8.31923 95.34 10.2014C95.3844 12.0384 95.1462 13.8714 94.6345 15.6362C94.2855 16.8921 93.5906 18.0247 92.6287 18.9046C91.762 19.6286 90.6625 20.0135 89.5336 19.9878C88.4373 19.999 87.3731 19.6194 86.5316 18.917ZM87.3175 14.0516C87.4497 14.8752 87.758 15.6607 88.2216 16.3543C88.3688 16.578 88.5679 16.7632 88.8013 16.8946C89.0352 17.0259 89.297 17.0996 89.5646 17.1095C90.3633 17.1095 90.9821 16.5338 91.4216 15.3701C91.9542 13.7055 92.1865 11.9596 92.1089 10.2138C92.1293 8.87385 92.0238 7.53502 91.7931 6.21497C91.6727 5.36138 91.3777 4.54168 90.9264 3.80707C90.7937 3.56428 90.5983 3.36167 90.3601 3.22053C90.1219 3.07939 89.8505 3.0049 89.5737 3.0049C89.297 3.0049 89.0256 3.07939 88.7874 3.22053C88.5497 3.36167 88.3538 3.56428 88.2216 3.80707C87.7569 4.54541 87.4491 5.37134 87.3175 6.23354C87.0878 7.55161 86.9818 8.88831 87.0016 10.2261C86.9824 11.5085 87.0884 12.7897 87.3175 14.0516Z" fill="#B5B5B5"/>
<path d="M97.5629 4.77993C98.3525 3.33892 99.5853 2.19068 101.079 1.5054C102.822 0.743746 104.711 0.373962 106.613 0.422139V3.31289C104.334 3.31289 102.589 3.89062 101.376 5.04607C100.138 6.19745 99.5558 7.92448 99.5558 10.2148C99.5558 12.5051 100.175 14.0712 101.369 15.1668C102.564 16.2625 104.322 16.8072 106.613 16.8072V19.6979C103.338 19.6979 100.8 18.9056 99.0173 17.321C97.2348 15.7363 96.343 13.3779 96.343 10.2333C96.2755 8.34105 96.6952 6.46312 97.5629 4.77993Z" fill="#B5B5B5"/>
<path d="M108.365 4.77993C109.155 3.33892 110.387 2.19068 111.881 1.5054C113.624 0.743746 115.513 0.373962 117.415 0.422139V3.31289C115.137 3.31289 113.391 3.89062 112.178 5.04607C110.94 6.19745 110.358 7.92448 110.358 10.2148C110.358 12.5051 110.977 14.0712 112.172 15.1668C113.366 16.2625 115.124 16.8072 117.415 16.8072V19.6979C114.14 19.6979 111.602 18.9056 109.82 17.321C108.037 15.7363 107.164 13.3593 107.164 10.2148C107.094 8.33035 107.507 6.45931 108.365 4.77993Z" fill="#B5B5B5"/>
<path d="M122.129 0.422213V7.29933L127.589 2.70015L130.783 0.0136719V19.698H127.589V6.57512L122.135 11.1743V19.6794H118.923V0.422213H122.129Z" fill="#B5B5B5"/>
<path d="M135.509 0.422213V7.29933L140.969 2.70015L144.163 0.0136719V19.698H140.957V6.57512L135.496 11.1743V19.6794H132.29V0.422213H135.509Z" fill="#B5B5B5"/>
</g>
</svg>
