<?xml version="1.0" encoding="UTF-8"?>
<svg id="Layer_2" data-name="Layer 2" xmlns="http://www.w3.org/2000/svg" viewBox="0 0 94.82 29.87">
  <defs>
    <style>
      .cls-1 {
        fill: #fff;
        fill-rule: evenodd;
      }
    </style>
  </defs>
  <g id="Layer_1-2" data-name="Layer 1">
    <path class="cls-1" d="m26.17,8.75c4.62-.23,10.68-4.19,3.21,5.28-.47.59-.96.71-.97,1.3.34-.01,10.83-8.04,4.36-8.42-1.51-.09-3.25.36-6.61,1.84M7.01,25.03c-6.06,6.27-7.23,3.56-.46-3.28,2.28-2.3,5.9-5.74,9.64-7.23l1.39-.55c-3.48,3.4-7.37,7.45-10.57,11.06Zm13.29-11.98l-1.22.12,1.71-1.07c.73-.71,3.85-2.6,5.37-3.2,2-.79-2.22.51-3.35.89l1.12-1.71c1.03-1.57,2.66-2.93,4-4.33.57-.5,3.24-2.92,3.19-3.64,0-.02-.01-.07-.03-.09-.04-.02-.15,0-.16,0-.62.19-2.8,2.7-3.33,3.29-1.04,1.15-2.77,2.35-4.03,3.3-3.3,2.21-3.71,2.55-7.55,4.37.25-.07-.37.5-.14.42,2.14-.74,6-2.75,8.18-3.77l-1.99,2.27c-1.36,1.55-4.19,2.88-5.98,3.94C-.02,23.67-3.01,32.09,2.62,29.34c7.45-3.64,12.11-13.91,17.63-16.22.02,0,.03-.06.05-.07m35.42,4.48c.12-.17.25-.33.38-.49.39-.49.8-.97,1.21-1.44,1.41-1.63,8.22-9.12,9.96-7.77,1.31,1.01-.96,2.97-1.69,3.74-.86.91-1.76,1.78-2.74,2.65-1.06.78-2.12,1.55-3.2,2.3-.95.66-2.1,1.49-3.15,1.96l-2.18.99,1.4-1.93Zm-.41-9.64c-.57.95-1.45,1.7-2.24,2.48-2.3,2.25-7.32,6.66-9.95,7.76l-1.61.67.81-1.55c.47-.9,1.27-1.85,1.91-2.64,1.23-1.5,2.88-2.66,3.92-4.3.8-1.25,11.71-9.92,7.16-2.43Zm-35.04,5.16s-.04.07-.01.07c.5,0,1.14.09,1.46.42.75.76.39,1.66-.11,2.41-.48.73-1.21,1.64-1.79,2.29-1.36,1.52-6.41,6.51-5.5,8.13,1.91,3.39,9.46-1.03,11.72-1.91l.93-.37-.07,1c-.04.58.08,1.28.65,1.56,1.35.67,4.3-.96,5.46-1.64l6.15-3.96-.33,1.5c-.23,1.05.22,1.99,1.21,2.27,3.52,1.01,7.74-1.59,11.15-2.7l-.6,1.31c-.54,1.18-1.44,2.73-.87,4.04,1.02,2.3,6.44,1.58,8.35,1.05,1.49-.38,3-1.09,4.38-1.79l.61-.31.26.63c.14.33.35.61.61.85.17.16.39.28.57.42,3.75,1.9,11.5.19,15.46-.76,4.12-.98,8.15-2.51,12.11-4.02.94-.34,1.85-.76,2.75-1.22-.63.15-1.43.46-1.72.57-4.03,1.49-8.09,2.93-12.24,4.15-3.21.85-13.46,2.84-16.15.87-.19-.14-.34-.32-.44-.54-.5-1.16.73-2.56,1.62-3.18.28-.2,1.3-.83,1.41-1.01-.02-.02-.07-.04-.1-.05-.74-.29-1.55.56-2.04.98-2.2,2.14-5.21,3.74-8.2,4.42-1.73.39-4.98.73-6.05-1.05-.13-.22-.22-.45-.26-.7-.26-1.44,1.18-4.82,2.4-5.63,1.3-.86,2.67-1.61,4.05-2.34,2.09-1.11,4.05-2.26,5.9-3.74,1.94-1.55,4.28-3.57,5.61-5.68.35-.56,1.08-1.89.56-2.51-2.4-2.86-11.71,7.3-13.28,9.27-.86,1.01-1.65,2.07-2.42,3.14-3.02,3.63-10.97,6.09-12.98,4.55-1.24-.83-.57-2.22.01-3.26l.02-.04.03-.04c1.13-1.45,3.27-2.07,4.77-3.08,18.25-11.74,13.62-19.68.85-6.34-2.06,2.15-4.05,4.51-5.66,7.01-.46.72-.77,1.09-1.1,1.88l-.07.16-.14.1c-1.4,1.03-3.25,2.06-4.74,2.96-2.48,1.61-9.91,4.89-3.91-1.95.78-.84,1.99-2.02,3.01-2.54.16-.08.55-.24.85-.39-1.27-.32-3.25,1.15-4.07,1.79-2.06,1.61-12.05,9.23-14.64,5.47,1.28-3.91,6.04-6.8,7.27-10.4.68-1.68-.51-2.33-2.17-2.19l-.44.03h-.1"/>
  </g>
</svg>