<svg width="383" height="104" viewBox="0 0 383 104" fill="none" xmlns="http://www.w3.org/2000/svg">
<path d="M131.315 6.259C131.28 6.29351 130.389 6.35392 129.325 6.39707C128.261 6.44022 126.687 6.51788 125.831 6.56966C124.974 6.61282 123.902 6.69911 123.452 6.75089C123.002 6.80267 122.163 6.8976 121.601 6.96664C121.03 7.02705 120.018 7.22552 119.352 7.39812C118.677 7.57072 117.777 7.74332 117.345 7.78647C116.878 7.82961 116.316 7.95043 115.97 8.07988C115.641 8.20069 114.958 8.37329 114.447 8.46822C113.937 8.55452 113.288 8.72711 113.003 8.8393C112.717 8.96011 112.198 9.09819 111.844 9.1586C111.498 9.21901 110.996 9.37434 110.736 9.50379C110.468 9.64187 110.096 9.78857 109.906 9.84035C109.716 9.89214 109.223 9.99569 108.816 10.0647C108.418 10.1338 107.605 10.3495 107.008 10.548C106.42 10.7465 105.598 11.0399 105.192 11.1952C104.777 11.3592 104.154 11.5663 103.799 11.6526C103.444 11.7475 102.813 11.9978 102.38 12.2135C101.836 12.4983 101.256 12.7054 100.4 12.9212C99.7336 13.0852 98.8599 13.3699 98.4534 13.5512C98.0468 13.7324 97.623 13.9136 97.5019 13.9481C97.3808 13.9827 97.1732 14.0603 97.0261 14.1207C96.8877 14.1898 96.4985 14.3537 96.1611 14.4918C95.8324 14.6299 95.3394 14.8197 95.0799 14.8974C94.8204 14.9837 94.2495 15.2167 93.817 15.4238C93.3931 15.6223 92.7876 15.8898 92.4762 16.002C92.1735 16.1142 91.4988 16.4163 90.9711 16.6579C90.4521 16.9081 89.9591 17.1498 89.8899 17.1929C89.8207 17.2361 89.6044 17.3569 89.4141 17.4605C89.2238 17.564 88.8346 17.7539 88.5405 17.8747C88.255 18.0041 87.8052 18.2458 87.5457 18.4097C87.2862 18.5737 86.9662 18.7722 86.8191 18.8499C86.6807 18.9275 85.9022 19.2986 85.0978 19.6869C84.2847 20.0667 83.5667 20.4291 83.4975 20.4981C83.4197 20.5585 82.8315 20.9037 82.1914 21.2576C81.5513 21.6114 80.7728 22.0256 80.47 22.181C80.1673 22.3363 79.7953 22.552 79.6483 22.6642C79.5012 22.7764 79.1033 22.9921 78.7746 23.1475C78.4373 23.3028 78.074 23.4927 77.9529 23.5703C77.8318 23.6566 77.3128 23.9414 76.8024 24.209C76.2921 24.4765 75.652 24.8648 75.3752 25.0719C75.107 25.2704 74.614 25.5811 74.2766 25.7537C73.9479 25.9349 73.5587 26.1765 73.4116 26.2974C73.2732 26.4268 72.8061 26.7547 72.3736 27.0395C71.9498 27.3243 71.4221 27.704 71.2059 27.8766C70.9896 28.0578 70.5485 28.3512 70.2111 28.5325C69.8824 28.7137 69.3894 29.0589 69.1299 29.3092C68.8704 29.5508 68.36 29.9391 68.0054 30.1635C67.6507 30.3879 67.2009 30.7244 67.0106 30.9057C66.8203 31.0869 66.4484 31.3976 66.1889 31.5961C65.9294 31.7945 65.4277 32.1656 65.0817 32.4245C64.727 32.692 64.2253 33.1063 63.9572 33.3479C63.6804 33.5982 63.17 34.021 62.8154 34.2972C62.4607 34.5647 61.9071 34.9962 61.5957 35.2378C61.2757 35.4881 60.5923 36.0663 60.082 36.515C59.563 36.9638 58.9661 37.5247 58.7499 37.7577C58.5336 37.9821 57.807 38.7415 57.1237 39.4319C56.4403 40.1223 55.6445 41.0025 55.3591 41.3822C55.065 41.7706 54.5892 42.3488 54.3038 42.6853C54.0097 43.0133 53.5512 43.5569 53.2831 43.8935C53.0149 44.2214 52.6343 44.6616 52.4527 44.86C52.2624 45.0585 51.9596 45.4469 51.778 45.723C51.5963 45.9992 51.2763 46.4393 51.086 46.7068C50.887 46.9657 50.6448 47.3195 50.5497 47.4835C50.4632 47.6388 50.1864 48.0962 49.9528 48.4759C49.7193 48.8643 49.4511 49.4079 49.3646 49.6841C49.2781 49.9689 49.1484 50.2882 49.0792 50.409C49.01 50.5298 48.8629 50.7628 48.7505 50.9268C48.638 51.0907 48.4564 51.5568 48.3353 51.9624C48.2228 52.368 48.0412 52.8857 47.9374 53.1274C47.8336 53.3604 47.6952 53.7315 47.6346 53.9472C47.5654 54.1629 47.4876 54.5686 47.4616 54.8533C47.427 55.1381 47.2627 55.8975 47.0983 56.5361C46.7956 57.7012 46.7956 57.7012 46.8388 59.0819C46.8821 60.3074 46.934 60.6094 47.2281 61.8003C47.4184 62.5338 47.7211 63.5263 47.9028 64.0009C48.2142 64.7948 48.292 64.9157 48.8889 65.5197C49.2522 65.8736 49.7712 66.3223 50.0566 66.5208C50.3421 66.7107 50.8351 67.099 51.1465 67.3838C51.4493 67.6599 51.8212 67.9361 51.9596 67.9965C52.1067 68.0483 52.5478 68.1691 52.9544 68.264C53.3609 68.3589 53.9837 68.5402 54.3384 68.6696C54.9352 68.8767 55.1688 68.9026 57.0718 68.9803C59.0613 69.0666 59.1997 69.058 60.0128 68.8854C60.4885 68.7818 61.3449 68.661 61.9331 68.6178C62.7721 68.5488 63.1354 68.4798 63.6285 68.2813C63.9918 68.1346 64.58 67.9879 65.0125 67.9361C65.4363 67.8843 65.8948 67.7808 66.0418 67.7031C66.1975 67.6168 66.4916 67.4701 66.7079 67.3579C66.9241 67.2543 67.3307 67.1249 67.6161 67.0645C67.9016 67.0127 68.4379 66.8315 68.8012 66.6675C69.1731 66.5035 69.7873 66.3137 70.1765 66.2447C70.5658 66.1756 70.9464 66.0634 71.0242 65.9944C71.1021 65.934 71.2924 65.8132 71.4567 65.7269C71.6211 65.6492 71.9844 65.5025 72.2785 65.4076C72.5726 65.3126 73.2559 65.0192 73.8009 64.7603C74.3458 64.4928 75.3233 64.0268 75.9634 63.7248C76.6035 63.4141 77.3474 63.0516 77.6069 62.9222C77.8664 62.7927 78.2297 62.6374 78.4113 62.577C78.6016 62.5166 78.9649 62.344 79.2331 62.1973C79.5099 62.0419 79.8905 61.8176 80.0981 61.6881C80.297 61.5587 80.6603 61.3774 80.9112 61.2739C81.1534 61.179 81.4042 61.1186 81.4734 61.1444C81.534 61.1703 81.5859 61.3084 81.5859 61.4465C81.5859 61.5846 81.3696 62.2318 81.1101 62.8704C80.8506 63.5176 80.5219 64.2684 80.3835 64.5446C80.2451 64.8207 80.0635 65.2695 79.9856 65.5456C79.8991 65.8477 79.8559 66.2101 79.8818 66.4259C79.8991 66.6416 80.0721 67.0645 80.297 67.4528C80.5046 67.8153 80.7901 68.2468 80.9285 68.4107C81.0669 68.5747 81.4129 68.8854 81.707 69.1097C82.0097 69.3427 82.4595 69.5844 82.7536 69.6793C83.0391 69.7656 83.7657 69.8778 84.3798 69.9296C85.3313 70.0159 85.5908 70.0072 86.3261 69.8692C86.7845 69.7915 87.5025 69.6448 87.9177 69.5585C88.3329 69.4636 88.8259 69.3945 88.9989 69.3945C89.1806 69.3945 89.3795 69.429 89.4487 69.4722C89.5266 69.524 89.5439 69.6275 89.5179 69.7483C89.4833 69.8778 89.2844 70.059 88.9643 70.2489C88.6875 70.4128 88.3415 70.6545 88.1858 70.7839C88.0388 70.9134 87.5284 71.2931 87.0613 71.6296C86.5942 71.9662 85.859 72.5099 85.4265 72.8292C84.994 73.1485 84.3712 73.6231 84.0425 73.8906C83.7138 74.1495 83.2553 74.4947 83.0131 74.6587C82.7796 74.8227 82.3298 75.1851 82.0184 75.4785C81.707 75.7719 81.2658 76.143 81.0236 76.2984C80.7901 76.4623 80.2797 76.8679 79.8905 77.2045C79.5099 77.5324 78.6622 78.1969 78.0048 78.6715C77.3474 79.1462 76.5083 79.7675 76.145 80.0609C75.7817 80.3457 75.1762 80.8031 74.7956 81.0706C74.415 81.3382 73.6279 81.925 73.057 82.3565C72.4774 82.7966 71.5259 83.5215 70.9377 83.9702C70.3495 84.419 69.6921 84.9454 69.4759 85.1439C69.2596 85.3337 68.6974 85.7739 68.2216 86.1104C67.7459 86.447 67.2182 86.8698 67.0539 87.0424C66.8895 87.215 66.5003 87.543 66.1889 87.7587C65.8775 87.9745 65.4363 88.3369 65.1941 88.5699C64.9606 88.7943 64.5281 89.1395 64.2426 89.338C63.9572 89.5364 63.5333 89.8644 63.2911 90.0629C63.0576 90.2613 62.6856 90.5375 62.4694 90.6842C62.2531 90.8309 61.6217 91.366 61.0594 91.8665C60.4972 92.3756 59.8311 92.9107 59.5889 93.0747C59.3381 93.23 58.1963 94.1793 57.0458 95.1803C55.6359 96.4144 54.8833 97.1307 54.7276 97.3896C54.5979 97.6053 54.5114 97.8642 54.5287 97.9678C54.546 98.0713 54.6152 98.2008 54.693 98.2439C54.7968 98.3129 54.9439 98.2957 55.2293 98.1835C55.4456 98.1058 55.8867 97.8038 56.2068 97.5276C56.5355 97.2428 57.0199 96.8631 57.2794 96.6733C57.5389 96.4921 58.0492 96.0951 58.4039 95.793C58.7585 95.4996 59.6408 94.8179 60.3501 94.2915C61.0681 93.7564 61.8898 93.1178 62.1753 92.8589C62.4694 92.6 62.9624 92.1944 63.2565 91.9528C63.5593 91.7112 64.1388 91.3142 64.5454 91.0639C64.9519 90.8137 65.5574 90.3476 65.8861 90.0283C66.2235 89.709 66.8809 89.174 67.3566 88.8374C67.8324 88.5009 68.36 88.078 68.5244 87.9054C68.6887 87.7328 68.9915 87.4739 69.1991 87.3272C69.398 87.1891 69.8305 86.844 70.1506 86.5592C70.4706 86.2744 71.1194 85.7739 71.5951 85.4459C72.0709 85.1266 72.7456 84.6175 73.0916 84.3327C73.4376 84.0393 73.9393 83.6596 74.2161 83.487C74.4842 83.3144 75.1416 82.8397 75.6606 82.4255C76.1883 82.0199 76.9235 81.4676 77.3041 81.2001C77.6847 80.9326 78.2124 80.4924 78.4719 80.2249C78.7314 79.9574 79.3196 79.4914 79.7694 79.1893C80.2192 78.8873 81.0236 78.2659 81.5426 77.8086C82.0703 77.3598 82.7104 76.842 82.9699 76.6694C83.2294 76.4882 83.6792 76.1516 83.9646 75.91C84.2501 75.6684 84.7258 75.3059 85.0199 75.1074C85.314 74.909 85.8763 74.4947 86.2742 74.1927C86.6721 73.882 87.3814 73.3124 87.8571 72.9327C88.3329 72.553 89.0508 72.018 89.4401 71.7591C89.838 71.4916 90.4867 70.9997 90.8673 70.6631C91.2566 70.3179 91.888 69.8088 92.2686 69.524C92.6492 69.2392 93.1769 68.8336 93.4364 68.6178C93.6959 68.3935 94.0505 68.1259 94.2149 68.0138C94.3792 67.8929 94.5955 67.729 94.6906 67.6427C94.7858 67.5564 95.2615 67.2284 95.7459 66.9091C96.2303 66.5898 96.8618 66.1756 97.1472 65.9858C97.4413 65.7959 98.0036 65.468 98.4015 65.2522C98.7907 65.0365 99.2492 64.769 99.4135 64.6481C99.5779 64.5273 99.8979 64.3288 100.123 64.2167C100.356 64.0958 100.754 63.8197 101.014 63.5953C101.273 63.3709 101.628 63.0861 101.81 62.9481C101.983 62.8186 102.285 62.577 102.484 62.4044C102.683 62.2404 103.021 62.0074 103.245 61.9039C103.643 61.7054 103.721 61.6968 106.23 61.6795L108.799 61.6622L109.387 61.3861C109.733 61.2221 110.114 61.1099 110.313 61.1099C110.555 61.1099 110.667 61.1531 110.736 61.2739C110.78 61.3688 110.823 61.5587 110.823 61.7054C110.823 61.8435 110.684 62.1887 110.52 62.4734C110.295 62.8531 110.174 63.207 110.044 63.8801C109.949 64.372 109.871 64.9588 109.871 65.1746C109.871 65.3903 109.932 65.7614 110.001 66.003C110.07 66.2447 110.209 66.5381 110.313 66.6675C110.416 66.797 110.676 66.9868 110.892 67.099C111.117 67.2112 111.593 67.3838 111.956 67.4873C112.311 67.5823 112.838 67.6686 113.132 67.6686C113.418 67.6686 113.842 67.6082 114.075 67.5391C114.309 67.4615 115.096 67.3665 115.823 67.3234C116.558 67.2802 117.233 67.2198 117.336 67.1853C117.44 67.1594 117.829 66.9954 118.201 66.8315C118.573 66.6675 119.196 66.4518 119.585 66.3655C120.061 66.2533 120.537 66.0548 121.039 65.77C121.454 65.5284 121.808 65.3385 121.834 65.3385C121.86 65.3385 122.206 65.1487 122.604 64.9157C123.002 64.674 123.573 64.3116 123.884 64.0958C124.196 63.8801 124.853 63.4917 125.355 63.2415C125.857 62.9826 126.903 62.4389 127.69 62.0333C128.858 61.4206 129.273 61.1444 129.991 60.5231C130.467 60.1089 131.246 59.522 131.721 59.22C132.188 58.918 132.906 58.4433 133.313 58.1758C133.719 57.9083 134.29 57.5631 134.584 57.4077C134.879 57.261 135.225 57.1402 135.346 57.1402C135.467 57.1402 135.562 57.1747 135.562 57.2093C135.562 57.2438 135.441 57.4682 135.294 57.7098C135.138 57.9428 134.619 58.5555 134.126 59.0647C133.633 59.5825 133.226 60.0312 133.226 60.0657C133.226 60.1089 132.941 60.3764 132.586 60.6784C132.197 60.9977 131.773 61.4551 131.522 61.8262C131.297 62.1714 130.796 62.7755 130.415 63.1811C130.035 63.5867 129.619 64.1304 129.49 64.3892C129.351 64.6568 129.247 65.0106 129.247 65.1918C129.247 65.373 129.299 65.6233 129.368 65.7528C129.438 65.8822 129.585 66.0721 129.697 66.167C129.801 66.2705 129.983 66.4 130.086 66.4518C130.199 66.5035 130.614 66.6503 131.021 66.7624C131.427 66.8833 131.86 66.9782 131.981 66.9782C132.102 66.9782 132.517 66.8487 132.906 66.6848C133.296 66.5294 133.711 66.3655 133.832 66.3309C133.953 66.2964 134.325 66.1497 134.654 66.0116C134.991 65.8736 135.432 65.6751 135.64 65.5802C135.856 65.4852 136.15 65.3213 136.288 65.2091C136.436 65.0969 136.92 64.8294 137.361 64.605C137.802 64.3806 138.442 63.9923 138.78 63.742C139.169 63.4572 139.575 63.2415 139.887 63.1552C140.224 63.0603 140.51 62.8963 140.804 62.6374C141.037 62.4303 141.314 62.2145 141.418 62.1628C141.522 62.1024 141.686 62.0592 141.781 62.0592C141.894 62.0592 142.153 62.3008 142.534 62.7496C142.845 63.1293 143.217 63.5176 143.347 63.6126C143.485 63.7161 143.805 63.8542 144.056 63.9232C144.307 64.0009 144.714 64.1476 144.947 64.2598C145.345 64.4497 145.509 64.4669 147.196 64.4928C148.822 64.5187 149.194 64.4928 150.699 64.2771C151.625 64.139 152.853 63.9232 153.424 63.7765C153.995 63.6385 154.661 63.5263 154.895 63.5263C155.137 63.5263 155.716 63.4313 156.192 63.3192C156.668 63.207 157.386 63.0689 157.792 63.0171C158.199 62.974 158.882 62.8186 159.306 62.6805C159.799 62.5252 160.37 62.413 160.863 62.3785C161.296 62.344 161.892 62.2491 162.187 62.1541C162.481 62.0592 162.948 61.9384 163.225 61.8952C163.493 61.8435 164.202 61.7658 164.79 61.714C165.56 61.645 166.053 61.55 166.572 61.3602C167.186 61.1444 167.42 61.1099 168.155 61.1099C168.89 61.1099 169.046 61.084 169.236 60.9287C169.366 60.8338 169.513 60.6094 169.565 60.4282C169.652 60.152 169.634 60.0398 169.487 59.7033C169.375 59.4444 169.21 59.2545 169.02 59.151C168.804 59.0388 168.562 58.9956 168.043 59.0129C167.662 59.0129 167.005 59.0819 166.572 59.1596C166.148 59.2373 165.344 59.2977 164.79 59.2977C164.141 59.2977 163.64 59.3408 163.363 59.4271C163.026 59.5307 162.662 59.5479 161.598 59.5134C160.863 59.4875 159.851 59.4185 159.349 59.3753C158.848 59.3236 158.112 59.2286 157.706 59.1682C157.299 59.0992 156.469 58.9439 155.846 58.823C155.232 58.6936 154.393 58.4951 153.995 58.3743C153.597 58.2535 152.966 58.0809 152.594 57.9946C152.222 57.9083 151.668 57.7271 151.374 57.589C151.071 57.4509 150.587 57.2697 150.284 57.1834C149.99 57.0971 149.618 56.9159 149.454 56.7778C149.238 56.6052 149.099 56.3808 148.969 55.9838C148.874 55.6818 148.71 55.3625 148.623 55.2848C148.528 55.1985 148.269 55.1122 148.044 55.095C147.672 55.0604 147.577 55.095 147.11 55.4143C146.625 55.7508 146.565 55.7767 146.089 55.7422C145.691 55.7077 145.371 55.5955 144.445 55.1295C143.823 54.8188 143.148 54.534 142.958 54.4995C142.767 54.465 142.534 54.4046 142.439 54.3528C142.343 54.301 142.222 54.2061 142.162 54.1284C142.101 54.0508 142.058 53.8695 142.058 53.7315C142.058 53.5848 142.119 53.3949 142.205 53.3C142.283 53.1964 142.681 52.8685 143.087 52.5492C143.494 52.2385 144.048 51.8502 144.316 51.6776C144.584 51.505 145.042 51.1425 145.336 50.875C145.63 50.5988 146.34 50.0379 146.919 49.6151C147.499 49.1922 148.182 48.7089 148.424 48.545C148.675 48.381 148.943 48.1307 149.013 47.9926C149.082 47.8546 149.142 47.6302 149.142 47.4921C149.142 47.354 149.056 47.1124 148.943 46.9484C148.822 46.7758 148.597 46.5946 148.347 46.4911C148.078 46.3789 147.862 46.3444 147.646 46.3875C147.438 46.422 147.136 46.6291 146.703 47.0175C146.357 47.3282 145.855 47.7424 145.596 47.9322C145.336 48.1307 144.843 48.545 144.515 48.8556C144.177 49.1663 143.364 49.8049 142.707 50.2795C142.049 50.7542 141.331 51.2892 141.124 51.4618C140.916 51.6431 140.709 51.7898 140.665 51.7898C140.631 51.7898 140.38 51.9624 140.112 52.1781C139.844 52.3938 139.498 52.6268 139.325 52.6959C139.16 52.7649 138.858 52.8253 138.65 52.8253C138.39 52.8253 138.166 52.7563 137.889 52.5751C137.672 52.437 137.006 52.0918 136.401 51.807C135.804 51.5222 135.112 51.1512 134.853 50.9872C134.602 50.8232 134.204 50.5902 133.962 50.4694C133.728 50.3486 133.322 50.1674 133.071 50.0724C132.82 49.9689 132.413 49.7876 132.162 49.6668C131.92 49.5374 131.384 49.1836 130.986 48.8643C130.579 48.5536 129.983 48.0358 129.645 47.7251C129.308 47.4058 128.858 47.0434 128.642 46.9139C128.426 46.7845 128.14 46.5774 128.002 46.4652C127.863 46.3444 127.543 45.9905 127.284 45.6799C127.033 45.3606 126.713 44.8255 126.566 44.4976C126.427 44.161 126.237 43.7382 126.133 43.5483C126.038 43.3671 125.96 43.065 125.96 42.8838C125.96 42.6336 126.03 42.4782 126.272 42.2193C126.436 42.0295 126.756 41.7878 126.981 41.6843C127.206 41.5721 127.543 41.3391 127.734 41.1665C127.924 40.9853 128.486 40.433 128.988 39.9324C129.49 39.4319 130.026 38.8969 130.182 38.7415C130.337 38.5862 130.83 38.1029 131.28 37.6801C131.721 37.2486 132.353 36.6876 132.664 36.4287C132.984 36.1698 133.642 35.5658 134.126 35.0911C134.602 34.6165 135.173 34.0901 135.38 33.9261C135.596 33.7621 135.908 33.5032 136.072 33.3652C136.245 33.2185 136.583 32.9423 136.816 32.7524C137.058 32.5626 137.525 32.2347 137.854 32.0275C138.191 31.8204 138.52 31.6047 138.589 31.5443C138.659 31.4925 138.97 31.3199 139.281 31.1646C139.593 31.0179 140.077 30.7762 140.363 30.6295C140.648 30.4828 141.107 30.2067 141.375 30.0254C141.651 29.8442 142.196 29.5853 142.586 29.4472C142.984 29.3092 143.693 29.0503 144.169 28.8863C144.644 28.7137 145.423 28.3858 145.899 28.1528C146.374 27.9111 146.937 27.6695 147.153 27.6005C147.369 27.5314 147.715 27.4279 147.931 27.3675C148.148 27.3157 148.494 27.2035 148.71 27.1344C148.926 27.0568 149.298 26.8928 149.532 26.7547C149.774 26.6253 150.258 26.4354 150.613 26.3405C150.968 26.237 151.59 26.0039 151.997 25.8055C152.403 25.607 153.009 25.3567 153.338 25.2359C153.675 25.1237 154.272 24.8907 154.678 24.7267C155.085 24.5714 155.708 24.3557 156.062 24.2694C156.417 24.1744 157.256 23.9069 157.922 23.6653C158.588 23.4323 159.462 23.1216 159.851 22.9749C160.249 22.8282 160.854 22.647 161.192 22.5693C161.538 22.4916 161.979 22.3535 162.187 22.2673C162.386 22.1723 162.732 22.0256 162.948 21.9221C163.164 21.8271 163.64 21.6718 164.003 21.5682C164.366 21.4733 164.79 21.3611 164.929 21.3266C165.076 21.2835 165.387 21.1972 165.621 21.1281C165.863 21.0591 166.287 20.9037 166.581 20.7829C166.866 20.6621 167.351 20.5068 167.662 20.4291C167.965 20.3601 168.518 20.2651 168.89 20.2134C169.306 20.153 169.842 19.9976 170.266 19.8164C170.664 19.6352 171.26 19.4626 171.702 19.3935C172.117 19.3245 172.688 19.1692 172.973 19.0483C173.259 18.9275 173.864 18.7722 174.314 18.6945C174.764 18.6169 175.352 18.496 175.611 18.4184C175.871 18.3407 176.459 18.1681 176.909 18.03C177.359 17.8919 178.007 17.7452 178.336 17.7021C178.673 17.6589 179.253 17.564 179.634 17.4863C180.014 17.4087 180.602 17.2792 180.931 17.1843C181.268 17.0894 182.281 16.8995 183.18 16.7528C184.088 16.6061 185.118 16.4335 185.472 16.3645C185.827 16.2954 186.649 16.166 187.289 16.0711C187.929 15.9675 188.803 15.8553 189.235 15.8035C189.659 15.7518 190.481 15.6137 191.052 15.4929C191.744 15.3462 192.591 15.2512 193.603 15.2081C194.512 15.1563 195.446 15.0614 195.939 14.9578C196.389 14.8543 197.245 14.7507 197.842 14.7248C198.439 14.6903 199.667 14.5781 200.567 14.4659C201.475 14.3537 202.755 14.2329 203.421 14.207C204.087 14.1811 204.788 14.1207 204.978 14.0689C205.168 14.0172 206.025 13.9395 206.881 13.8877C207.737 13.8359 208.654 13.7928 208.914 13.7928C209.173 13.7928 209.935 13.8359 210.601 13.8877C211.267 13.9395 212.123 14.0603 212.504 14.1553C212.884 14.2502 213.351 14.3883 213.542 14.4659C213.732 14.5436 214.009 14.6644 214.164 14.7334C214.311 14.8025 214.476 14.8543 214.528 14.8543C214.58 14.8543 214.822 14.9492 215.081 15.0614C215.332 15.1736 215.773 15.4411 216.059 15.6568C216.336 15.8726 216.69 16.1746 216.846 16.3386C217.002 16.4939 217.192 16.7787 217.278 16.9686C217.408 17.2533 217.425 17.5209 217.408 18.5133C217.4 19.3504 217.339 19.9199 217.218 20.4291C217.123 20.8261 216.967 21.318 216.881 21.5165C216.794 21.7236 216.586 22.1033 216.422 22.3622C216.249 22.6211 215.981 23.1389 215.808 23.5099C215.635 23.881 215.289 24.4247 215.029 24.7181C214.779 25.0115 214.303 25.6588 213.974 26.1593C213.654 26.6598 213.248 27.2725 213.075 27.5314C212.902 27.7903 212.296 28.4721 211.725 29.0503C210.921 29.8701 210.601 30.129 210.298 30.2325C210.082 30.3016 209.692 30.431 209.433 30.5173C209.173 30.6036 208.663 30.828 208.3 31.0092C207.936 31.1905 207.59 31.3372 207.53 31.3372C207.469 31.3372 206.864 31.6219 206.198 31.9671C205.523 32.321 204.805 32.7266 204.589 32.8646C204.373 33.0113 203.966 33.2098 203.681 33.3134C203.395 33.4169 202.876 33.6586 202.53 33.8484C202.184 34.0383 201.622 34.3662 201.293 34.582C200.965 34.7977 200.186 35.2292 199.563 35.5399C198.94 35.8505 198.188 36.282 197.885 36.4978C197.582 36.7221 197.02 37.0932 196.622 37.3349C196.224 37.5679 195.731 37.8958 195.515 38.0598C195.307 38.2151 194.892 38.4567 194.607 38.5862C194.313 38.7156 193.949 38.9314 193.785 39.0695C193.621 39.2075 193.171 39.5441 192.79 39.8116C192.401 40.0878 191.796 40.5106 191.441 40.7523C191.086 41.0025 190.68 41.3046 190.533 41.434C190.394 41.5635 190.083 41.7706 189.849 41.9086C189.607 42.0381 189.261 42.297 189.071 42.4696C188.872 42.6422 188.448 42.9615 188.111 43.1772C187.782 43.393 187.263 43.7813 186.969 44.0316C186.683 44.2905 186.112 44.791 185.715 45.1535C185.325 45.5159 184.824 45.9215 184.607 46.0682C184.391 46.2149 184.106 46.4652 183.959 46.6119C183.82 46.7672 183.543 47.0089 183.353 47.1469C183.171 47.285 182.445 47.8891 181.753 48.4932C181.061 49.0886 179.893 50.1846 179.158 50.9268C178.414 51.6603 177.584 52.5319 177.298 52.8685C177.013 53.1964 176.546 53.7142 176.251 54.0076C175.931 54.3355 175.508 54.9137 175.179 55.4747C174.876 55.9925 174.47 56.6397 174.279 56.9245C173.968 57.3819 173.925 57.5027 173.925 57.9342C173.925 58.2966 173.968 58.4865 174.106 58.6677C174.201 58.7971 174.418 58.9956 174.573 59.0992C174.781 59.2459 174.989 59.2977 175.3 59.2977C175.672 59.2977 175.914 59.2114 176.658 58.8403C177.151 58.5987 177.679 58.3398 177.817 58.288C177.964 58.2276 178.345 58.0032 178.665 57.7961C178.994 57.589 179.365 57.3732 179.487 57.3301C179.616 57.2783 179.945 57.1747 180.23 57.0884C180.507 57.0021 180.845 56.8554 180.966 56.7519C181.087 56.6483 181.658 56.329 182.229 56.0442C182.8 55.7595 183.388 55.466 183.526 55.3884C183.673 55.3107 184.019 55.1467 184.296 55.0259C184.573 54.9051 185.031 54.629 185.299 54.4218C185.576 54.2147 186.009 53.8609 186.26 53.6365C186.519 53.4208 187.012 53.1101 187.358 52.9461C187.713 52.7908 188.249 52.4801 188.56 52.2644C188.872 52.0486 189.391 51.738 189.711 51.574C190.04 51.41 190.524 51.0735 190.792 50.8232C191.069 50.573 191.354 50.3313 191.432 50.2882C191.51 50.245 191.917 49.9344 192.34 49.5978C192.756 49.2699 193.344 48.8125 193.647 48.5967C193.941 48.381 194.416 48.0358 194.693 47.8287C194.979 47.6129 195.256 47.3886 195.316 47.3282C195.377 47.2677 195.887 46.8794 196.441 46.4738C196.994 46.0596 197.66 45.5245 197.902 45.2743C198.153 45.024 198.716 44.5407 199.157 44.1955C199.598 43.859 200.16 43.3498 200.394 43.0737C200.636 42.8061 200.965 42.4955 201.129 42.4005C201.293 42.3056 201.881 41.7447 202.435 41.1579C202.989 40.571 203.707 39.8806 204.035 39.6218C204.364 39.3629 205.004 38.7415 205.454 38.2583C205.904 37.7663 206.708 36.9293 207.236 36.4028C207.763 35.8678 208.698 34.9789 209.32 34.4094C209.935 33.8484 210.609 33.1839 210.817 32.925C211.016 32.6748 211.405 32.2605 211.682 32.0103C211.95 31.76 212.348 31.4062 212.556 31.225C212.763 31.0437 213.291 30.7331 213.715 30.526C214.147 30.3275 214.649 30.1204 214.839 30.0686C215.029 30.0168 215.574 29.8615 216.05 29.7148C216.526 29.5767 217.088 29.4127 217.304 29.3609C217.521 29.3092 218.247 29.1538 218.931 29.0071C219.614 28.869 220.306 28.7482 220.47 28.7482C220.635 28.7482 221.007 28.8259 221.301 28.9295C221.586 29.0244 222.053 29.2574 222.321 29.4386C222.598 29.6285 222.91 29.8787 223.005 30.0082C223.109 30.1376 223.23 30.3879 223.282 30.5605C223.359 30.8194 223.351 31.1042 223.238 31.9154C223.16 32.4763 223.048 33.0717 222.996 33.2357C222.944 33.3997 222.711 33.8829 222.468 34.3144C222.235 34.7373 221.932 35.2292 221.802 35.3932C221.673 35.5658 221.456 35.9109 221.318 36.1698C221.188 36.4287 220.885 36.912 220.635 37.2486C220.392 37.5765 220.098 38.008 219.969 38.1978C219.847 38.3877 219.441 38.871 219.078 39.2766C218.706 39.6822 218.299 40.1568 218.161 40.338C218.031 40.5193 217.59 40.9594 217.183 41.3218C216.768 41.6756 216.439 41.9949 216.439 42.0381C216.439 42.0726 216.266 42.3229 216.05 42.5818C215.843 42.8407 215.531 43.1427 215.367 43.2376C215.211 43.3412 214.986 43.5483 214.882 43.7036C214.779 43.8504 214.45 44.1697 214.164 44.4113C213.87 44.6443 213.421 45.0672 213.161 45.3519C212.893 45.6281 212.504 45.9733 212.287 46.12C212.071 46.2667 211.665 46.5946 211.379 46.8621C211.094 47.1297 210.237 47.8373 209.476 48.4414C208.715 49.0455 207.737 49.8222 207.296 50.1674C206.864 50.5125 205.964 51.2202 205.307 51.7466C204.649 52.2644 203.966 52.834 203.784 53.0066C203.611 53.1792 203.196 53.4812 202.876 53.6711C202.556 53.8695 202.115 54.1716 201.89 54.3528C201.665 54.534 201.241 54.8706 200.947 55.1122C200.653 55.3452 200.108 55.8285 199.728 56.1651C199.356 56.5103 198.906 56.8727 198.724 56.9763C198.551 57.0798 198.3 57.2956 198.171 57.4682C197.998 57.6839 197.928 57.8738 197.928 58.1068C197.928 58.288 197.989 58.5555 198.058 58.685C198.127 58.823 198.309 58.9784 198.465 59.0474C198.62 59.1164 198.932 59.1682 199.148 59.1596C199.408 59.1596 199.684 59.0733 199.952 58.9266C200.177 58.8058 200.558 58.5382 200.792 58.3311C201.034 58.124 201.553 57.6666 201.942 57.3042C202.323 56.9417 202.954 56.3549 203.335 56.0011C203.715 55.6386 204.243 55.2158 204.511 55.0518C204.779 54.8792 205.186 54.5772 205.419 54.3701C205.653 54.1629 205.999 53.8695 206.189 53.7315C206.379 53.5848 206.725 53.2913 206.968 53.0756C207.201 52.8599 207.539 52.5923 207.703 52.4801C207.867 52.368 208.222 52.0745 208.481 51.8329C208.741 51.5826 209.312 51.1253 209.736 50.806C210.168 50.478 210.67 50.0552 210.869 49.8567C211.059 49.6668 211.405 49.3389 211.647 49.1404C211.881 48.9419 212.46 48.5191 212.936 48.1998C213.412 47.8805 214.251 47.2332 214.796 46.75C215.341 46.2753 216.024 45.6453 216.31 45.3519C216.595 45.0672 217.062 44.6702 217.356 44.4717C217.642 44.2818 218.092 43.9194 218.36 43.6605C218.645 43.3843 219.104 43.0737 219.519 42.8666C219.891 42.6853 220.341 42.4264 220.505 42.297C220.669 42.1675 221.058 41.9173 221.37 41.7447C221.681 41.5721 222.278 41.1406 222.711 40.7868C223.134 40.433 223.74 40.0187 224.051 39.872C224.354 39.7253 224.752 39.4837 224.916 39.3283C225.089 39.173 225.574 38.8364 225.998 38.5689C226.43 38.31 227.027 37.9821 227.338 37.844C227.641 37.7059 228.108 37.4125 228.359 37.1882C228.619 36.9638 229.112 36.6272 229.449 36.446C229.786 36.2648 230.297 36.0404 230.573 35.9541C230.859 35.8678 231.283 35.6607 231.525 35.4881C231.767 35.3241 232.312 35.0135 232.745 34.7891C233.168 34.5733 233.791 34.2195 234.12 34.021C234.449 33.8139 235.071 33.5119 235.504 33.3479C235.936 33.1839 236.568 32.9596 236.897 32.8474C237.234 32.7438 237.796 32.5194 238.151 32.3468C238.506 32.1829 239.12 31.9412 239.509 31.8118C239.898 31.6824 240.443 31.4407 240.72 31.2767C240.997 31.1042 241.455 30.8625 241.741 30.7244C242.026 30.5864 242.381 30.4742 242.528 30.4742C242.666 30.4742 242.831 30.5173 242.891 30.5777C242.952 30.6381 242.995 30.8107 242.995 30.9661C242.995 31.13 242.943 31.3631 242.874 31.4925C242.805 31.6219 242.597 31.8636 242.415 32.0362C242.234 32.2088 241.948 32.4331 241.784 32.5453C241.62 32.6575 241.101 33.1235 240.642 33.5723C240.184 34.0297 239.345 34.8581 238.782 35.4104C238.22 35.9627 237.502 36.6272 237.191 36.8775C236.879 37.1364 235.668 38.2841 234.509 39.4319C233.35 40.571 232.243 41.6239 232.053 41.7619C231.862 41.9 231.499 42.2452 231.257 42.53C231.006 42.8148 230.461 43.3412 230.046 43.6864C229.622 44.0402 228.939 44.6529 228.515 45.0585C228.091 45.4641 227.278 46.2408 226.716 46.7845C226.153 47.3282 225.591 47.8718 225.47 47.9926C225.34 48.1135 224.553 48.9074 223.714 49.7618C222.875 50.6247 221.975 51.5826 221.716 51.9106C221.456 52.2299 221.197 52.6182 221.136 52.7649C221.084 52.9203 221.033 53.1533 221.033 53.3C221.024 53.438 221.093 53.6969 221.18 53.8523C221.266 54.0421 221.474 54.232 221.707 54.3528C221.941 54.4736 222.244 54.5513 222.486 54.5513C222.702 54.5513 223.221 54.4564 223.636 54.3442C224.051 54.232 224.544 54.0508 224.726 53.9386C224.916 53.8264 225.358 53.5589 225.712 53.3517C226.058 53.1446 226.569 52.8167 226.854 52.6268C227.131 52.437 227.736 52.1177 228.195 51.9278C228.653 51.7293 229.328 51.41 229.691 51.2029C230.054 51.0044 230.599 50.6765 230.902 50.4694C231.205 50.2623 231.776 49.9257 232.182 49.7272C232.589 49.5201 233.35 49.08 233.869 48.7348C234.397 48.3896 235.054 47.9754 235.34 47.8201C235.625 47.6647 236.187 47.3368 236.594 47.1038C237 46.8708 237.762 46.422 238.281 46.1114C238.808 45.7921 239.466 45.3606 239.751 45.1448C240.037 44.9204 240.443 44.6443 240.659 44.5235C240.876 44.4027 241.135 44.2732 241.248 44.2387C241.36 44.2042 241.715 44.0229 242.026 43.8417C242.346 43.6519 243.012 43.3067 243.505 43.0737C243.998 42.832 244.682 42.4264 245.019 42.1762C245.356 41.9173 246.005 41.5203 246.455 41.2873C246.905 41.0543 247.631 40.6314 248.055 40.3467C248.488 40.0619 249.033 39.7167 249.266 39.5786C249.508 39.4492 249.759 39.2938 249.828 39.2334C249.898 39.173 250.468 38.8451 251.083 38.4999C251.705 38.1633 252.25 37.8354 252.294 37.7836C252.346 37.7232 252.475 37.6024 252.596 37.5247C252.709 37.447 252.89 37.378 253.003 37.378C253.107 37.378 253.219 37.4212 253.245 37.4729C253.28 37.5161 253.089 37.775 252.821 38.0425C252.553 38.3014 252.121 38.776 251.87 39.0953C251.61 39.406 251.1 39.9583 250.719 40.3121C250.339 40.666 249.768 41.1837 249.448 41.4599C249.136 41.7447 248.747 42.1503 248.6 42.366C248.453 42.5904 247.934 43.1772 247.467 43.6778C246.991 44.1783 246.325 44.955 245.996 45.4037C245.659 45.8525 245.322 46.284 245.244 46.353C245.166 46.422 244.958 46.6637 244.777 46.888C244.604 47.1038 244.31 47.6302 244.137 48.0531C243.894 48.6485 243.825 48.9333 243.817 49.3734C243.817 49.8222 243.86 49.9861 244.016 50.2105C244.119 50.3572 244.422 50.5902 244.682 50.711C245.14 50.9354 245.183 50.944 246.472 50.9095C247.527 50.8836 247.899 50.8405 248.315 50.6938C248.6 50.5988 249.162 50.4176 249.569 50.2882C249.975 50.1674 250.503 49.943 250.737 49.8049C250.979 49.6668 251.576 49.3562 252.077 49.1145C252.57 48.8643 253.219 48.5708 253.505 48.45C253.79 48.3292 254.473 48.0013 255.018 47.7165C255.563 47.4403 256.264 47.0693 256.567 46.9053C256.973 46.6896 257.215 46.6119 257.432 46.6291C257.7 46.655 257.743 46.6896 257.769 46.8967C257.795 47.1038 257.691 47.2505 257.077 47.8546C256.679 48.2429 256.255 48.7607 256.126 48.9937C255.927 49.3562 255.883 49.5805 255.831 50.3486C255.78 51.1857 255.788 51.2892 255.935 51.4532C256.022 51.5568 256.255 51.7121 256.454 51.7898C256.645 51.8761 257.025 51.9882 257.302 52.0486C257.674 52.1263 257.985 52.1263 258.591 52.0486C259.032 51.9969 259.655 51.8933 259.983 51.8243C260.312 51.7552 260.857 51.6603 261.194 51.6172C261.549 51.574 262.059 51.4273 262.388 51.272C262.726 51.1253 263.253 50.9699 263.642 50.9181C264.014 50.8664 264.516 50.7628 264.75 50.6938C264.992 50.6161 265.225 50.5298 265.269 50.4953C265.321 50.4608 265.727 50.3141 266.177 50.1674C266.627 50.0293 267.336 49.8135 267.743 49.6841C268.158 49.5546 268.997 49.2008 269.602 48.8988C270.58 48.4069 270.779 48.3378 271.203 48.3378C271.6 48.3378 271.747 48.381 272.042 48.5881C272.232 48.7262 272.414 48.8901 272.448 48.9333C272.474 48.9851 272.656 49.1059 272.846 49.2094C273.036 49.3044 273.434 49.4597 273.728 49.5546C274.031 49.6496 274.714 49.7618 275.303 49.8049C275.874 49.8481 276.496 49.9257 276.687 49.9861C276.886 50.0379 277.24 50.0638 277.508 50.0293C277.768 50.0034 278.417 49.9257 278.953 49.8567C279.481 49.7876 280.069 49.6841 280.259 49.6323C280.449 49.5892 281.288 49.4683 282.127 49.3734C282.958 49.2785 283.832 49.1404 284.056 49.0627C284.281 48.9851 284.636 48.847 284.844 48.7607C285.043 48.6658 285.475 48.5277 285.795 48.45C286.115 48.381 286.695 48.2257 287.075 48.1135C287.465 48.0013 287.871 47.9064 287.966 47.9064C288.07 47.9064 288.243 47.9926 288.355 48.1048C288.477 48.2257 288.615 48.545 288.71 48.9419C288.797 49.2957 288.935 49.7272 289.022 49.8912C289.099 50.0638 289.342 50.3572 289.549 50.5557C289.765 50.7456 290.085 50.9527 290.276 51.0217C290.457 51.0821 290.864 51.1339 291.175 51.1339C291.487 51.1253 292.222 51.108 292.819 51.0821C293.416 51.0562 294.289 50.9699 294.765 50.9009C295.241 50.8232 296.08 50.7024 296.625 50.6247C297.17 50.5471 297.862 50.4521 298.156 50.4004C298.459 50.3572 299.038 50.1846 299.453 50.0293C299.877 49.8739 300.431 49.6927 300.69 49.6323C300.95 49.5805 301.339 49.4856 301.555 49.4338C301.772 49.3907 302.317 49.149 302.766 48.916C303.216 48.683 303.649 48.4414 303.718 48.381C303.787 48.3206 304.159 48.1135 304.54 47.915C304.92 47.7251 305.517 47.4662 305.872 47.3368C306.226 47.216 306.754 46.983 307.048 46.819C307.385 46.6378 307.697 46.5256 307.904 46.5256C308.077 46.5256 308.562 46.655 308.977 46.819C309.392 46.9743 309.929 47.1469 310.162 47.2073C310.404 47.2591 311.027 47.3972 311.546 47.5094C312.074 47.6216 312.826 47.7596 313.233 47.8114C313.639 47.8632 314.478 47.9668 315.093 48.0358C315.715 48.1048 316.875 48.1652 317.67 48.1652C318.769 48.1652 319.279 48.1998 319.824 48.3292C320.222 48.4155 321.009 48.5104 321.572 48.545C322.134 48.5708 323.007 48.6658 323.509 48.7434C324.305 48.8643 324.564 48.8643 325.464 48.778C326.398 48.683 326.58 48.683 327.159 48.8211C327.557 48.9074 328.232 48.9764 328.889 48.9851C329.486 48.9937 330.559 49.0455 331.268 49.0973C331.986 49.149 332.92 49.2785 333.344 49.3734C334.002 49.5374 334.244 49.5546 334.901 49.4942C335.334 49.4511 336.207 49.4338 336.847 49.4511C337.487 49.4597 338.69 49.546 339.512 49.6409C340.333 49.7272 341.216 49.8049 341.475 49.8049C341.726 49.8049 342.202 49.8567 342.53 49.9257C342.85 49.9948 343.724 50.0897 344.459 50.1501C345.195 50.2019 346.328 50.3054 346.968 50.3745C347.608 50.4521 348.681 50.5643 349.347 50.6334C350.013 50.711 351.241 50.7973 352.071 50.8405C353.395 50.9009 353.672 50.9354 354.277 51.1512L354.969 51.3928L358.057 51.41C360.92 51.4273 361.18 51.4359 361.69 51.6085C362.079 51.738 362.477 51.7898 363.1 51.7984C363.576 51.7984 364.181 51.8156 364.441 51.8156C364.7 51.8243 365.289 51.7725 365.738 51.7035C366.188 51.6344 366.811 51.5826 367.122 51.5826C367.434 51.5913 367.961 51.6258 368.29 51.6603C368.844 51.7121 368.922 51.7035 369.198 51.5136C369.423 51.3583 369.501 51.2461 369.501 51.0562C369.501 50.8664 369.432 50.7714 369.207 50.6334C368.93 50.4694 368.766 50.4608 366.396 50.478C364.899 50.4867 363.671 50.4521 363.36 50.4004C363.074 50.3486 362.495 50.2537 362.062 50.176C361.638 50.1069 360.505 50.0206 359.554 49.9775C358.602 49.943 357.4 49.8653 356.872 49.8135C356.353 49.7618 355.782 49.6841 355.618 49.6323C355.454 49.5892 354.762 49.477 354.078 49.3734C353.386 49.2785 352.391 49.2008 351.829 49.2008C351.276 49.2008 350.367 49.1404 349.822 49.0714C349.277 48.9937 348.421 48.8729 347.919 48.8038C347.418 48.7262 346.483 48.6399 345.843 48.5967C345.203 48.5622 344.131 48.45 343.465 48.3465C342.799 48.2515 341.596 48.0962 340.783 47.9926C339.979 47.8977 338.517 47.7769 337.539 47.7338C336.562 47.6906 335.334 47.6475 334.797 47.6475C334.27 47.6475 333.526 47.5871 333.154 47.518C332.782 47.4403 331.917 47.3195 331.225 47.2505C330.533 47.1728 329.054 47.0865 327.938 47.0434C326.822 47.0089 325.845 46.9484 325.775 46.9226C325.706 46.8967 324.807 46.8535 323.786 46.8363C322.22 46.8017 321.84 46.7672 321.364 46.6205C321.001 46.4997 320.464 46.422 319.85 46.3961C319.322 46.3789 318.682 46.3185 318.432 46.2667C318.172 46.2235 317.497 46.1804 316.918 46.1804C316.347 46.1804 315.508 46.1372 315.067 46.0941C314.626 46.0423 313.821 45.8956 313.285 45.7575C312.749 45.6195 312.056 45.4728 311.754 45.4469C311.451 45.4123 311.01 45.3347 310.776 45.2656C310.543 45.1966 309.842 44.8773 309.211 44.5494C308.588 44.2214 307.939 43.928 307.775 43.8935C307.593 43.859 307.368 43.8849 307.169 43.9712C306.996 44.0402 306.745 44.2473 306.607 44.4285C306.469 44.6098 306.252 44.8687 306.123 45.0154C306.001 45.1535 305.664 45.4037 305.387 45.5677C305.111 45.723 304.566 46.0682 304.176 46.3271C303.787 46.586 303.164 46.9053 302.792 47.0434C302.42 47.1728 301.867 47.3799 301.555 47.5008C301.244 47.6216 300.742 47.7769 300.431 47.8546C300.119 47.9409 299.678 48.0617 299.436 48.1307C299.203 48.1998 298.787 48.312 298.528 48.381C298.268 48.4414 297.524 48.5967 296.884 48.7176C296.244 48.8384 295.388 48.9851 294.99 49.0369C294.419 49.1232 293.952 49.1232 292.706 49.0369C291.841 48.9764 291.072 48.8901 290.976 48.847C290.89 48.7952 290.743 48.6313 290.656 48.4845C290.561 48.3292 290.483 48.1135 290.483 47.9926C290.483 47.8718 290.561 47.6561 290.648 47.5094C290.734 47.3627 290.95 47.1556 291.115 47.052C291.288 46.9484 291.686 46.7758 292.014 46.6637C292.334 46.5515 292.853 46.3444 293.165 46.1977C293.476 46.0509 294.237 45.7058 294.852 45.4382C295.474 45.1707 296.244 44.86 296.573 44.7478C296.893 44.6357 297.429 44.394 297.749 44.2042C298.069 44.0229 298.588 43.7899 298.9 43.6864C299.263 43.5656 299.67 43.3412 300.007 43.065C300.301 42.832 300.786 42.5214 301.071 42.3833C301.365 42.2452 301.893 41.9086 302.247 41.6325C302.602 41.365 302.965 41.0802 303.043 41.0025C303.121 40.9335 303.406 40.7005 303.683 40.4847C303.96 40.269 304.384 39.8979 304.626 39.6563C304.955 39.337 305.102 39.1212 305.171 38.8278C305.232 38.6034 305.275 38.3273 305.275 38.2065C305.275 38.0857 305.214 37.8354 305.137 37.6455C305.059 37.4557 304.877 37.2054 304.73 37.0932C304.574 36.981 304.159 36.7567 303.804 36.6013C303.294 36.377 303.009 36.3079 302.464 36.2734C301.997 36.2561 301.443 36.2993 300.777 36.4201C299.972 36.5668 299.609 36.679 298.874 37.0415C298.372 37.2831 297.697 37.6196 297.36 37.7836C297.031 37.9562 296.737 38.1202 296.711 38.1547C296.685 38.1892 296.331 38.4136 295.924 38.6552C295.474 38.9227 294.817 39.4319 294.229 39.9842C293.701 40.4761 292.949 41.1406 292.568 41.4685C292.179 41.7878 291.72 42.2366 291.539 42.4437C291.366 42.6594 290.976 43.0996 290.674 43.4275C290.328 43.8072 290.008 44.2818 289.774 44.7565C289.575 45.1621 289.307 45.5936 289.169 45.7144C289.03 45.8266 288.831 45.9388 288.727 45.9646C288.624 45.9819 288.243 46.0768 287.888 46.1718C287.534 46.2581 286.928 46.422 286.548 46.5256C286.167 46.6205 285.406 46.8621 284.861 47.0434C284.316 47.2246 283.65 47.4145 283.39 47.4662C283.131 47.518 282.231 47.6129 281.401 47.6906C280.57 47.7683 279.541 47.8718 279.109 47.915C278.685 47.9668 278.114 48.0272 277.846 48.0531C277.534 48.0789 277.188 48.0531 276.877 47.9581C276.6 47.8805 276.081 47.8201 275.623 47.8201C274.931 47.8201 274.81 47.7942 274.611 47.6216C274.412 47.4576 274.394 47.3972 274.472 47.1987C274.515 47.0693 274.766 46.819 275.017 46.6291C275.268 46.4479 275.787 46.1545 276.168 45.9905C276.548 45.8266 277.154 45.5073 277.508 45.2829C277.863 45.0672 278.192 44.8859 278.244 44.8859C278.296 44.8859 278.598 44.6788 278.91 44.4285C279.23 44.1869 279.844 43.7727 280.294 43.5138C280.735 43.2549 281.41 42.8666 281.79 42.6508C282.171 42.4264 282.811 42.0295 283.217 41.7533C283.624 41.4858 284.186 41.0888 284.472 40.8817C284.757 40.666 285.25 40.338 285.562 40.1482C285.873 39.9583 286.305 39.5959 286.513 39.3456C286.729 39.0953 286.997 38.7501 287.119 38.5862C287.283 38.3359 287.326 38.1806 287.326 37.7059C287.326 37.214 287.292 37.1019 287.11 36.9034C286.989 36.7739 286.781 36.61 286.643 36.5409C286.504 36.4633 286.202 36.4028 285.985 36.4028C285.683 36.3942 285.406 36.4805 284.852 36.748C284.454 36.9465 283.806 37.2227 283.416 37.3694C283.036 37.5247 282.569 37.7663 282.378 37.9044C282.197 38.0511 281.825 38.3014 281.557 38.4567C281.288 38.6121 280.743 38.9918 280.346 39.3025C279.948 39.6045 279.299 40.0878 278.892 40.3725C278.451 40.6746 277.396 41.6239 276.254 42.7457C274.723 44.2473 274.161 44.7392 273.356 45.2743C272.811 45.6367 272.145 46.0337 271.886 46.1545C271.626 46.2753 271.09 46.4738 270.701 46.6119C270.312 46.7413 269.784 46.9743 269.533 47.1124C269.282 47.2591 268.668 47.5266 268.166 47.7165C267.665 47.8977 266.938 48.1135 266.557 48.1911C266.168 48.2688 265.381 48.5104 264.802 48.7176C264.231 48.9333 263.513 49.149 263.219 49.2008C262.916 49.244 262.345 49.3993 261.947 49.546C261.463 49.7272 260.857 49.8567 260.131 49.943C259.291 50.0465 258.971 50.0552 258.721 49.9861C258.487 49.9085 258.375 49.8222 258.34 49.6755C258.314 49.5546 258.314 49.3562 258.34 49.2181C258.375 49.0886 258.66 48.7348 258.989 48.4241C259.309 48.1135 259.637 47.751 259.724 47.6129C259.81 47.4749 260.044 47.1901 260.234 46.983C260.425 46.7758 260.874 46.3961 261.246 46.1459C261.61 45.887 261.964 45.6281 262.034 45.5591C262.103 45.49 262.388 45.2829 262.674 45.093C262.959 44.9032 263.348 44.6443 263.539 44.5235C263.729 44.4027 264.04 44.2128 264.231 44.1092C264.421 43.9971 265.009 43.626 265.528 43.2808C266.056 42.9442 266.713 42.5214 266.999 42.3488C267.284 42.1762 267.829 41.8914 268.21 41.7015C268.59 41.5203 269.04 41.2442 269.204 41.0975C269.369 40.9421 269.758 40.7005 270.069 40.5451C270.381 40.3984 270.848 40.0964 271.107 39.8806C271.367 39.6649 271.747 39.3801 271.946 39.2507C272.215 39.0867 272.336 38.9314 272.414 38.6811C272.491 38.4308 272.491 38.2755 272.414 38.0425C272.353 37.8785 272.206 37.6714 272.085 37.5938C271.92 37.4816 271.739 37.4557 271.393 37.4816C271.012 37.5161 270.831 37.5938 270.433 37.8785C270.165 38.077 269.646 38.3877 269.282 38.5776C268.919 38.7588 268.469 39.0263 268.279 39.1644C268.089 39.2938 267.587 39.5613 267.163 39.7426C266.739 39.9324 266.168 40.2517 265.9 40.4502C265.623 40.6487 265.277 40.8644 265.122 40.9335C264.966 40.9939 264.568 41.1837 264.231 41.3563C263.902 41.5289 263.392 41.7878 263.106 41.9345C262.821 42.0812 261.748 42.6077 260.719 43.1082C259.698 43.6087 258.824 44.0229 258.781 44.0229C258.738 44.0229 258.297 44.2214 257.795 44.4544C257.293 44.6961 256.627 45.024 256.316 45.188C256.004 45.3433 255.191 45.7575 254.499 46.0941C253.807 46.4393 253.02 46.7845 252.735 46.8794C252.458 46.9657 252.19 47.0434 252.155 47.0434C252.112 47.0434 251.852 47.1556 251.576 47.285C251.308 47.4145 250.693 47.7251 250.218 47.9668C249.742 48.217 249.24 48.4587 249.093 48.5104C248.955 48.5708 248.522 48.6658 248.142 48.7348C247.761 48.8038 247.285 48.8556 247.086 48.8556C246.827 48.8556 246.662 48.8038 246.541 48.683C246.446 48.5881 246.368 48.4587 246.368 48.3983C246.368 48.3465 246.446 48.1307 246.541 47.9236C246.637 47.7165 246.896 47.3109 247.121 47.0175C247.337 46.7241 247.64 46.3271 247.787 46.1372C247.934 45.9474 248.496 45.2915 249.041 44.6702C249.586 44.0575 250.598 42.9615 251.29 42.2538C251.982 41.5376 252.847 40.6056 253.211 40.1827C253.565 39.7512 254.093 39.2075 254.37 38.9745C254.646 38.7329 255.183 38.2324 255.572 37.8526C255.961 37.4729 256.472 36.9465 256.714 36.6876C256.947 36.4287 257.553 35.8505 258.046 35.4104C258.548 34.9703 259.093 34.5302 259.257 34.4353C259.421 34.3317 259.698 34.1246 259.862 33.9779C260.035 33.8312 260.304 33.6154 260.468 33.4946C260.632 33.3738 260.892 33.1667 261.047 33.0286C261.212 32.8905 261.402 32.6661 261.471 32.5367C261.532 32.4073 261.592 32.1656 261.592 32.0103C261.592 31.8549 261.515 31.5961 261.419 31.4407C261.324 31.2854 261.099 31.0955 260.935 31.0265C260.736 30.9402 260.52 30.9143 260.347 30.9575C260.2 30.9833 259.966 31.0955 259.819 31.1991C259.681 31.294 259.343 31.5788 259.075 31.8204C258.807 32.0621 258.323 32.4073 257.994 32.5885C257.665 32.7697 257.164 33.0717 256.887 33.253C256.61 33.4428 256.255 33.6499 256.108 33.7276C255.961 33.8053 255.823 33.8916 255.797 33.9261C255.771 33.952 255.581 34.0987 255.364 34.2454C255.148 34.3921 254.88 34.5388 254.768 34.5733C254.646 34.6078 254.11 34.884 253.565 35.186C253.02 35.4967 252.38 35.9109 252.129 36.1181C251.887 36.3252 251.359 36.6704 250.953 36.8775C250.546 37.0846 249.975 37.4125 249.699 37.6024C249.413 37.7922 248.911 38.1029 248.574 38.2841C248.245 38.4654 247.502 38.8969 246.931 39.2334C246.36 39.5786 245.408 40.1309 244.811 40.4675C244.215 40.7954 243.116 41.4426 242.363 41.8914C241.602 42.3488 240.72 42.8234 240.4 42.9442C240.071 43.0737 239.639 43.2894 239.431 43.4275C239.223 43.5742 238.748 43.8935 238.367 44.1438C237.987 44.4027 237.346 44.791 236.94 45.0154C236.533 45.2484 235.694 45.7748 235.063 46.189C234.431 46.6119 233.722 47.052 233.48 47.1728C233.238 47.2936 232.822 47.5353 232.563 47.6992C232.295 47.8718 231.776 48.148 231.413 48.312C231.049 48.4759 230.522 48.7348 230.236 48.8815C229.951 49.0196 229.501 49.2785 229.241 49.4511C228.982 49.6323 228.42 49.9602 227.987 50.1846C227.563 50.4176 226.992 50.7542 226.733 50.9268C226.465 51.0994 225.937 51.41 225.556 51.6085C225.176 51.7984 224.752 51.9624 224.631 51.9624C224.493 51.9624 224.397 51.9106 224.397 51.8502C224.397 51.7811 224.51 51.574 224.648 51.3928C224.787 51.2116 225.176 50.7801 225.513 50.4521C225.842 50.1156 226.525 49.4597 227.036 48.9851C227.537 48.5104 228.281 47.8114 228.67 47.4317C229.068 47.052 230.089 46.0768 230.928 45.2743C231.767 44.4631 233.125 43.1427 233.938 42.3315C234.76 41.5203 236.075 40.269 236.862 39.5527C237.649 38.8451 238.635 37.8958 239.042 37.4557C239.457 37.0069 240.019 36.4891 240.287 36.3079C240.564 36.1181 240.988 35.7383 241.222 35.4622C241.464 35.186 241.836 34.8236 242.061 34.6596C242.277 34.487 242.77 34.0124 243.142 33.5982C243.514 33.1839 244.111 32.4504 244.457 31.9585C244.803 31.4752 245.201 30.8194 245.339 30.5173C245.512 30.1635 245.607 29.827 245.607 29.5767C245.607 29.3696 245.538 29.0503 245.451 28.8777C245.374 28.7051 245.209 28.498 245.097 28.4289C244.976 28.3512 244.725 28.2908 244.526 28.2908C244.275 28.2908 243.981 28.3858 243.566 28.6015C243.237 28.7827 242.865 28.9208 242.744 28.9208C242.623 28.9208 242.363 28.964 242.173 29.0157C241.983 29.0675 241.516 29.2574 241.135 29.4386C240.755 29.6198 240.149 29.8701 239.794 29.9909C239.44 30.1204 238.817 30.3706 238.41 30.5518C238.004 30.7331 237.537 30.9143 237.372 30.9488C237.208 30.9833 236.819 31.1473 236.507 31.3113C236.196 31.4752 235.694 31.6996 235.383 31.8204C235.071 31.9412 234.163 32.4073 233.35 32.8646C232.546 33.322 231.707 33.7966 231.49 33.9261C231.274 34.0555 230.945 34.2454 230.755 34.3403C230.565 34.4439 230.011 34.6941 229.518 34.9099C229.025 35.1256 228.48 35.4018 228.307 35.5399C228.134 35.6693 227.676 35.9714 227.295 36.2044C226.915 36.4374 226.318 36.7739 225.963 36.9638C225.608 37.1536 225.141 37.4557 224.925 37.6283C224.709 37.8095 224.337 38.0684 224.095 38.1978C223.861 38.3359 223.446 38.6121 223.178 38.8192C222.91 39.0263 222.347 39.3715 221.932 39.5872C221.508 39.7944 221.136 39.9669 221.093 39.9669C221.058 39.9669 221.024 39.9324 221.024 39.8979C221.024 39.8548 221.11 39.7253 221.206 39.6131C221.309 39.5009 221.526 39.1299 221.681 38.7847C221.854 38.4222 222.244 37.8526 222.615 37.4125C222.97 36.9983 223.368 36.4633 223.515 36.2216C223.653 35.98 223.939 35.4967 224.147 35.1515C224.354 34.8063 224.631 34.3231 224.752 34.0814C224.882 33.8398 225.02 33.3824 225.072 33.0717C225.124 32.7611 225.193 32.0275 225.228 31.4493C225.28 30.4828 225.271 30.3534 225.089 29.8528C224.986 29.5508 224.743 29.1193 224.562 28.8863C224.371 28.6533 224.008 28.2736 223.74 28.0406C223.472 27.8076 223.109 27.5487 222.927 27.4538C222.745 27.3588 222.339 27.1862 222.019 27.0654C221.699 26.9446 221.327 26.8497 221.188 26.8497C221.05 26.8497 220.635 26.9187 220.263 27.0136C219.899 27.0999 219.147 27.238 218.602 27.3243C217.901 27.4279 217.356 27.5659 216.751 27.8076C216.18 28.0406 215.791 28.1441 215.583 28.1269C215.367 28.1096 215.263 28.0578 215.246 27.9457C215.228 27.8594 215.237 27.6954 215.263 27.5832C215.289 27.4796 215.54 27.1344 215.808 26.8324C216.085 26.5217 216.621 25.8486 217.002 25.3395C217.486 24.6836 217.754 24.209 217.919 23.7516C218.048 23.3891 218.29 22.8196 218.463 22.483C218.628 22.1464 218.844 21.5251 218.939 21.1022C219.034 20.6794 219.173 20.1616 219.251 19.9545C219.32 19.7474 219.38 19.4626 219.38 19.3159C219.38 19.1692 219.32 18.7031 219.242 18.2717C219.164 17.8402 219.008 17.1757 218.896 16.796C218.775 16.4163 218.541 15.8208 218.386 15.4756C218.178 15.0441 217.927 14.6903 217.598 14.3624C217.33 14.1035 216.915 13.8014 216.664 13.6892C216.422 13.577 215.972 13.3958 215.661 13.2923C215.349 13.1887 214.805 12.9643 214.45 12.8004C213.87 12.5328 213.663 12.4897 212.504 12.3861C211.794 12.3171 210.912 12.2308 210.557 12.1877C210.203 12.1359 208.914 12.1186 207.703 12.1445C206.492 12.1704 205.073 12.2481 204.546 12.3171C204.027 12.3775 203.265 12.4552 202.859 12.4897C202.452 12.5156 201.691 12.6105 201.163 12.7054C200.627 12.7917 199.927 12.9039 199.606 12.9557C199.278 13.0075 198.309 13.0852 197.453 13.1283C196.596 13.1715 195.394 13.2836 194.771 13.3786C194.157 13.4735 193.223 13.5857 192.712 13.6375C192.193 13.6892 191.744 13.7496 191.7 13.7755C191.657 13.8014 191.242 13.8618 190.766 13.905C190.299 13.9481 189.624 14.0603 189.27 14.1553C188.915 14.2502 188.007 14.4055 187.246 14.5091C186.484 14.604 185.533 14.7334 185.126 14.8025C184.72 14.8715 183.63 15.07 182.704 15.2426C181.779 15.4152 180.672 15.6309 180.239 15.7172C179.815 15.7949 179.21 15.9244 178.898 16.002C178.587 16.0711 178.016 16.1746 177.618 16.2264C177.229 16.2782 176.719 16.399 176.494 16.4939C176.269 16.5975 175.793 16.7528 175.438 16.8477C175.084 16.9427 174.496 17.098 174.141 17.1843C173.786 17.2706 172.964 17.4432 172.324 17.5726C171.684 17.7021 170.785 17.9351 170.335 18.0991C169.885 18.2544 169.28 18.4529 168.994 18.5219C168.709 18.5996 167.792 18.8326 166.961 19.0483C166.131 19.2555 164.885 19.6265 164.193 19.8682C163.501 20.1098 162.455 20.4636 161.858 20.6535C161.261 20.8433 160.387 21.1367 159.912 21.3007C159.436 21.4647 158.891 21.6632 158.701 21.7322C158.51 21.8012 158.061 21.9393 157.697 22.0256C157.334 22.1205 156.417 22.4485 155.664 22.7591C154.912 23.0698 153.978 23.4236 153.597 23.5445C153.217 23.6566 152.637 23.8896 152.3 24.045C151.971 24.2003 151.322 24.4333 150.872 24.5628C150.423 24.6922 149.86 24.8821 149.618 24.9856C149.385 25.0892 148.952 25.2532 148.675 25.3395C148.39 25.4258 147.862 25.6415 147.508 25.8227C147.144 25.9953 146.279 26.3405 145.579 26.5735C144.887 26.8151 143.814 27.238 143.2 27.5228C142.594 27.8076 141.885 28.0837 141.643 28.1528C141.392 28.2132 141.158 28.2304 141.124 28.1959C141.089 28.1614 141.167 27.9284 141.297 27.6868C141.427 27.4365 141.963 26.7289 142.491 26.1161C143.018 25.4948 143.658 24.6836 143.909 24.3039C144.16 23.9242 144.575 23.3201 144.817 22.9663C145.06 22.6124 145.648 21.5423 146.124 20.5931C146.591 19.6438 147.032 18.6859 147.101 18.4615C147.17 18.2371 147.274 17.5122 147.335 16.8564C147.421 15.8898 147.421 15.5446 147.335 15.1045C147.265 14.7766 146.997 14.1035 146.668 13.4303C146.271 12.6191 145.916 12.0582 145.388 11.4023C144.99 10.9018 144.307 10.151 143.857 9.72816C143.269 9.16723 142.906 8.89108 142.491 8.70985C142.179 8.57178 141.842 8.41644 141.747 8.36466C141.651 8.31288 141.202 8.07988 140.752 7.85551C140.302 7.63113 139.697 7.3895 139.411 7.32046C139.126 7.24279 138.659 7.15649 138.373 7.12197C138.088 7.08746 137.465 6.93211 136.989 6.76815C136.176 6.48337 136.02 6.46611 134.524 6.39707C133.642 6.35392 132.578 6.29351 132.145 6.259C131.721 6.2331 131.341 6.2331 131.315 6.259ZM133.659 7.90728C134.394 7.97632 135.406 8.10577 135.908 8.20069C136.41 8.28699 137.43 8.52 138.183 8.71848C138.935 8.90834 139.947 9.23627 140.432 9.44338C140.916 9.6505 141.574 9.98706 141.876 10.1942C142.188 10.4013 142.75 10.8846 143.131 11.2643C143.52 11.6526 144.048 12.2912 144.307 12.6968C144.575 13.1024 144.938 13.7755 145.111 14.207C145.293 14.6299 145.475 15.139 145.527 15.3289C145.57 15.5274 145.587 16.0624 145.553 16.5802C145.518 17.0807 145.44 17.7452 145.38 18.0645C145.31 18.4184 145.094 18.9534 144.809 19.4885C144.558 19.9545 144.16 20.7053 143.935 21.154C143.702 21.6028 143.433 22.1119 143.338 22.2759C143.234 22.4398 143.01 22.7937 142.845 23.0526C142.681 23.3115 142.188 23.9932 141.764 24.5628C141.331 25.1323 140.518 26.1593 139.947 26.8497C139.377 27.54 138.78 28.2132 138.624 28.3599C138.477 28.498 138.174 28.8345 137.967 29.0934C137.75 29.3523 137.197 29.9564 136.721 30.4397C136.202 30.9575 135.571 31.5011 135.129 31.7859C134.723 32.0448 134.022 32.4677 133.572 32.7179C133.123 32.9768 132.552 33.3134 132.301 33.4687C132.05 33.6241 131.825 33.7535 131.799 33.7535C131.773 33.7535 131.548 33.9175 131.297 34.1073C131.047 34.3058 130.649 34.5906 130.415 34.7459C130.173 34.8926 129.749 35.2292 129.464 35.4881C129.178 35.747 128.754 36.1008 128.512 36.2734C128.279 36.446 127.751 36.9293 127.344 37.3435C126.938 37.7663 126.488 38.2237 126.35 38.3704C126.203 38.5085 125.969 38.7847 125.831 38.9659C125.684 39.1471 125.467 39.4837 125.338 39.6994C125.208 39.9152 124.992 40.3294 124.853 40.6142C124.706 40.899 124.533 41.27 124.464 41.4426C124.395 41.6152 124.135 41.9863 123.902 42.2711C123.659 42.5559 123.201 42.9874 122.872 43.229C122.552 43.462 122.033 43.9021 121.731 44.1955C121.419 44.489 120.952 44.8773 120.693 45.0585C120.424 45.2397 120.113 45.49 119.992 45.6195C119.871 45.7489 119.603 45.9733 119.386 46.12C119.17 46.2667 118.729 46.6033 118.4 46.8621C118.072 47.1297 117.483 47.6388 117.103 47.9926C116.714 48.3551 116.186 48.8125 115.926 49.0196C115.667 49.2181 115.217 49.5805 114.932 49.8222C114.646 50.0638 114.058 50.5471 113.617 50.8923C113.176 51.2461 112.717 51.6689 112.587 51.8329C112.466 51.9969 112.103 52.3075 111.783 52.5147C111.454 52.7218 111.022 53.0497 110.797 53.2396C110.581 53.4294 110.304 53.602 110.174 53.6365C110.027 53.6711 109.863 53.6452 109.698 53.5502C109.56 53.4639 109.387 53.2482 109.3 53.067C109.205 52.8426 109.024 52.6527 108.79 52.5147C108.505 52.3507 108.306 52.3075 107.873 52.3075C107.57 52.3075 107.129 52.3593 106.887 52.4284C106.654 52.4974 106.161 52.67 105.806 52.8081C105.451 52.9548 104.924 53.1619 104.638 53.2654C104.24 53.4122 103.989 53.5934 103.557 54.0249C103.245 54.3442 102.787 54.8965 102.545 55.2676C102.294 55.63 102.009 56.096 101.905 56.2945C101.74 56.6224 101.723 56.7605 101.766 57.494C101.801 58.1672 101.861 58.4347 102.078 58.9352C102.225 59.2718 102.346 59.6083 102.346 59.686C102.346 59.7637 102.303 59.9018 102.259 59.9967C102.207 60.083 101.861 60.3764 101.481 60.6353C101.109 60.9028 100.616 61.2825 100.382 61.4896C100.157 61.6968 99.846 61.9384 99.6903 62.0333C99.5433 62.1196 99.154 62.3958 98.8253 62.646C98.5053 62.8963 97.9257 63.3105 97.5451 63.5694C97.1645 63.8283 96.386 64.3202 95.8151 64.6568C95.2442 65.002 94.509 65.4421 94.1716 65.6492C93.8429 65.8477 93.3326 66.1238 93.0471 66.2705C92.7617 66.4086 92.3897 66.564 92.2254 66.6157C92.061 66.6675 91.6545 66.7883 91.3171 66.9005C90.9884 67.0041 90.677 67.1163 90.6251 67.1508C90.5819 67.1939 90.1148 67.3665 89.5871 67.5477L88.6356 67.8671L86.6461 67.9361C85.4611 67.9706 84.5096 67.9706 84.2847 67.9188C84.0771 67.8757 83.61 67.6686 83.2467 67.4615C82.8834 67.2543 82.5028 66.9782 82.4076 66.8574C82.2692 66.6675 82.226 66.4604 82.2087 65.8736C82.1827 65.2004 82.2 65.0883 82.4076 64.7344C82.5287 64.5187 82.6931 64.208 82.7709 64.0441C82.8488 63.8801 82.9353 63.44 82.9699 63.0775C83.0131 62.5597 83.0823 62.3267 83.264 62.0506C83.3937 61.8607 83.7657 61.412 84.0944 61.0581C84.4231 60.7043 84.8123 60.1865 84.9594 59.9104C85.1151 59.6256 85.4178 59.2027 85.6427 58.9697C85.859 58.7367 86.3174 58.3743 86.6461 58.1758C86.9835 57.9773 87.3727 57.7098 87.5284 57.5803C87.6755 57.4595 87.9869 57.2438 88.2204 57.0971C88.4453 56.959 88.9124 56.6483 89.2411 56.4153C89.5785 56.1737 90.0629 55.8026 90.3224 55.5782C90.5905 55.3539 91.1355 54.9569 91.5334 54.6894C91.9399 54.4218 92.5195 54.0162 92.8222 53.7746C93.125 53.5416 93.5661 53.1792 93.8083 52.9807C94.0419 52.7736 94.5176 52.3938 94.8636 52.1349C95.201 51.8761 95.7113 51.4877 95.9881 51.272C96.2736 51.0562 96.732 50.6679 97.0261 50.4004C97.3116 50.1328 97.7441 49.7876 97.9776 49.6409C98.2198 49.4942 98.5918 49.1318 98.8253 48.8297C99.0589 48.5277 99.2924 48.0962 99.3703 47.8373C99.5 47.4058 99.5 47.3454 99.3616 46.983C99.2405 46.6723 99.1108 46.5256 98.6869 46.2581C98.4015 46.0682 98.0122 45.8784 97.8133 45.8266C97.623 45.7748 97.3116 45.7575 97.1213 45.7834C96.931 45.8179 96.4898 45.956 96.1438 46.0941C95.7978 46.2322 95.2529 46.5428 94.9328 46.7845C94.6214 47.0175 94.3187 47.216 94.2668 47.216C94.2149 47.216 94.0159 47.2936 93.8256 47.3972C93.6353 47.5008 93.3239 47.7251 93.1336 47.8977C92.9433 48.0789 92.6925 48.2861 92.58 48.3637C92.4589 48.4414 91.9659 48.8643 91.4642 49.3044C90.9711 49.7445 90.0715 50.642 89.466 51.3065C88.8692 51.9624 88.1512 52.7563 87.8658 53.0756C87.589 53.3863 87.2343 53.7832 87.0873 53.9472C86.9402 54.1112 86.6721 54.4477 86.4991 54.6894C86.3261 54.9396 86.1185 55.2676 86.032 55.4229C85.9541 55.5869 85.6946 55.9062 85.4697 56.1478C85.2448 56.3808 84.9421 56.7346 84.8037 56.9331C84.6566 57.1316 84.3279 57.4768 84.0598 57.7012C83.7916 57.9342 83.3332 58.2535 83.0391 58.4174C82.7363 58.5728 81.8886 59.0215 81.1534 59.4099C80.4181 59.7896 79.3628 60.3246 78.8179 60.5921C78.2729 60.8683 77.2782 61.3516 76.6121 61.6709C75.9461 61.9902 75.0292 62.4044 74.5794 62.5942C74.1296 62.7841 73.4116 63.1034 72.9791 63.3105C72.5553 63.5263 71.9325 63.7938 71.5951 63.9146C71.2664 64.0441 70.7561 64.2339 70.4706 64.3461C70.1852 64.4583 69.6575 64.6309 69.3029 64.7344C68.9482 64.8466 68.36 65.0624 67.9967 65.2177C67.6334 65.3817 66.8722 65.6319 66.31 65.7786C65.7391 65.9254 65.1682 66.0807 65.0211 66.1152C64.8827 66.1584 64.4935 66.2619 64.1561 66.3568C63.8274 66.4518 63.2825 66.5726 62.9451 66.6244C62.6164 66.6761 61.9677 66.8228 61.5179 66.9523L60.6961 67.1853L58.0752 67.1767C55.8694 67.1594 55.3764 67.1335 55.0044 67.0127C54.7536 66.935 54.52 66.8401 54.4681 66.8056C54.4249 66.7711 54.1308 66.6589 53.8194 66.5467C53.508 66.4345 53.1187 66.2878 52.9544 66.2188C52.79 66.1497 52.4786 66.0116 52.271 65.9167C52.0634 65.8218 51.6223 65.5197 51.2763 65.2522C50.9389 64.9847 50.567 64.5964 50.4459 64.3979C50.3248 64.1994 50.1345 63.8887 50.022 63.7161C49.9096 63.5435 49.6501 63.043 49.4511 62.6201C49.2522 62.1887 49.0273 61.645 48.9494 61.412C48.8716 61.1703 48.7851 60.8079 48.7591 60.5835C48.7245 60.3678 48.7418 59.5566 48.7937 58.7713C48.8629 57.7443 48.9581 57.0798 49.1397 56.3635C49.2695 55.8199 49.4338 55.1381 49.503 54.8533C49.5636 54.5686 49.7366 54.0249 49.8836 53.6452C50.0393 53.2654 50.2123 52.739 50.2729 52.4801C50.3334 52.2212 50.4459 51.8329 50.5151 51.6172C50.5929 51.4014 50.8265 50.9181 51.0427 50.5384C51.2503 50.1587 51.6396 49.4338 51.8904 48.916C52.1413 48.4069 52.4267 47.8977 52.5219 47.7942C52.617 47.682 52.8852 47.3627 53.1101 47.0693C53.335 46.7845 53.8194 46.1718 54.1827 45.723C54.5546 45.2656 54.892 44.8687 54.9439 44.8428C54.9958 44.8169 55.2466 44.489 55.5148 44.1265C55.7829 43.7641 56.103 43.3498 56.2327 43.2204C56.3538 43.0909 56.6306 42.7198 56.8469 42.4005C57.0631 42.0812 57.461 41.6411 57.7378 41.4254C58.0146 41.201 58.4644 40.7264 58.7412 40.3639C59.018 40.0015 59.5976 39.3888 60.0128 39.0004C60.4366 38.6207 60.921 38.2065 61.0854 38.077C61.2497 37.9562 61.7428 37.5247 62.1666 37.1191C62.5991 36.7135 63.2565 36.144 63.6371 35.8419C64.0177 35.5399 64.554 35.117 64.8308 34.9013C65.1076 34.6769 65.4017 34.4094 65.4709 34.2972C65.5488 34.185 65.8688 33.9088 66.1802 33.6845C66.4916 33.4687 67.002 33.0545 67.322 32.7611C67.6334 32.4677 68.0227 32.1829 68.187 32.1138C68.3427 32.0534 68.6368 31.8808 68.8271 31.7341C69.0174 31.5961 69.3115 31.3544 69.4759 31.2077C69.6402 31.0524 69.9949 30.8021 70.2544 30.6468C70.5139 30.4914 71.0415 30.1376 71.4221 29.8615C71.8027 29.5853 72.4515 29.1107 72.8667 28.8173C73.2819 28.5152 73.8614 28.1441 74.1469 27.9802C74.4323 27.8162 74.7351 27.6264 74.8129 27.5487C74.8994 27.471 75.1503 27.2639 75.3665 27.0913C75.5828 26.9101 75.9115 26.703 76.1018 26.6253C76.2834 26.5476 76.8111 26.2456 77.2609 25.9522C77.7107 25.6501 78.4113 25.2445 78.8179 25.046C79.2244 24.8389 79.6137 24.6232 79.6829 24.5628C79.7521 24.5024 80.0981 24.3039 80.4527 24.1227C80.8074 23.9501 81.3177 23.648 81.5772 23.4582C81.8454 23.2769 82.4163 22.9576 82.8401 22.7505C83.2726 22.5434 83.8349 22.2586 84.0944 22.1205C84.3539 21.9738 84.8642 21.7149 85.2189 21.5423C85.5735 21.3698 85.9282 21.1713 85.9974 21.1109C86.0666 21.0504 86.4991 20.8002 86.9489 20.5499C87.3987 20.2997 88.627 19.6611 89.6736 19.1346C90.7203 18.5996 92.0091 18.0041 92.5281 17.797C93.0558 17.5899 93.7737 17.2533 94.137 17.0462C94.5003 16.8391 94.8204 16.6665 94.8463 16.6665C94.8809 16.6665 95.6508 16.3731 96.5677 16.0193C97.4846 15.6568 98.4966 15.2512 98.808 15.1132C99.1194 14.9837 99.6211 14.8197 99.9325 14.768C100.235 14.7076 100.702 14.604 100.962 14.535C101.221 14.4659 101.611 14.3278 101.827 14.2329C102.043 14.138 102.277 14.0085 102.346 13.9481C102.415 13.8877 102.83 13.6806 103.254 13.4908C103.687 13.3095 104.327 13.0852 104.681 13.0075C105.036 12.9212 105.797 12.6882 106.368 12.4811C106.939 12.274 107.778 11.9892 108.228 11.8511C108.678 11.7044 109.318 11.5404 109.646 11.4886C109.975 11.4369 110.442 11.316 110.684 11.2125C110.927 11.1176 111.333 10.9622 111.593 10.8759C111.852 10.7896 112.155 10.712 112.267 10.712C112.389 10.712 112.76 10.5998 113.098 10.4617C113.444 10.3323 113.997 10.1683 114.326 10.1165C114.663 10.0561 115.226 9.91802 115.58 9.80583C115.935 9.69365 116.618 9.53831 117.094 9.46064C117.57 9.39161 118.193 9.27079 118.478 9.20175C118.764 9.14134 119.49 8.96011 120.087 8.82204C120.684 8.67533 121.488 8.52 121.86 8.47684C122.232 8.42507 123.305 8.3474 124.23 8.30425C125.156 8.25247 126.306 8.16618 126.782 8.12302C127.258 8.07125 128.46 7.99358 129.455 7.95043C130.45 7.89865 131.289 7.84687 131.306 7.82098C131.332 7.7951 131.566 7.77783 131.834 7.77783C132.102 7.77783 132.924 7.83824 133.659 7.90728ZM207.772 33.1494C207.729 33.2961 207.409 33.7104 207.071 34.0728C206.725 34.4353 206.059 35.0566 205.584 35.4622C205.108 35.8678 204.528 36.4028 204.286 36.6445C204.053 36.8861 203.715 37.2399 203.551 37.4298C203.387 37.611 202.859 38.1288 202.383 38.5776C201.907 39.0263 201.06 39.872 200.497 40.4675C199.935 41.0629 199.33 41.6584 199.157 41.7965C198.984 41.9345 198.456 42.4178 197.98 42.8752C197.513 43.3239 196.899 43.8417 196.614 44.0229C196.337 44.2042 195.939 44.5235 195.74 44.722C195.541 44.9204 195.178 45.2139 194.927 45.3692C194.685 45.5332 194.252 45.8697 193.975 46.12C193.699 46.3789 193.162 46.8017 192.782 47.0693C192.401 47.3368 191.917 47.6906 191.7 47.8632C191.484 48.0272 191.121 48.2947 190.879 48.45C190.645 48.614 190.29 48.847 190.1 48.9678C189.91 49.0973 189.408 49.4511 188.976 49.7618C188.552 50.0638 187.929 50.478 187.592 50.6765C187.263 50.875 186.718 51.2374 186.381 51.4877C186.052 51.738 185.637 52.0055 185.472 52.0918C185.308 52.1781 185.031 52.3507 184.867 52.4715C184.703 52.5923 184.391 52.834 184.175 53.0152C183.959 53.1878 183.301 53.5848 182.704 53.8868C182.108 54.1888 181.355 54.5427 181.018 54.6807C180.689 54.8102 180.222 55.0087 179.997 55.1295C179.763 55.2417 179.4 55.466 179.175 55.6214C178.95 55.7767 178.388 56.1046 177.912 56.3549C177.307 56.6742 176.987 56.795 176.788 56.7778C176.563 56.7605 176.511 56.7087 176.494 56.5103C176.476 56.3549 176.546 56.1478 176.675 55.9493C176.796 55.7681 177.151 55.3366 177.462 54.9828C177.774 54.629 178.379 53.8868 178.803 53.3345C179.236 52.7822 179.686 52.2385 179.824 52.1349C179.954 52.0314 180.403 51.6258 180.827 51.2288C181.243 50.8319 181.865 50.2795 182.211 50.012C182.549 49.7359 183.206 49.1663 183.656 48.7262C184.106 48.2947 184.703 47.7855 184.979 47.6043C185.256 47.4231 185.637 47.0779 185.818 46.8363C185.991 46.586 186.277 46.2667 186.45 46.12C186.623 45.9733 187.003 45.7058 187.306 45.5332C187.609 45.3606 188.145 44.9291 188.5 44.5839C188.863 44.2387 189.374 43.8417 189.668 43.695C189.953 43.5483 190.386 43.2549 190.619 43.0392C190.861 42.8148 191.259 42.5214 191.51 42.3833C191.761 42.2366 192.263 41.8482 192.617 41.5203C192.972 41.1924 193.543 40.7609 193.889 40.5624C194.235 40.3639 194.78 40.0274 195.1 39.8116C195.42 39.6045 195.93 39.3283 196.224 39.2162C196.518 39.0953 196.899 38.8969 197.063 38.776C197.228 38.6552 197.626 38.3273 197.937 38.0511C198.37 37.6714 198.646 37.5075 199.07 37.378C199.373 37.2831 199.831 37.0501 200.091 36.8602C200.35 36.6617 200.965 36.3165 201.458 36.0835C201.942 35.8505 202.565 35.5226 202.842 35.3586C203.118 35.1947 203.655 34.8926 204.035 34.6941C204.407 34.4957 205.281 34.0469 205.964 33.6931C206.648 33.3479 207.288 33.0631 207.374 33.0631C207.461 33.0631 207.53 33.02 207.53 32.9768C207.53 32.925 207.608 32.8905 207.694 32.8905C207.85 32.8905 207.859 32.9164 207.772 33.1494ZM303.078 38.077C303.147 38.1288 303.199 38.2841 303.199 38.4136C303.199 38.5689 303.078 38.7933 302.887 39.0263C302.714 39.2334 302.351 39.5613 302.083 39.7598C301.815 39.9497 301.244 40.338 300.82 40.6142C300.388 40.8903 299.903 41.2269 299.739 41.3563C299.575 41.4858 299.203 41.7102 298.917 41.8482C298.632 41.9949 298.009 42.2884 297.533 42.5127C297.057 42.7285 296.262 43.0996 295.76 43.3326C295.258 43.5656 294.402 43.9539 293.857 44.2042C293.312 44.4458 292.758 44.6616 292.637 44.6874C292.507 44.7133 292.378 44.6788 292.309 44.6011C292.222 44.489 292.231 44.4199 292.326 44.2214C292.395 44.092 292.741 43.7036 293.096 43.3757C293.45 43.0392 294.177 42.4178 294.713 41.9949C295.258 41.5635 295.855 41.0629 296.054 40.8817C296.244 40.6918 296.668 40.3725 296.997 40.1654C297.317 39.9497 297.845 39.6649 298.165 39.5182C298.485 39.3715 299.038 39.0781 299.393 38.8796C299.86 38.6121 300.37 38.4222 301.209 38.2065C301.884 38.0252 302.498 37.9131 302.663 37.9389C302.827 37.9562 303.009 38.0166 303.078 38.077ZM221.084 40.105C221.058 40.1309 220.981 40.1395 220.92 40.1137C220.851 40.0878 220.877 40.0619 220.972 40.0619C221.067 40.0532 221.119 40.0791 221.084 40.105ZM124.741 44.558C124.827 44.7651 124.922 45.0413 124.957 45.1793C124.992 45.3174 125.13 45.5936 125.268 45.7921C125.398 45.9819 125.952 46.5946 126.497 47.1383C127.033 47.6906 127.708 48.3033 127.993 48.4932C128.279 48.6917 128.824 49.1059 129.204 49.4252C129.585 49.7359 130.017 50.0465 130.156 50.1242C130.303 50.2019 130.692 50.4694 131.029 50.7283C131.479 51.0649 131.834 51.2461 132.327 51.4014C132.733 51.5309 133.399 51.8502 133.962 52.1867C134.489 52.4974 135.129 52.8599 135.389 52.9893C135.648 53.1274 136.081 53.3 136.34 53.3863C136.6 53.4726 136.92 53.5934 137.041 53.6538C137.171 53.7142 137.292 53.835 137.326 53.9127C137.352 53.9904 137.301 54.1629 137.197 54.3097C137.093 54.4477 136.816 54.6462 136.565 54.7584C136.323 54.862 136.012 54.9828 135.865 55.0173C135.726 55.0518 135.294 55.2848 134.913 55.5351C134.533 55.7853 134.065 56.0874 133.875 56.1996C133.685 56.3031 132.751 56.9159 131.799 57.5458C130.848 58.1758 129.801 58.8834 129.464 59.1164C129.135 59.3408 128.313 59.8327 127.647 60.2038C126.981 60.5662 126.306 60.9632 126.151 61.084C126.004 61.1962 125.433 61.5069 124.896 61.7744C124.369 62.0419 123.461 62.5166 122.89 62.8273C122.319 63.1466 121.246 63.6989 120.511 64.0613C119.776 64.4324 118.815 64.8466 118.392 64.9847C117.959 65.1314 117.034 65.3385 116.333 65.468C115.425 65.6233 114.741 65.6837 113.997 65.6837C113.158 65.6837 112.873 65.6492 112.587 65.5197C112.397 65.4335 112.155 65.2522 112.051 65.1228C111.913 64.9588 111.861 64.7603 111.861 64.4755C111.861 64.2598 111.921 63.8628 111.999 63.6039C112.086 63.3364 112.389 62.7755 112.735 62.2749C113.063 61.8003 113.556 61.2135 113.833 60.9719C114.101 60.7302 114.551 60.3591 114.819 60.1348C115.087 59.919 115.442 59.686 115.598 59.617C115.753 59.5479 116.022 59.4703 116.195 59.4357C116.359 59.4099 116.696 59.2632 116.93 59.1078C117.163 58.9611 117.63 58.7195 117.959 58.5641C118.296 58.4088 118.79 58.2017 119.066 58.0895C119.343 57.9773 119.62 57.8479 119.672 57.7875C119.732 57.7357 119.975 57.5458 120.217 57.3819C120.459 57.2093 120.814 56.9935 121.004 56.89C121.194 56.795 121.471 56.6138 121.627 56.493C121.817 56.329 121.895 56.1909 121.895 56.0011C121.895 55.863 121.852 55.6645 121.8 55.561C121.748 55.4574 121.601 55.2589 121.471 55.1295C121.35 54.9914 121.142 54.8274 121.013 54.7584C120.883 54.6894 120.563 54.6376 120.303 54.6376C120.035 54.6376 119.577 54.7239 119.283 54.8188C118.98 54.9224 118.288 55.2417 117.743 55.5178C117.198 55.8026 116.454 56.1909 116.091 56.3894C115.727 56.5879 115.139 57.0194 114.793 57.3387C114.439 57.6666 113.92 58.0981 113.634 58.2966C113.349 58.5037 112.994 58.7281 112.847 58.8058C112.7 58.8834 112.216 59.0043 111.766 59.0819C111.316 59.1596 110.667 59.2632 110.33 59.2977C109.984 59.3408 109.577 59.4099 109.422 59.4616C109.266 59.5134 108.756 59.6342 108.28 59.7292C107.813 59.8241 107.242 59.9018 107.008 59.9018C106.697 59.9018 106.541 59.8586 106.403 59.7205C106.282 59.5997 106.247 59.4875 106.29 59.3581C106.316 59.2545 106.394 59.0819 106.463 58.9697C106.532 58.8662 106.671 58.7281 106.766 58.6677C106.861 58.6159 107.095 58.3657 107.276 58.1154C107.467 57.8651 107.925 57.4423 108.288 57.1575C108.66 56.8813 109.084 56.5793 109.231 56.4844C109.378 56.3981 109.854 56.0529 110.295 55.7249C110.728 55.397 111.082 55.095 111.082 55.0604C111.082 55.0173 111.446 54.7153 111.887 54.3873C112.319 54.0594 112.778 53.6883 112.899 53.5589C113.02 53.4294 113.409 53.1101 113.764 52.8426C114.119 52.5751 114.767 52.04 115.191 51.6603C115.624 51.2806 116.203 50.7801 116.489 50.5557C116.774 50.3313 117.137 49.9948 117.293 49.8049C117.449 49.6151 117.803 49.313 118.072 49.1232C118.34 48.9419 118.642 48.7003 118.738 48.5967C118.833 48.4932 119.127 48.2602 119.386 48.0789C119.646 47.8977 119.983 47.6302 120.122 47.4749C120.269 47.3195 120.606 47.0434 120.883 46.8535C121.168 46.6637 121.834 46.1027 122.371 45.6195C122.916 45.1276 123.521 44.6011 123.72 44.4631C123.928 44.3077 124.196 44.1955 124.334 44.1955C124.542 44.1955 124.602 44.2473 124.741 44.558ZM96.5158 48.2947C96.5504 48.3724 96.5244 48.545 96.4639 48.683C96.4033 48.8211 96.2563 49.0023 96.1265 49.08C96.0054 49.1663 95.6508 49.4425 95.3394 49.71C95.0366 49.9775 94.6301 50.3313 94.4484 50.4867C94.2668 50.6506 93.9208 50.944 93.6699 51.1253C93.4191 51.3065 93.0212 51.6431 92.779 51.8674C92.5368 52.0832 92.1821 52.3852 92.0005 52.5319C91.8102 52.6786 91.4209 52.9289 91.1441 53.0756C90.8587 53.2223 90.4348 53.4812 90.2013 53.6452C89.9764 53.8091 89.7515 53.9472 89.7082 53.9472C89.665 53.9472 89.6304 53.9041 89.6304 53.8436C89.6304 53.7919 89.812 53.5416 90.0456 53.3C90.2705 53.0497 90.703 52.5492 91.0144 52.1867C91.3258 51.8243 91.8188 51.3324 92.1216 51.0907C92.4157 50.8491 92.7703 50.5212 92.9001 50.3658C93.0298 50.2105 93.5229 49.8222 93.9986 49.5029C94.4744 49.1749 95.0366 48.7693 95.2529 48.5881C95.4691 48.4155 95.7027 48.2515 95.7719 48.2257C95.8411 48.1998 96.0314 48.1739 96.1871 48.1739C96.3601 48.1652 96.4898 48.217 96.5158 48.2947ZM107.458 54.4564C107.596 54.5686 107.657 54.7066 107.657 54.9224C107.657 55.1899 107.57 55.328 107.103 55.8285C106.792 56.1651 106.169 56.8209 105.719 57.3042C105.27 57.7875 104.777 58.2621 104.629 58.3484C104.482 58.4433 104.258 58.521 104.128 58.521C104.007 58.521 103.825 58.4433 103.739 58.357C103.643 58.2621 103.54 58.0464 103.505 57.8738C103.47 57.6666 103.496 57.4423 103.591 57.1834C103.687 56.9417 103.989 56.562 104.448 56.0874C104.846 55.6991 105.373 55.1985 105.624 54.9828C105.884 54.767 106.212 54.5254 106.359 54.4477C106.507 54.3701 106.766 54.301 106.939 54.2924C107.129 54.2924 107.337 54.3614 107.458 54.4564ZM142.413 55.7336C142.966 56.0356 143.563 56.329 143.753 56.3808C143.935 56.424 144.186 56.5448 144.324 56.6397C144.454 56.7346 144.601 56.8813 144.653 56.9849C144.705 57.0798 144.722 57.2524 144.696 57.3646C144.662 57.5027 144.428 57.7098 144.022 57.9687C143.684 58.1844 143.312 58.4865 143.191 58.6332C143.061 58.7885 142.802 59.0647 142.612 59.2545C142.421 59.4444 142.032 59.7378 141.755 59.9018C141.478 60.0657 140.968 60.4195 140.622 60.6871C140.276 60.9632 139.766 61.2998 139.489 61.4379C139.204 61.5759 138.728 61.7831 138.425 61.8952C138.122 61.9988 137.621 62.2577 137.309 62.4648C136.998 62.6719 136.669 62.8359 136.591 62.8359C136.513 62.8359 136.159 63.043 135.813 63.2933C135.458 63.5435 134.956 63.8456 134.697 63.9491C134.437 64.0613 134.039 64.2598 133.815 64.4065C133.59 64.5446 133.27 64.6999 133.097 64.7431C132.924 64.7948 132.664 64.8035 132.526 64.7776C132.387 64.7431 132.232 64.6481 132.188 64.5532C132.119 64.441 132.136 64.3029 132.232 64.0699C132.309 63.8887 132.69 63.4141 133.088 63.0085C133.486 62.6029 133.901 62.1369 134.014 61.9729C134.117 61.8089 134.446 61.3947 134.74 61.0668C135.026 60.7302 135.372 60.2901 135.51 60.0744C135.64 59.8586 135.951 59.5307 136.193 59.3408C136.436 59.151 136.825 58.823 137.067 58.6073C137.301 58.3915 137.647 58.0118 137.828 57.7616C138.018 57.5027 138.512 56.959 138.927 56.5448C139.333 56.1305 139.818 55.6904 139.991 55.5523C140.172 55.4143 140.466 55.2589 140.639 55.1985C140.821 55.1295 141.063 55.1036 141.184 55.1295C141.305 55.1554 141.85 55.4315 142.413 55.7336ZM149.142 58.2621C149.454 58.4002 149.826 58.5296 149.964 58.5641C150.111 58.5987 150.397 58.685 150.613 58.7626C150.829 58.8403 151.218 59.0301 151.478 59.1941C151.737 59.3494 152.031 59.4962 152.127 59.5134C152.222 59.5393 152.576 59.5911 152.905 59.6342C153.242 59.6774 154.038 59.8155 154.678 59.9449C155.362 60.083 156.062 60.2728 156.365 60.4195C156.651 60.5576 156.971 60.7475 157.083 60.851C157.273 61.0323 157.273 61.0495 157.135 61.2049C157.057 61.2912 156.875 61.4033 156.72 61.4465C156.573 61.4983 155.872 61.6363 155.154 61.7485C154.445 61.8607 153.199 62.0592 152.386 62.1887C151.582 62.3095 150.587 62.4648 150.18 62.5338C149.774 62.5942 149.021 62.6719 148.494 62.7064C147.975 62.7323 147.248 62.7151 146.885 62.6719C146.521 62.6201 145.89 62.4734 145.492 62.3354C145.086 62.1887 144.644 62.0161 144.497 61.947C144.35 61.8694 144.212 61.7399 144.177 61.6709C144.151 61.5932 144.125 61.4033 144.125 61.2566C144.125 61.0927 144.212 60.8856 144.324 60.7561C144.428 60.6267 144.843 60.2556 145.25 59.9276C145.656 59.5911 146.08 59.2114 146.201 59.0819C146.322 58.9525 146.677 58.6763 146.997 58.4606C147.317 58.2448 147.689 58.0464 147.819 58.0032C147.957 57.9601 148.182 57.9514 148.321 57.9773C148.468 58.0032 148.831 58.1327 149.142 58.2621Z" fill="white"/>
</svg>
