<?xml version="1.0" encoding="utf-8"?><svg xmlns="http://www.w3.org/2000/svg" xmlns:xlink="http://www.w3.org/1999/xlink"><symbol fill="current" viewBox="0 0 24 24" id="arrow_down_24" xmlns="http://www.w3.org/2000/svg"><path d="m8 10 4 4 4-4" stroke="current" stroke-linecap="round"/></symbol><symbol fill="current" viewBox="0 0 24 24" id="arrow_right_big_24" xmlns="http://www.w3.org/2000/svg"><path d="m8 20 8-8-8-8" stroke="current" stroke-linecap="round"/></symbol><symbol fill="current" viewBox="0 0 24 24" id="bag" xmlns="http://www.w3.org/2000/svg"><mask id="aca" fill="current"><path fill-rule="evenodd" clip-rule="evenodd" d="M9.29 6.21h5.42a2.71 2.71 0 1 0-5.42 0Zm-1.5 0a4.21 4.21 0 0 1 8.42 0h4.21V20a2 2 0 0 1-2 2H5.578a2 2 0 0 1-2-2V6.21H7.79Z"/></mask><path d="M9.29 6.21h-1.5v1.5h1.5v-1.5Zm5.42 0v1.5h1.5v-1.5h-1.5Zm-6.92 0v1.5h1.5v-1.5h-1.5Zm8.42 0h-1.5v1.5h1.5v-1.5Zm4.21 0h1.5v-1.5h-1.5v1.5Zm-16.842 0v-1.5h-1.5v1.5h1.5Zm5.711 1.5h5.421v-3H9.29v3Zm6.921-1.5h-3 3Zm0 0A4.21 4.21 0 0 0 12 2v3c.668 0 1.21.542 1.21 1.21h3ZM12 2a4.21 4.21 0 0 0-4.21 4.21h3c0-.667.54-1.21 1.21-1.21V2ZM7.79 6.21h3-3Zm-1.5 0h3-3ZM12 .5a5.71 5.71 0 0 0-5.71 5.71h3A2.71 2.71 0 0 1 12 3.5v-3Zm5.71 5.71A5.71 5.71 0 0 0 12 .5v3a2.71 2.71 0 0 1 2.71 2.71h3Zm0 0h-3 3Zm-1.5 1.5h4.21v-3h-4.21v3Zm2.71-1.5V20h3V6.21h-3Zm0 13.79a.5.5 0 0 1-.5.5v3a3.5 3.5 0 0 0 3.5-3.5h-3Zm-.5.5H5.578v3H18.42v-3Zm-12.842 0a.5.5 0 0 1-.5-.5h-3a3.5 3.5 0 0 0 3.5 3.5v-3Zm-.5-.5V6.21h-3V20h3Zm-1.5-12.29H7.79v-3H3.58v3Z" mask="url(#aca)"/></symbol><symbol fill="current" viewBox="0 0 24 24" id="burger" xmlns="http://www.w3.org/2000/svg"><path d="M4 18h16M4 12h16M4 6h16" stroke="current" stroke-width="1.5" stroke-linecap="round"/></symbol><symbol fill="current" viewBox="0 0 25 24" id="cashback" xmlns="http://www.w3.org/2000/svg"><path fill-rule="evenodd" clip-rule="evenodd" d="M3.25 12c0-5.106 4.144-9.25 9.25-9.25a.75.75 0 0 0 0-1.5C6.566 1.25 1.75 6.066 1.75 12S6.566 22.75 12.5 22.75 23.25 17.934 23.25 12a.75.75 0 0 0-1.5 0c0 5.106-4.144 9.25-9.25 9.25S3.25 17.106 3.25 12Zm9.25-5.25a.75.75 0 0 1 .75.75v.24h.09c1.365 0 2.42 1.148 2.42 2.5a.75.75 0 1 1-1.5 0c0-.587-.445-1-.92-1h-.09v2.22l1.007.352.005.002c.352.125.755.322 1.055.707.308.394.433.885.433 1.45 0 1.227-.95 2.28-2.2 2.28h-.3v.249a.75.75 0 0 1-1.5 0v-.25h-.08c-1.365 0-2.42-1.147-2.42-2.5a.75.75 0 0 1 1.5 0c0 .588.445 1 .92 1h.08v-2.224l-.997-.348-.005-.001c-.347-.124-.752-.317-1.054-.702-.31-.394-.434-.887-.434-1.455 0-1.214.947-2.28 2.2-2.28h.29V7.5a.75.75 0 0 1 .75-.75Zm-1.04 2.49h.29v1.697l-.5-.174c-.241-.086-.331-.157-.376-.215-.038-.048-.114-.175-.114-.528 0-.465.353-.78.7-.78Zm1.79 5.51v-1.7l.51.178c.237.084.329.157.375.216.04.052.115.18.115.526 0 .473-.35.78-.7.78h-.3Zm4.25-12.5a.75.75 0 0 1 .75.75v2.19l3.72-3.72a.75.75 0 1 1 1.06 1.06l-3.72 3.72h2.19a.75.75 0 0 1 0 1.5h-4a.748.748 0 0 1-.75-.75V3a.75.75 0 0 1 .75-.75Z"/></symbol><symbol fill="current" viewBox="0 0 24 24" id="checkbox_active" xmlns="http://www.w3.org/2000/svg"><rect x="2" y="2" width="20" height="20" rx="4"/><path d="m8 13 2.918 2.918a.1.1 0 0 0 .151-.01L17 8" stroke="current" stroke-width="1.5" stroke-linecap="round"/></symbol><symbol fill="current" viewBox="0 0 24 24" id="checkbox_normal" xmlns="http://www.w3.org/2000/svg"><rect x="2.75" y="2.75" width="18.5" height="18.5" rx="3.25" stroke="current" stroke-width="1.5"/></symbol><symbol fill="current" viewBox="0 0 24 25" id="clear" xmlns="http://www.w3.org/2000/svg"><path fill-rule="evenodd" clip-rule="evenodd" d="M19.47 3.97a.75.75 0 1 1 1.06 1.06l-7.47 7.47 7.47 7.47a.75.75 0 1 1-1.06 1.06L12 13.56l-7.47 7.47a.75.75 0 0 1-1.06-1.06l7.47-7.47-7.47-7.47a.75.75 0 0 1 1.06-1.06L12 11.44l7.47-7.47Z"/></symbol><symbol fill="current" viewBox="0 0 24 24" id="clip" xmlns="http://www.w3.org/2000/svg"><path d="m18.375 12.74-7.693 7.692a4.5 4.5 0 0 1-6.364-6.364l10.94-10.94A3.001 3.001 0 0 1 19.5 7.372L8.552 18.32a1.5 1.5 0 0 1-2.112-2.13l7.81-7.81m-5.689 9.93-.01.01" stroke="current" stroke-width="1.5" stroke-linecap="round" stroke-linejoin="round"/></symbol><symbol fill="current" viewBox="0 0 24 24" id="corner-arrow" xmlns="http://www.w3.org/2000/svg"><path fill-rule="evenodd" clip-rule="evenodd" d="M16.797 6.14H4.983v-1.5h14.375v14.375h-1.5V7.2L5.514 19.545l-1.06-1.06L16.796 6.14Z"/></symbol><symbol fill="current" viewBox="0 0 24 24" id="delete" xmlns="http://www.w3.org/2000/svg"><path fill-rule="evenodd" clip-rule="evenodd" d="M8.998 4.9a.75.75 0 0 1 .75-.75h4.615a.75.75 0 0 1 0 1.5H9.748a.75.75 0 0 1-.75-.75ZM5.15 7.208a.75.75 0 0 1 .75-.75h12.308a.75.75 0 0 1 0 1.5H5.9a.75.75 0 0 1-.75-.75Zm11.521 2.308h-9.23v8.846c0 .637.516 1.154 1.153 1.154h6.923c.638 0 1.154-.517 1.154-1.154V9.516Z"/></symbol><symbol fill="current" viewBox="0 0 25 24" id="discount" xmlns="http://www.w3.org/2000/svg"><path fill-rule="evenodd" clip-rule="evenodd" d="M11.89 3.02a.856.856 0 0 1 1.199 0l1.52 1.52.521-.52-.521.52c.22.22.505.386.77.496.265.11.582.194.89.194h2.15c.466 0 .85.385.85.85v2.15c0 .308.085.626.195.89.11.265.275.55.495.77l1.52 1.52a.856.856 0 0 1 0 1.2l-1.52 1.52c-.22.22-.386.506-.495.77-.11.265-.195.582-.195.89v2.15c0 .466-.384.85-.85.85h-2.15c-.308 0-.625.085-.89.195s-.55.275-.77.495L13.089 21a.856.856 0 0 1-1.2 0l-1.52-1.52a2.41 2.41 0 0 0-.77-.495 2.398 2.398 0 0 0-.89-.195h-2.15a.855.855 0 0 1-.85-.85v-2.15c0-.31-.084-.63-.195-.897a2.326 2.326 0 0 0-.5-.767L3.5 12.61l-.53.53.53-.53a.856.856 0 0 1 0-1.2l-.494-.493.494.494 1.52-1.52c.22-.22.385-.506.495-.77.11-.265.195-.583.195-.89V6.08c0-.466.384-.85.85-.85h2.15c.308 0 .625-.086.89-.195.264-.11.55-.275.77-.495l1.52-1.52Zm2.26-1.06a2.355 2.355 0 0 0-3.321 0l-1.52 1.52c-.04.04-.14.11-.285.17a.945.945 0 0 1-.315.08h-2.15a2.355 2.355 0 0 0-2.35 2.35v2.15c0 .053-.02.17-.08.316a.955.955 0 0 1-.17.284l-1.52 1.52a2.355 2.355 0 0 0 0 3.32l1.52 1.52.01.011c.032.031.1.122.16.267a.95.95 0 0 1 .08.322v2.15a2.355 2.355 0 0 0 2.35 2.35h2.15c.052 0 .17.02.315.08s.245.13.285.17l1.52 1.52a2.355 2.355 0 0 0 3.32 0l1.52-1.52c.04-.04.14-.11.285-.17a.943.943 0 0 1 .315-.08h2.15a2.355 2.355 0 0 0 2.35-2.35v-2.15c0-.052.02-.17.08-.315a.957.957 0 0 1 .17-.284l1.52-1.52a2.355 2.355 0 0 0 0-3.32l-1.52-1.52-.53.53.53-.53a.956.956 0 0 1-.17-.285.943.943 0 0 1-.08-.316V6.08a2.355 2.355 0 0 0-2.35-2.35h-2.15a.945.945 0 0 1-.315-.08.957.957 0 0 1-.285-.17l-1.52-1.52Zm1.88 7.57a.75.75 0 0 0-1.06-1.06l-6 6a.75.75 0 1 0 1.06 1.06l6-6Zm-2.036 4.97a1 1 0 0 1 1-1h.01a1 1 0 1 1 0 2h-.01a1 1 0 0 1-1-1Zm-3.998-6a1 1 0 0 0 0 2h.01a1 1 0 0 0 0-2h-.01Z"/></symbol><symbol fill="current" viewBox="0 0 24 24" id="edit" xmlns="http://www.w3.org/2000/svg"><path d="M5 16.247v2.364c0 .218.171.389.389.389h2.364a.365.365 0 0 0 .272-.117l8.492-8.484-2.916-2.916-8.484 8.484a.382.382 0 0 0-.117.28Zm13.773-8.103a.774.774 0 0 0 0-1.097l-1.82-1.82a.774.774 0 0 0-1.097 0l-1.423 1.424 2.916 2.916 1.424-1.423Z"/></symbol><symbol fill="current" viewBox="0 0 25 24" id="energy" xmlns="http://www.w3.org/2000/svg"><path d="M7.18 13.152h2.782v6.48c0 1.511.819 1.817 1.818.683l6.812-7.74c.837-.944.486-1.727-.783-1.727h-2.78v-6.48c0-1.512-.82-1.818-1.818-.684l-6.813 7.74c-.828.954-.477 1.728.783 1.728Z" stroke="current" stroke-width="1.5" stroke-miterlimit="10" stroke-linecap="round" stroke-linejoin="round"/></symbol><symbol fill="current" viewBox="0 0 81 20" id="fancy_arrow_long" xmlns="http://www.w3.org/2000/svg"><path fill-rule="evenodd" clip-rule="evenodd" d="M80.5 11a9 9 0 0 0-9 9h-1a10 10 0 0 1 5.641-9H.5a.5.5 0 0 1 0-1h75.641A10.002 10.002 0 0 1 70.5 1h1a9 9 0 0 0 9 9 .5.5 0 0 1 0 1Z"/></symbol><symbol fill="current" viewBox="0 0 21 19" id="fancy_arrow_small" xmlns="http://www.w3.org/2000/svg"><path fill-rule="evenodd" clip-rule="evenodd" d="M20.5 10a9 9 0 0 0-9 9h-1a10 10 0 0 1 5.641-9H.5a.5.5 0 0 1 0-1h15.641A10.002 10.002 0 0 1 10.5 0h1a9 9 0 0 0 9 9 .5.5 0 0 1 0 1Z"/></symbol><symbol fill="current" viewBox="0 0 24 24" id="filter" xmlns="http://www.w3.org/2000/svg"><path d="M21.25 12H8.895m-4.361 0H2.75m1.784 0a2.18 2.18 0 1 1 4.36 0 2.18 2.18 0 0 1-4.36 0Zm16.716 6.607h-5.748m0 0a2.182 2.182 0 0 1-3.723 1.541 2.18 2.18 0 0 1-.638-1.541m4.361 0a2.18 2.18 0 0 0-4.361 0m0 0H2.75m18.5-13.214h-3.105m-4.361 0H2.75m11.034 0a2.18 2.18 0 1 1 4.36 0 2.18 2.18 0 0 1-4.36 0Z" stroke="current" stroke-width="1.5" stroke-miterlimit="10" stroke-linecap="round"/></symbol><symbol fill="current" viewBox="0 0 25 24" id="grid" xmlns="http://www.w3.org/2000/svg"><path fill-rule="evenodd" clip-rule="evenodd" d="M7.96 3.64a3.21 3.21 0 1 0 0 6.42 3.21 3.21 0 0 0 0-6.42ZM6.25 6.85a1.71 1.71 0 1 1 3.42 0 1.71 1.71 0 0 1-3.42 0Zm11.63-3.21a3.21 3.21 0 1 0 0 6.42 3.21 3.21 0 0 0 0-6.42Zm-1.71 3.21a1.71 1.71 0 1 1 3.42 0 1.71 1.71 0 0 1-3.42 0Zm-1.5 9.92a3.21 3.21 0 1 1 6.42 0 3.21 3.21 0 0 1-6.42 0Zm3.21-1.71a1.71 1.71 0 1 0 0 3.42 1.71 1.71 0 0 0 0-3.42Zm-9.92-1.5a3.21 3.21 0 1 0 0 6.42 3.21 3.21 0 0 0 0-6.42Zm-1.71 3.21a1.71 1.71 0 1 1 3.42 0 1.71 1.71 0 0 1-3.42 0Z"/></symbol><symbol fill="current" viewBox="0 0 24 24" id="heart" xmlns="http://www.w3.org/2000/svg"><path d="m11.05 20.146-.002-.001c-2.59-2.304-4.678-4.166-6.128-5.906-1.442-1.73-2.17-3.246-2.17-4.844 0-2.602 2.07-4.645 4.75-4.645 1.519 0 2.985.697 3.936 1.784L12 7.18l.564-.645A5.313 5.313 0 0 1 16.5 4.75c2.68 0 4.75 2.043 4.75 4.645 0 1.598-.728 3.113-2.17 4.844-1.45 1.74-3.538 3.602-6.128 5.906h-.002l-.95.85-.95-.85Z" stroke="current" stroke-width="1.5"/></symbol><symbol fill="current" viewBox="0 0 24 25" id="heart_fill" xmlns="http://www.w3.org/2000/svg"><path d="m12 22.132-1.45-1.295C5.4 16.257 2 13.225 2 9.527c0-3.03 2.42-5.395 5.5-5.395 1.74 0 3.41.795 4.5 2.04a6.062 6.062 0 0 1 4.5-2.04c3.08 0 5.5 2.364 5.5 5.395 0 3.698-3.4 6.73-8.55 11.31L12 22.132Z"/></symbol><symbol fill="current" viewBox="0 0 24 24" id="image_remove" xmlns="http://www.w3.org/2000/svg"><g clip-path="url(#aua)"><circle cx="12" cy="12" r="12"/><path fill-rule="evenodd" clip-rule="evenodd" d="M15.415 8.1a.343.343 0 0 1 .485.485L12.485 12l3.415 3.415a.343.343 0 0 1-.485.485L12 12.485 8.585 15.9a.343.343 0 1 1-.485-.485L11.515 12 8.1 8.585a.343.343 0 0 1 .485-.485L12 11.515 15.415 8.1Z"/></g><defs><clipPath id="aua"><path d="M0 0h24v24H0z"/></clipPath></defs></symbol><symbol fill="current" viewBox="0 0 25 24" id="kettle" xmlns="http://www.w3.org/2000/svg"><path d="M6.816 7.263h8.052s3.79 1.965 3.79 6.537c0 4.571-3.79 6.726-3.79 6.726H6.816S3.5 17.674 3.5 13.895c0-3.78 3.316-6.632 3.316-6.632Z" stroke="current" stroke-width="1.5" stroke-linecap="round" stroke-linejoin="round"/><path d="M18.658 13.895c-6.158-1.421-9 2.842-15.158 0m11.842-6.632h4.263s1.895 1.895 1.895 7.58m-6.158-7.58.474-2.526L4.92 3.474l1.895 3.79h8.526Z" stroke="current" stroke-width="1.5" stroke-linecap="round" stroke-linejoin="round"/></symbol><symbol fill="current" viewBox="0 0 24 24" id="map-point" xmlns="http://www.w3.org/2000/svg"><path d="M12.705 21.074a.727.727 0 0 1-.948 0h-.001l-.315-.274h-.001c-4.574-4.003-6.69-7.51-6.69-10.569a7.481 7.481 0 0 1 14.962 0c0 3.131-2.216 6.729-7.007 10.843ZM12.23 6.315a3.916 3.916 0 1 0 0 7.832 3.916 3.916 0 0 0 0-7.832Z" stroke="current" stroke-width="1.5"/></symbol><symbol fill="current" viewBox="0 0 25 24" id="message" xmlns="http://www.w3.org/2000/svg"><path fill-rule="evenodd" clip-rule="evenodd" d="M3.25 8c0-1.884.47-3.16 1.28-3.97S6.616 2.75 8.5 2.75h8c1.884 0 3.16.47 3.97 1.28S21.75 6.116 21.75 8v5c0 1.884-.47 3.16-1.28 3.97s-2.086 1.28-3.97 1.28H16c-.548 0-1.068.262-1.397.696l-.003.004-1.5 2c-.21.279-.434.36-.6.36-.166 0-.39-.081-.6-.36l-1.497-1.997a1.745 1.745 0 0 0-.629-.508A1.79 1.79 0 0 0 9 18.25h-.5c-1.987 0-3.231-.261-4.006-.94-.75-.656-1.244-1.875-1.244-4.31V8ZM8.5 1.25c-2.116 0-3.84.53-5.03 1.72C2.28 4.16 1.75 5.884 1.75 8v5c0 2.565.506 4.346 1.756 5.44 1.225 1.071 2.98 1.31 4.994 1.31h.495l.026.006a.484.484 0 0 1 .178.092l.001.002 1.5 2c.45.601 1.096.96 1.8.96s1.35-.359 1.8-.96l1.497-1.996.001-.002A.264.264 0 0 1 16 19.75h.5c2.116 0 3.84-.53 5.03-1.72 1.19-1.19 1.72-2.914 1.72-5.03V8c0-2.116-.53-3.84-1.72-5.03-1.19-1.19-2.914-1.72-5.03-1.72h-8ZM16.496 10a1 1 0 1 0 0 2h.009a1 1 0 1 0 0-2h-.009Zm-5 1a1 1 0 0 1 1-1h.01a1 1 0 1 1 0 2h-.01a1 1 0 0 1-1-1Zm-3.002-1a1 1 0 1 0 0 2h.01a1 1 0 1 0 0-2h-.01Z"/></symbol><symbol fill="current" viewBox="0 0 24 24" id="order-repeat" xmlns="http://www.w3.org/2000/svg"><path fill-rule="evenodd" clip-rule="evenodd" d="M10.167 5.245a7 7 0 0 1 7.52 2.673V6.53a.656.656 0 1 1 1.313 0v3.719h-3.719a.656.656 0 1 1 0-1.313h1.511a5.687 5.687 0 1 0 .46 5.245.656.656 0 1 1 1.213.503 7 7 0 1 1-8.298-9.44Z"/></symbol><symbol fill="current" viewBox="0 0 24 24" id="orders" xmlns="http://www.w3.org/2000/svg"><path fill-rule="evenodd" clip-rule="evenodd" d="M18 3.5H6A2.5 2.5 0 0 0 3.5 6v12A2.5 2.5 0 0 0 6 20.5h12a2.5 2.5 0 0 0 2.5-2.5V6A2.5 2.5 0 0 0 18 3.5ZM6 2a4 4 0 0 0-4 4v12a4 4 0 0 0 4 4h12a4 4 0 0 0 4-4V6a4 4 0 0 0-4-4H6Zm2.25 6A.75.75 0 0 1 9 7.25h9.5a.75.75 0 0 1 0 1.5H9A.75.75 0 0 1 8.25 8ZM6 7.25a.75.75 0 0 0 0 1.5h.1a.75.75 0 0 0 0-1.5H6ZM8.25 12a.75.75 0 0 1 .75-.75h9.5a.75.75 0 0 1 0 1.5H9a.75.75 0 0 1-.75-.75ZM6 11.25a.75.75 0 0 0 0 1.5h.1a.75.75 0 0 0 0-1.5H6ZM8.25 16a.75.75 0 0 1 .75-.75h9.5a.75.75 0 0 1 0 1.5H9a.75.75 0 0 1-.75-.75ZM6 15.25a.75.75 0 0 0 0 1.5h.1a.75.75 0 0 0 0-1.5H6Z"/></symbol><symbol fill="current" viewBox="0 0 24 24" id="person" xmlns="http://www.w3.org/2000/svg"><path fill-rule="evenodd" clip-rule="evenodd" d="M15.5 8a3.5 3.5 0 1 1-7 0 3.5 3.5 0 0 1 7 0ZM17 8A5 5 0 1 1 7 8a5 5 0 0 1 10 0ZM3.733 20.5c.34-1.084 1.053-2.121 2.133-2.986C7.447 16.25 9.651 15.5 12 15.5c2.35 0 4.553.75 6.134 2.014 1.08.865 1.793 1.902 2.133 2.986H3.733ZM22 22c0-.507-.06-1.009-.177-1.5-.373-1.564-1.325-3.015-2.752-4.157C17.196 14.843 14.652 14 12 14s-5.196.843-7.071 2.343C3.502 17.485 2.55 18.936 2.177 20.5A6.455 6.455 0 0 0 2 22h20Z"/></symbol><symbol fill="current" viewBox="0 0 40 40" id="plus" xmlns="http://www.w3.org/2000/svg"><path fill-rule="evenodd" clip-rule="evenodd" d="M21 4a1 1 0 1 0-2 0v15H4a1 1 0 1 0 0 2h15v15a1 1 0 1 0 2 0V21h15a1 1 0 1 0 0-2H21V4Z"/></symbol><symbol fill="current" viewBox="0 0 24 24" id="plus-mini" xmlns="http://www.w3.org/2000/svg"><path fill-rule="evenodd" clip-rule="evenodd" d="M12.722 5.75a.75.75 0 0 0-1.5 0v5.473H5.75a.75.75 0 1 0 0 1.5h5.472v5.471a.75.75 0 1 0 1.5 0v-5.471h5.472a.75.75 0 1 0 0-1.5h-5.472V5.75Z"/></symbol><symbol fill="current" viewBox="0 0 25 24" id="repeat" xmlns="http://www.w3.org/2000/svg"><path fill-rule="evenodd" clip-rule="evenodd" d="m4.499 10.917-.257-.705-.866-2.382a.75.75 0 1 1 1.41-.513l.242.667c3.095-6.609 12.745-6.446 15.519.487a.75.75 0 0 1-1.393.557C16.871 3.32 8.922 3.188 6.38 8.636l.693-.252a.75.75 0 1 1 .513 1.41l-2.381.866-.705.257Zm15.784 2.167.256.705.867 2.381a.75.75 0 0 1-1.41.513l-.242-.666c-3.096 6.608-12.746 6.446-15.52-.488a.75.75 0 1 1 1.393-.557c2.284 5.71 10.233 5.84 12.776.392l-.694.253a.75.75 0 1 1-.513-1.41l2.382-.867.705-.256Z"/></symbol><symbol fill="current" viewBox="0 0 24 24" id="search" xmlns="http://www.w3.org/2000/svg"><path d="m21 22-4.486-4.494M19 11.5a8.5 8.5 0 1 1-17 0 8.5 8.5 0 0 1 17 0Z" stroke="current" stroke-width="1.5" stroke-linecap="round"/></symbol><symbol fill="current" viewBox="0 0 40 40" id="star" xmlns="http://www.w3.org/2000/svg"><path d="m20 3.333 3.742 11.516H35.85l-9.797 7.118 3.742 11.516L20 26.366l-9.796 7.117 3.741-11.516-9.796-7.118h12.109L20 3.333Z"/></symbol><symbol fill="current" viewBox="0 0 25 24" id="stonks" xmlns="http://www.w3.org/2000/svg"><path fill-rule="evenodd" clip-rule="evenodd" d="M9.5 1.25c-2.574 0-4.57.51-5.905 1.845C2.26 4.429 1.75 6.426 1.75 9v6c0 2.574.51 4.57 1.845 5.905C4.929 22.24 6.926 22.75 9.5 22.75h6c2.574 0 4.57-.51 5.905-1.845C22.74 19.571 23.25 17.574 23.25 15V9c0-2.574-.51-4.57-1.845-5.905C20.071 1.76 18.074 1.25 15.5 1.25h-6ZM3.25 9c0-2.426.49-3.93 1.405-4.845C5.571 3.24 7.074 2.75 9.5 2.75h6c2.426 0 3.93.49 4.845 1.405.915.916 1.405 2.419 1.405 4.845v6c0 2.426-.49 3.93-1.405 4.845-.916.915-2.419 1.405-4.845 1.405h-6c-2.426 0-3.93-.49-4.845-1.405C3.74 18.929 3.25 17.426 3.25 15V9Zm14.282-.029a.748.748 0 0 1 .218.529v2a.75.75 0 0 1-1.5 0v-.19l-2.92 2.92a.75.75 0 0 1-1.154-.114l-1.093-1.639L8.53 15.03a.75.75 0 0 1-1.06-1.06l3.2-3.2a.75.75 0 0 1 1.154.114l1.093 1.639 2.272-2.273H15a.75.75 0 0 1 0-1.5h2a.748.748 0 0 1 .529.218l.001.002.002.001Z"/></symbol><symbol fill="current" viewBox="0 0 25 24" id="temperature" xmlns="http://www.w3.org/2000/svg"><path d="M14.655 13.86a.312.312 0 0 1-.155-.271v-8.66c0-.512-.21-1.002-.586-1.364A2.038 2.038 0 0 0 12.5 3c-.53 0-1.04.203-1.414.565a1.894 1.894 0 0 0-.586 1.364v8.66a.313.313 0 0 1-.155.271 3.971 3.971 0 0 0-1.396 1.493 3.803 3.803 0 0 0-.445 1.965 3.8 3.8 0 0 0 1.266 2.644 4.085 4.085 0 0 0 2.82 1.037 4.07 4.07 0 0 0 2.77-1.16 3.786 3.786 0 0 0 1.14-2.694c0-.652-.168-1.294-.49-1.867a3.976 3.976 0 0 0-1.355-1.417" stroke="current" stroke-width="1.5" stroke-miterlimit="10" stroke-linecap="round" stroke-linejoin="round"/></symbol><symbol fill="current" viewBox="0 0 24 24" id="tg" xmlns="http://www.w3.org/2000/svg"><g clip-path="url(#bia)"><path d="M15.977 7.088s1.11-.433 1.017.619c-.03.432-.308 1.948-.523 3.586l-.74 4.854s-.062.712-.617.835c-.555.124-1.388-.433-1.542-.556-.124-.093-2.313-1.485-3.084-2.165-.216-.185-.462-.556.031-.989l3.238-3.092c.37-.371.74-1.237-.802-.186l-4.317 2.937s-.493.31-1.418.032l-2.005-.619s-.74-.464.525-.927c3.083-1.454 6.876-2.938 10.237-4.329"/><circle cx="12" cy="12" r="11.25" stroke="current" stroke-width="1.5"/></g><defs><clipPath id="bia"><path d="M0 0h24v24H0z"/></clipPath></defs></symbol><symbol fill="current" viewBox="0 0 25 24" id="time" xmlns="http://www.w3.org/2000/svg"><path d="M3.5 12a9 9 0 1 0 18.001 0A9 9 0 0 0 3.5 12Z" stroke="current" stroke-width="1.5" stroke-linecap="round" stroke-linejoin="round"/><path d="M12.5 7v5l3 3" stroke="current" stroke-width="1.5" stroke-linecap="round" stroke-linejoin="round"/></symbol><symbol fill="current" viewBox="0 0 24 24" id="vk" xmlns="http://www.w3.org/2000/svg"><path d="M12 0C5.372 0 0 5.372 0 12s5.372 12 12 12 12-5.372 12-12S18.628 0 12 0Zm4.615 13.539s1.061 1.047 1.323 1.534c.007.01.01.02.013.024.107.18.131.318.079.422-.088.172-.388.257-.49.265h-1.875c-.13 0-.402-.034-.732-.261-.254-.178-.504-.47-.748-.753-.364-.422-.679-.787-.996-.787a.38.38 0 0 0-.119.018c-.24.078-.547.42-.547 1.333 0 .285-.226.449-.384.449h-.859c-.292 0-1.816-.103-3.166-1.527-1.653-1.744-3.14-5.241-3.153-5.274-.094-.226.1-.347.311-.347h1.894c.253 0 .335.154.393.29.067.159.315.79.721 1.5.659 1.157 1.063 1.627 1.386 1.627.061 0 .12-.016.174-.044.422-.235.344-1.742.325-2.054 0-.059-.001-.674-.217-.969-.155-.214-.42-.295-.58-.325a.688.688 0 0 1 .25-.211c.29-.145.812-.166 1.33-.166h.29c.562.007.707.043.91.095.413.098.422.364.386 1.276-.011.258-.023.551-.023.896 0 .075-.003.155-.003.24-.013.464-.028.99.3 1.206a.271.271 0 0 0 .142.041c.114 0 .456 0 1.384-1.59a12.14 12.14 0 0 0 .744-1.593.482.482 0 0 1 .138-.171.332.332 0 0 1 .155-.037h2.226c.243 0 .41.036.44.13.056.149-.01.603-1.026 1.979l-.453.599c-.922 1.207-.922 1.269.057 2.185Z"/></symbol><symbol fill="current" viewBox="0 0 24 24" id="wa" xmlns="http://www.w3.org/2000/svg"><path d="M17.39 14.443c-.299-.143-1.754-.859-2.016-.966-.274-.096-.465-.143-.668.143-.203.298-.763.966-.93 1.157-.167.203-.346.226-.644.071-.298-.143-1.252-.465-2.373-1.467-.883-.787-1.467-1.753-1.646-2.05-.167-.299-.024-.454.13-.61.132-.13.3-.345.442-.512.143-.167.203-.298.298-.489.096-.203.048-.37-.024-.513a98.253 98.253 0 0 1-.906-2.194c-.238-.573-.489-.501-.668-.513h-.572c-.203 0-.513.072-.787.37C6.763 7.168 6 7.883 6 9.338s1.061 2.863 1.205 3.054c.143.202 2.087 3.184 5.044 4.46.704.31 1.253.489 1.682.62.704.227 1.348.19 1.86.12.573-.084 1.754-.716 1.992-1.408.25-.692.25-1.276.167-1.407-.083-.131-.262-.191-.56-.334Z"/><mask id="bla" fill="current"><path fill-rule="evenodd" clip-rule="evenodd" d="M12 24c6.627 0 12-5.373 12-12S18.627 0 12 0 0 5.373 0 12c0 2.215.6 4.29 1.647 6.071L0 24l5.353-2.008A11.944 11.944 0 0 0 12 24Z"/></mask><path d="m1.647 18.071 1.445.402.17-.613-.322-.549-1.293.76ZM0 24l-1.445-.401-.79 2.841 2.762-1.036L0 24Zm5.353-2.008.832-1.248-.64-.426-.718.27.526 1.404ZM22.5 12c0 5.799-4.701 10.5-10.5 10.5v3c7.456 0 13.5-6.044 13.5-13.5h-3ZM12 1.5c5.799 0 10.5 4.701 10.5 10.5h3c0-7.456-6.044-13.5-13.5-13.5v3ZM1.5 12C1.5 6.201 6.201 1.5 12 1.5v-3C4.544-1.5-1.5 4.544-1.5 12h3Zm1.44 5.311A10.445 10.445 0 0 1 1.5 12h-3c0 2.49.675 4.826 1.854 6.831l2.586-1.52Zm-1.495 7.09 1.647-5.928-2.89-.803-1.647 5.928 2.89.803Zm3.382-3.813-5.354 2.008 1.054 2.808 5.353-2.007-1.053-2.809ZM12 22.5a10.44 10.44 0 0 1-5.815-1.756l-1.664 2.497A13.444 13.444 0 0 0 12 25.5v-3Z" mask="url(#bla)"/></symbol><symbol fill="current" viewBox="0 0 25 24" id="wallet" xmlns="http://www.w3.org/2000/svg"><path fill-rule="evenodd" clip-rule="evenodd" d="M6.804 4.301c.22-.034.452-.051.696-.051h9a3.848 3.848 0 0 1 .663.045c1.122.13 2.006.603 2.612 1.305.607.703.975 1.685.975 2.9v.7h-1.33a2.74 2.74 0 0 0-1.97.82 2.785 2.785 0 0 0-.588.844 2.745 2.745 0 0 0-.229 1.383c.13 1.522 1.498 2.553 2.907 2.553h1.21v.7c0 1.33-.44 2.38-1.155 3.095-.716.715-1.765 1.155-3.095 1.155h-9c-1.33 0-2.38-.44-3.095-1.155C3.69 17.879 3.25 16.83 3.25 15.5v-7c0-1.207.362-2.182.96-2.883.596-.7 1.466-1.174 2.573-1.313l.021-.003ZM22.25 14.62v.88c0 1.67-.56 3.12-1.595 4.155-1.034 1.035-2.485 1.595-4.155 1.595h-9c-1.67 0-3.12-.56-4.155-1.595C2.31 18.621 1.75 17.17 1.75 15.5v-7c0-1.513.458-2.848 1.318-3.857.86-1.008 2.08-1.643 3.518-1.826.297-.045.602-.067.914-.067h9c.27 0 .56.01.855.057 1.45.173 2.684.804 3.555 1.813.873 1.012 1.34 2.355 1.34 3.88v.88c.591.286 1 .887 1 1.59v2.06c0 .703-.409 1.303-1 1.59Zm-4.013-3.156a1.25 1.25 0 0 0-.11.645v.008c.053.635.664 1.183 1.413 1.183h1.943a.276.276 0 0 0 .267-.27v-2.06a.276.276 0 0 0-.263-.27H19.42c-.359 0-.675.14-.903.373l-.013.014a1.278 1.278 0 0 0-.267.377ZM6.75 9a.75.75 0 0 1 .75-.75h6a.75.75 0 0 1 0 1.5h-6A.75.75 0 0 1 6.75 9Z"/></symbol></svg>